%TF.GenerationSoftware,KiCad,Pcbnew,7.0.8*%
%TF.CreationDate,2023-12-29T21:58:38-05:00*%
%TF.ProjectId,SleepMonitor,536c6565-704d-46f6-9e69-746f722e6b69,rev?*%
%TF.SameCoordinates,Original*%
%TF.FileFunction,Copper,L2,Bot*%
%TF.FilePolarity,Positive*%
%FSLAX46Y46*%
G04 Gerber Fmt 4.6, Leading zero omitted, Abs format (unit mm)*
G04 Created by KiCad (PCBNEW 7.0.8) date 2023-12-29 21:58:38*
%MOMM*%
%LPD*%
G01*
G04 APERTURE LIST*
%TA.AperFunction,HeatsinkPad*%
%ADD10C,0.600000*%
%TD*%
%TA.AperFunction,HeatsinkPad*%
%ADD11C,0.800000*%
%TD*%
%TA.AperFunction,ComponentPad*%
%ADD12R,1.700000X1.700000*%
%TD*%
%TA.AperFunction,ComponentPad*%
%ADD13O,1.700000X1.700000*%
%TD*%
%TA.AperFunction,ComponentPad*%
%ADD14R,1.600000X1.600000*%
%TD*%
%TA.AperFunction,ComponentPad*%
%ADD15O,1.600000X1.600000*%
%TD*%
%TA.AperFunction,ComponentPad*%
%ADD16C,1.400000*%
%TD*%
%TA.AperFunction,ViaPad*%
%ADD17C,0.800000*%
%TD*%
%TA.AperFunction,Conductor*%
%ADD18C,0.203200*%
%TD*%
%TA.AperFunction,Conductor*%
%ADD19C,0.250000*%
%TD*%
G04 APERTURE END LIST*
D10*
%TO.P,U3,39,GND*%
%TO.N,GND*%
X143400000Y-78415000D03*
X143400000Y-77015000D03*
X142700000Y-79115000D03*
X142700000Y-77715000D03*
X142700000Y-76315000D03*
X141975000Y-78415000D03*
X141975000Y-77015000D03*
X141300000Y-79115000D03*
X141300000Y-77715000D03*
D11*
X141300000Y-76315000D03*
D10*
X140600000Y-78415000D03*
D11*
X140600000Y-77015000D03*
%TD*%
D12*
%TO.P,J1,1,Pin_1*%
%TO.N,+5V*%
X97275000Y-82125000D03*
D13*
%TO.P,J1,2,Pin_2*%
%TO.N,GND*%
X94735000Y-82125000D03*
%TD*%
D12*
%TO.P,Y1,1,1*%
%TO.N,GND*%
X130775000Y-108000000D03*
D13*
%TO.P,Y1,2,2*%
%TO.N,Net-(R4-Pad2)*%
X128235000Y-108000000D03*
%TD*%
D14*
%TO.P,D2,1,K*%
%TO.N,VDD*%
X109190000Y-102500000D03*
D15*
%TO.P,D2,2,A*%
%TO.N,Net-(D2-A)*%
X116810000Y-102500000D03*
%TD*%
D12*
%TO.P,J5,1,Pin_1*%
%TO.N,/Touch0*%
X154775000Y-94000000D03*
D13*
%TO.P,J5,2,Pin_2*%
%TO.N,/Touch2*%
X152235000Y-94000000D03*
%TD*%
D14*
%TO.P,D1,1,K*%
%TO.N,Net-(D1-K)*%
X122000000Y-101000000D03*
D15*
%TO.P,D1,2,A*%
%TO.N,Net-(D1-A)*%
X122000000Y-108620000D03*
%TD*%
D16*
%TO.P,JP1,1,A*%
%TO.N,/Boot*%
X152250000Y-91000000D03*
%TO.P,JP1,2,B*%
%TO.N,GND*%
X154790000Y-91000000D03*
%TD*%
D12*
%TO.P,M1,1,+*%
%TO.N,VDD*%
X109725000Y-105985000D03*
D13*
%TO.P,M1,2,-*%
%TO.N,Net-(D2-A)*%
X112265000Y-105985000D03*
%TD*%
D12*
%TO.P,J4,1,Pin_1*%
%TO.N,/ESP_P30*%
X159500000Y-81075000D03*
D13*
%TO.P,J4,2,Pin_2*%
%TO.N,/ESP_P31*%
X159500000Y-78535000D03*
%TO.P,J4,3,Pin_3*%
%TO.N,/ESP_P33*%
X159500000Y-75995000D03*
%TO.P,J4,4,Pin_4*%
%TO.N,/ESP_P36*%
X159500000Y-73455000D03*
%TO.P,J4,5,Pin_5*%
%TO.N,/ESP_P37*%
X159500000Y-70915000D03*
%TD*%
D12*
%TO.P,J3,1,Pin_1*%
%TO.N,/ESP_P10*%
X130500000Y-81925000D03*
D13*
%TO.P,J3,2,Pin_2*%
%TO.N,/ESP_P11*%
X130500000Y-84465000D03*
%TO.P,J3,3,Pin_3*%
%TO.N,/ESP_P12*%
X130500000Y-87005000D03*
%TO.P,J3,4,Pin_4*%
%TO.N,/ESP_P13*%
X130500000Y-89545000D03*
%TO.P,J3,5,Pin_5*%
%TO.N,/ESP_P14*%
X130500000Y-92085000D03*
%TD*%
D12*
%TO.P,J2,1,Pin_1*%
%TO.N,VDD*%
X155500000Y-71200000D03*
D13*
%TO.P,J2,2,Pin_2*%
%TO.N,/TX*%
X155500000Y-73740000D03*
%TO.P,J2,3,Pin_3*%
%TO.N,/RX*%
X155500000Y-76280000D03*
%TO.P,J2,4,Pin_4*%
%TO.N,GND*%
X155500000Y-78820000D03*
%TD*%
D12*
%TO.P,J6,1,Pin_1*%
%TO.N,/Capacity_electrode*%
X145775000Y-99000000D03*
D13*
%TO.P,J6,2,Pin_2*%
%TO.N,GND*%
X143235000Y-99000000D03*
%TD*%
D17*
%TO.N,GND*%
X99000000Y-85250000D03*
X104000000Y-82000000D03*
X131750000Y-75500000D03*
X127250000Y-102500000D03*
X118750000Y-103750000D03*
X120500000Y-108250000D03*
X110500000Y-101000000D03*
X124000000Y-81250000D03*
X115500000Y-81750000D03*
X115750000Y-88250000D03*
X109000000Y-80250000D03*
X115750000Y-70750000D03*
X101750000Y-72000000D03*
X92500000Y-91500000D03*
X92500000Y-97500000D03*
X147000000Y-97500000D03*
X143250000Y-107250000D03*
X129500000Y-106000000D03*
X157000000Y-82250000D03*
X157500000Y-75000000D03*
X157500000Y-71000000D03*
X162500000Y-83500000D03*
X157750000Y-84000000D03*
X153750000Y-87000000D03*
X148750000Y-91750000D03*
X150750000Y-88000000D03*
X141000000Y-89250000D03*
X147000000Y-92250000D03*
X127000000Y-88500000D03*
X126000000Y-93250000D03*
X124500000Y-88500000D03*
X123000000Y-106750000D03*
X142500000Y-96000000D03*
X123250000Y-93750000D03*
X121500000Y-97000000D03*
X129500000Y-75500000D03*
X123250000Y-96250000D03*
X138000000Y-98000000D03*
X120000000Y-71500000D03*
X133500000Y-87500000D03*
X117000000Y-94500000D03*
X133250000Y-95750000D03*
X133000000Y-77500000D03*
X137250000Y-100000000D03*
X130000000Y-69500000D03*
X129000000Y-85500000D03*
%TO.N,VDD*%
X123000000Y-99500000D03*
X129000000Y-99000000D03*
%TO.N,/ESP_P36*%
X151000000Y-72500000D03*
%TO.N,/PZ_ATN100K*%
X138500000Y-100000000D03*
X139000000Y-92250000D03*
%TO.N,/PZ_ATN10K*%
X141500000Y-93750000D03*
X141500000Y-95500000D03*
%TO.N,/PZ_ATN1MEG*%
X133750000Y-98250000D03*
X133895362Y-99895362D03*
%TD*%
D18*
%TO.N,/PZ_ATN1MEG*%
X133895362Y-98395362D02*
X133895362Y-99895362D01*
X133750000Y-98250000D02*
X133895362Y-98395362D01*
D19*
%TO.N,VDD*%
X123000000Y-99500000D02*
X123500000Y-99000000D01*
X123500000Y-99000000D02*
X129000000Y-99000000D01*
%TO.N,/ESP_P36*%
X158545000Y-72500000D02*
X159500000Y-73455000D01*
X151000000Y-72500000D02*
X158545000Y-72500000D01*
%TO.N,/PZ_ATN100K*%
X139000000Y-99500000D02*
X138500000Y-100000000D01*
X139000000Y-92250000D02*
X139000000Y-99500000D01*
%TO.N,/PZ_ATN10K*%
X141500000Y-93750000D02*
X141500000Y-95500000D01*
%TD*%
%TA.AperFunction,Conductor*%
%TO.N,GND*%
G36*
X160001620Y-68750584D02*
G01*
X160133503Y-68757496D01*
X160344132Y-68769325D01*
X160350296Y-68769984D01*
X160468949Y-68788777D01*
X160511585Y-68795531D01*
X160562305Y-68804148D01*
X160692059Y-68826194D01*
X160697666Y-68827419D01*
X160860989Y-68871181D01*
X161031730Y-68920372D01*
X161036751Y-68922056D01*
X161196903Y-68983532D01*
X161359185Y-69050752D01*
X161363595Y-69052785D01*
X161517666Y-69131288D01*
X161670621Y-69215823D01*
X161674360Y-69218067D01*
X161754576Y-69270160D01*
X161820112Y-69312720D01*
X161962323Y-69413624D01*
X161965464Y-69416007D01*
X162099763Y-69524761D01*
X162102059Y-69526714D01*
X162230937Y-69641885D01*
X162233464Y-69644275D01*
X162355723Y-69766534D01*
X162358113Y-69769061D01*
X162473284Y-69897939D01*
X162475237Y-69900235D01*
X162583991Y-70034534D01*
X162586374Y-70037675D01*
X162687279Y-70179887D01*
X162781917Y-70325615D01*
X162784184Y-70329393D01*
X162868716Y-70482342D01*
X162947211Y-70636399D01*
X162949250Y-70640821D01*
X163016471Y-70803106D01*
X163077937Y-70963232D01*
X163079632Y-70968289D01*
X163128827Y-71139046D01*
X163172574Y-71302310D01*
X163173811Y-71307975D01*
X163204468Y-71488414D01*
X163230009Y-71649663D01*
X163230675Y-71655890D01*
X163242512Y-71866678D01*
X163249415Y-71998377D01*
X163249500Y-72001623D01*
X163249500Y-108248375D01*
X163249415Y-108251621D01*
X163242512Y-108383321D01*
X163230675Y-108594108D01*
X163230009Y-108600335D01*
X163204468Y-108761585D01*
X163173811Y-108942023D01*
X163172574Y-108947688D01*
X163128827Y-109110953D01*
X163079632Y-109281709D01*
X163077937Y-109286766D01*
X163016471Y-109446893D01*
X162949250Y-109609177D01*
X162947212Y-109613599D01*
X162868716Y-109767657D01*
X162784184Y-109920605D01*
X162781917Y-109924383D01*
X162687279Y-110070112D01*
X162586374Y-110212323D01*
X162583991Y-110215464D01*
X162475237Y-110349763D01*
X162473284Y-110352059D01*
X162358113Y-110480937D01*
X162355723Y-110483464D01*
X162233464Y-110605723D01*
X162230937Y-110608113D01*
X162102059Y-110723284D01*
X162099763Y-110725237D01*
X161965464Y-110833991D01*
X161962323Y-110836374D01*
X161820112Y-110937279D01*
X161674383Y-111031917D01*
X161670605Y-111034184D01*
X161517657Y-111118716D01*
X161363599Y-111197212D01*
X161359177Y-111199250D01*
X161196893Y-111266471D01*
X161036766Y-111327937D01*
X161031709Y-111329632D01*
X160860953Y-111378827D01*
X160697688Y-111422574D01*
X160692023Y-111423811D01*
X160511585Y-111454468D01*
X160350335Y-111480009D01*
X160344108Y-111480675D01*
X160133321Y-111492512D01*
X160001621Y-111499415D01*
X159998375Y-111499500D01*
X94251624Y-111499500D01*
X94248378Y-111499415D01*
X94116678Y-111492512D01*
X93905890Y-111480675D01*
X93899668Y-111480009D01*
X93875719Y-111476216D01*
X93738414Y-111454468D01*
X93557975Y-111423811D01*
X93552310Y-111422574D01*
X93389046Y-111378827D01*
X93218289Y-111329632D01*
X93213232Y-111327937D01*
X93053106Y-111266471D01*
X92890821Y-111199250D01*
X92886399Y-111197211D01*
X92732342Y-111118716D01*
X92579393Y-111034184D01*
X92575623Y-111031921D01*
X92495424Y-110979840D01*
X92429887Y-110937279D01*
X92287675Y-110836374D01*
X92284534Y-110833991D01*
X92150235Y-110725237D01*
X92147939Y-110723284D01*
X92019061Y-110608113D01*
X92016534Y-110605723D01*
X91894275Y-110483464D01*
X91891885Y-110480937D01*
X91776714Y-110352059D01*
X91774761Y-110349763D01*
X91666007Y-110215464D01*
X91663624Y-110212323D01*
X91562720Y-110070112D01*
X91531981Y-110022779D01*
X91468067Y-109924360D01*
X91465823Y-109920621D01*
X91381283Y-109767657D01*
X91302785Y-109613595D01*
X91300752Y-109609185D01*
X91233532Y-109446903D01*
X91172056Y-109286751D01*
X91170372Y-109281730D01*
X91121181Y-109110989D01*
X91077419Y-108947666D01*
X91076194Y-108942059D01*
X91054148Y-108812305D01*
X91045531Y-108761585D01*
X91038777Y-108718949D01*
X91023105Y-108620000D01*
X120994659Y-108620000D01*
X121013975Y-108816129D01*
X121071188Y-109004733D01*
X121164086Y-109178532D01*
X121164090Y-109178539D01*
X121289116Y-109330883D01*
X121441460Y-109455909D01*
X121441467Y-109455913D01*
X121615266Y-109548811D01*
X121615269Y-109548811D01*
X121615273Y-109548814D01*
X121803868Y-109606024D01*
X122000000Y-109625341D01*
X122196132Y-109606024D01*
X122384727Y-109548814D01*
X122558538Y-109455910D01*
X122710883Y-109330883D01*
X122835910Y-109178538D01*
X122901631Y-109055582D01*
X122928811Y-109004733D01*
X122928811Y-109004732D01*
X122928814Y-109004727D01*
X122986024Y-108816132D01*
X123005341Y-108620000D01*
X122986024Y-108423868D01*
X122928814Y-108235273D01*
X122928811Y-108235269D01*
X122928811Y-108235266D01*
X122835913Y-108061467D01*
X122835909Y-108061460D01*
X122785470Y-108000000D01*
X127179417Y-108000000D01*
X127199699Y-108205932D01*
X127208600Y-108235273D01*
X127259768Y-108403954D01*
X127357315Y-108586450D01*
X127368710Y-108600335D01*
X127488589Y-108746410D01*
X127568884Y-108812305D01*
X127648550Y-108877685D01*
X127831046Y-108975232D01*
X128029066Y-109035300D01*
X128029065Y-109035300D01*
X128047529Y-109037118D01*
X128235000Y-109055583D01*
X128440934Y-109035300D01*
X128638954Y-108975232D01*
X128821450Y-108877685D01*
X128981410Y-108746410D01*
X129112685Y-108586450D01*
X129191643Y-108438730D01*
X129240605Y-108388888D01*
X129308742Y-108373428D01*
X129374422Y-108397260D01*
X129416791Y-108452818D01*
X129425000Y-108497186D01*
X129425000Y-108897844D01*
X129431401Y-108957372D01*
X129431403Y-108957379D01*
X129481645Y-109092086D01*
X129481649Y-109092093D01*
X129567809Y-109207187D01*
X129567812Y-109207190D01*
X129682906Y-109293350D01*
X129682913Y-109293354D01*
X129817620Y-109343596D01*
X129817627Y-109343598D01*
X129877155Y-109349999D01*
X129877172Y-109350000D01*
X130525000Y-109350000D01*
X130525000Y-108435501D01*
X130632685Y-108484680D01*
X130739237Y-108500000D01*
X130810763Y-108500000D01*
X130917315Y-108484680D01*
X131025000Y-108435501D01*
X131025000Y-109350000D01*
X131672828Y-109350000D01*
X131672844Y-109349999D01*
X131732372Y-109343598D01*
X131732379Y-109343596D01*
X131867086Y-109293354D01*
X131867093Y-109293350D01*
X131982187Y-109207190D01*
X131982190Y-109207187D01*
X132068350Y-109092093D01*
X132068354Y-109092086D01*
X132118596Y-108957379D01*
X132118598Y-108957372D01*
X132124999Y-108897844D01*
X132125000Y-108897827D01*
X132125000Y-108250000D01*
X131208686Y-108250000D01*
X131234493Y-108209844D01*
X131275000Y-108071889D01*
X131275000Y-107928111D01*
X131234493Y-107790156D01*
X131208686Y-107750000D01*
X132125000Y-107750000D01*
X132125000Y-107102172D01*
X132124999Y-107102155D01*
X132118598Y-107042627D01*
X132118596Y-107042620D01*
X132068354Y-106907913D01*
X132068350Y-106907906D01*
X131982190Y-106792812D01*
X131982187Y-106792809D01*
X131867093Y-106706649D01*
X131867086Y-106706645D01*
X131732379Y-106656403D01*
X131732372Y-106656401D01*
X131672844Y-106650000D01*
X131025000Y-106650000D01*
X131025000Y-107564498D01*
X130917315Y-107515320D01*
X130810763Y-107500000D01*
X130739237Y-107500000D01*
X130632685Y-107515320D01*
X130525000Y-107564498D01*
X130525000Y-106650000D01*
X129877155Y-106650000D01*
X129817627Y-106656401D01*
X129817620Y-106656403D01*
X129682913Y-106706645D01*
X129682906Y-106706649D01*
X129567812Y-106792809D01*
X129567809Y-106792812D01*
X129481649Y-106907906D01*
X129481645Y-106907913D01*
X129431403Y-107042620D01*
X129431401Y-107042627D01*
X129425000Y-107102155D01*
X129425000Y-107502813D01*
X129405315Y-107569852D01*
X129352511Y-107615607D01*
X129283353Y-107625551D01*
X129219797Y-107596526D01*
X129191642Y-107561267D01*
X129112685Y-107413550D01*
X129060702Y-107350209D01*
X128981410Y-107253589D01*
X128821452Y-107122317D01*
X128821453Y-107122317D01*
X128821450Y-107122315D01*
X128638954Y-107024768D01*
X128440934Y-106964700D01*
X128440932Y-106964699D01*
X128440934Y-106964699D01*
X128235000Y-106944417D01*
X128029067Y-106964699D01*
X127831043Y-107024769D01*
X127797634Y-107042627D01*
X127648550Y-107122315D01*
X127648548Y-107122316D01*
X127648547Y-107122317D01*
X127488589Y-107253589D01*
X127357317Y-107413547D01*
X127259769Y-107596043D01*
X127199699Y-107794067D01*
X127179417Y-108000000D01*
X122785470Y-108000000D01*
X122710883Y-107909116D01*
X122558539Y-107784090D01*
X122558532Y-107784086D01*
X122384733Y-107691188D01*
X122384727Y-107691186D01*
X122196132Y-107633976D01*
X122196129Y-107633975D01*
X122000000Y-107614659D01*
X121803870Y-107633975D01*
X121615266Y-107691188D01*
X121441467Y-107784086D01*
X121441460Y-107784090D01*
X121289116Y-107909116D01*
X121164090Y-108061460D01*
X121164086Y-108061467D01*
X121071188Y-108235266D01*
X121013975Y-108423870D01*
X120994659Y-108620000D01*
X91023105Y-108620000D01*
X91019984Y-108600296D01*
X91019325Y-108594132D01*
X91007496Y-108383503D01*
X91000584Y-108251621D01*
X91000500Y-108248376D01*
X91000500Y-106854752D01*
X108674500Y-106854752D01*
X108686131Y-106913229D01*
X108686132Y-106913230D01*
X108730447Y-106979552D01*
X108796769Y-107023867D01*
X108796770Y-107023868D01*
X108855247Y-107035499D01*
X108855250Y-107035500D01*
X108855252Y-107035500D01*
X110594750Y-107035500D01*
X110594751Y-107035499D01*
X110609568Y-107032552D01*
X110653229Y-107023868D01*
X110653229Y-107023867D01*
X110653231Y-107023867D01*
X110719552Y-106979552D01*
X110763867Y-106913231D01*
X110763867Y-106913229D01*
X110763868Y-106913229D01*
X110775499Y-106854752D01*
X110775500Y-106854750D01*
X110775500Y-105985000D01*
X111209417Y-105985000D01*
X111229699Y-106190932D01*
X111229700Y-106190934D01*
X111289768Y-106388954D01*
X111387315Y-106571450D01*
X111387317Y-106571452D01*
X111518589Y-106731410D01*
X111593405Y-106792809D01*
X111678550Y-106862685D01*
X111861046Y-106960232D01*
X112059066Y-107020300D01*
X112059065Y-107020300D01*
X112077529Y-107022118D01*
X112265000Y-107040583D01*
X112470934Y-107020300D01*
X112668954Y-106960232D01*
X112851450Y-106862685D01*
X113011410Y-106731410D01*
X113142685Y-106571450D01*
X113240232Y-106388954D01*
X113300300Y-106190934D01*
X113320583Y-105985000D01*
X113300300Y-105779066D01*
X113240232Y-105581046D01*
X113142685Y-105398550D01*
X113090702Y-105335209D01*
X113011410Y-105238589D01*
X112861121Y-105115252D01*
X112851450Y-105107315D01*
X112668954Y-105009768D01*
X112470934Y-104949700D01*
X112470932Y-104949699D01*
X112470934Y-104949699D01*
X112265000Y-104929417D01*
X112059067Y-104949699D01*
X111861043Y-105009769D01*
X111773114Y-105056769D01*
X111678550Y-105107315D01*
X111678548Y-105107316D01*
X111678547Y-105107317D01*
X111518589Y-105238589D01*
X111387317Y-105398547D01*
X111289769Y-105581043D01*
X111229699Y-105779067D01*
X111209417Y-105985000D01*
X110775500Y-105985000D01*
X110775500Y-105115249D01*
X110775499Y-105115247D01*
X110763868Y-105056770D01*
X110763867Y-105056769D01*
X110719552Y-104990447D01*
X110653230Y-104946132D01*
X110653229Y-104946131D01*
X110594752Y-104934500D01*
X110594748Y-104934500D01*
X108855252Y-104934500D01*
X108855247Y-104934500D01*
X108796770Y-104946131D01*
X108796769Y-104946132D01*
X108730447Y-104990447D01*
X108686132Y-105056769D01*
X108686131Y-105056770D01*
X108674500Y-105115247D01*
X108674500Y-106854752D01*
X91000500Y-106854752D01*
X91000500Y-103319752D01*
X108189500Y-103319752D01*
X108201131Y-103378229D01*
X108201132Y-103378230D01*
X108245447Y-103444552D01*
X108311769Y-103488867D01*
X108311770Y-103488868D01*
X108370247Y-103500499D01*
X108370250Y-103500500D01*
X108370252Y-103500500D01*
X110009750Y-103500500D01*
X110009751Y-103500499D01*
X110024568Y-103497552D01*
X110068229Y-103488868D01*
X110068229Y-103488867D01*
X110068231Y-103488867D01*
X110134552Y-103444552D01*
X110178867Y-103378231D01*
X110178867Y-103378229D01*
X110178868Y-103378229D01*
X110190499Y-103319752D01*
X110190500Y-103319750D01*
X110190500Y-102500000D01*
X115804659Y-102500000D01*
X115823975Y-102696129D01*
X115881188Y-102884733D01*
X115974086Y-103058532D01*
X115974090Y-103058539D01*
X116099116Y-103210883D01*
X116251460Y-103335909D01*
X116251467Y-103335913D01*
X116425266Y-103428811D01*
X116425269Y-103428811D01*
X116425273Y-103428814D01*
X116613868Y-103486024D01*
X116810000Y-103505341D01*
X117006132Y-103486024D01*
X117194727Y-103428814D01*
X117368538Y-103335910D01*
X117520883Y-103210883D01*
X117645910Y-103058538D01*
X117738814Y-102884727D01*
X117796024Y-102696132D01*
X117815341Y-102500000D01*
X117796024Y-102303868D01*
X117738814Y-102115273D01*
X117738811Y-102115269D01*
X117738811Y-102115266D01*
X117645913Y-101941467D01*
X117645909Y-101941460D01*
X117546025Y-101819752D01*
X120999500Y-101819752D01*
X121011131Y-101878229D01*
X121011132Y-101878230D01*
X121055447Y-101944552D01*
X121121769Y-101988867D01*
X121121770Y-101988868D01*
X121180247Y-102000499D01*
X121180250Y-102000500D01*
X121180252Y-102000500D01*
X122819750Y-102000500D01*
X122819751Y-102000499D01*
X122834568Y-101997552D01*
X122878229Y-101988868D01*
X122878229Y-101988867D01*
X122878231Y-101988867D01*
X122944552Y-101944552D01*
X122988867Y-101878231D01*
X122988867Y-101878229D01*
X122988868Y-101878229D01*
X123000499Y-101819752D01*
X123000500Y-101819750D01*
X123000500Y-100214361D01*
X123020185Y-100147322D01*
X123072989Y-100101567D01*
X123108314Y-100091422D01*
X123156762Y-100085044D01*
X123302841Y-100024536D01*
X123428282Y-99928282D01*
X123524536Y-99802841D01*
X123585044Y-99656762D01*
X123605682Y-99500000D01*
X123601164Y-99465685D01*
X123611929Y-99396652D01*
X123658308Y-99344395D01*
X123724103Y-99325500D01*
X128431701Y-99325500D01*
X128498740Y-99345185D01*
X128530077Y-99374014D01*
X128569162Y-99424952D01*
X128571718Y-99428282D01*
X128697159Y-99524536D01*
X128843238Y-99585044D01*
X128921619Y-99595363D01*
X128999999Y-99605682D01*
X129000000Y-99605682D01*
X129000001Y-99605682D01*
X129052254Y-99598802D01*
X129156762Y-99585044D01*
X129302841Y-99524536D01*
X129428282Y-99428282D01*
X129524536Y-99302841D01*
X129585044Y-99156762D01*
X129605682Y-99000000D01*
X129594291Y-98913480D01*
X129585044Y-98843239D01*
X129585044Y-98843238D01*
X129524536Y-98697159D01*
X129428282Y-98571718D01*
X129302841Y-98475464D01*
X129218534Y-98440543D01*
X129156762Y-98414956D01*
X129156760Y-98414955D01*
X129000001Y-98394318D01*
X128999999Y-98394318D01*
X128843239Y-98414955D01*
X128843237Y-98414956D01*
X128697160Y-98475463D01*
X128571716Y-98571719D01*
X128530077Y-98625986D01*
X128473649Y-98667189D01*
X128431701Y-98674500D01*
X123516922Y-98674500D01*
X123511518Y-98674264D01*
X123506107Y-98673790D01*
X123471192Y-98670735D01*
X123471191Y-98670735D01*
X123432091Y-98681212D01*
X123426811Y-98682383D01*
X123386959Y-98689410D01*
X123381961Y-98691229D01*
X123365117Y-98698206D01*
X123360313Y-98700446D01*
X123327166Y-98723656D01*
X123322606Y-98726562D01*
X123287548Y-98746804D01*
X123287540Y-98746810D01*
X123261523Y-98777815D01*
X123257869Y-98781804D01*
X123171684Y-98867988D01*
X123110361Y-98901473D01*
X123067818Y-98903246D01*
X123000001Y-98894318D01*
X122999999Y-98894318D01*
X122843239Y-98914955D01*
X122843237Y-98914956D01*
X122697160Y-98975463D01*
X122571718Y-99071718D01*
X122475463Y-99197160D01*
X122414956Y-99343237D01*
X122414955Y-99343239D01*
X122394318Y-99499998D01*
X122394318Y-99500001D01*
X122414955Y-99656760D01*
X122414956Y-99656762D01*
X122448854Y-99738600D01*
X122475465Y-99802843D01*
X122479528Y-99809881D01*
X122477551Y-99811022D01*
X122498489Y-99865193D01*
X122484445Y-99933637D01*
X122435627Y-99983623D01*
X122374918Y-99999500D01*
X121180247Y-99999500D01*
X121121770Y-100011131D01*
X121121769Y-100011132D01*
X121055447Y-100055447D01*
X121011132Y-100121769D01*
X121011131Y-100121770D01*
X120999500Y-100180247D01*
X120999500Y-101819752D01*
X117546025Y-101819752D01*
X117520883Y-101789116D01*
X117368539Y-101664090D01*
X117368532Y-101664086D01*
X117194733Y-101571188D01*
X117194727Y-101571186D01*
X117006132Y-101513976D01*
X117006129Y-101513975D01*
X116810000Y-101494659D01*
X116613870Y-101513975D01*
X116425266Y-101571188D01*
X116251467Y-101664086D01*
X116251460Y-101664090D01*
X116099116Y-101789116D01*
X115974090Y-101941460D01*
X115974086Y-101941467D01*
X115881188Y-102115266D01*
X115823975Y-102303870D01*
X115804659Y-102500000D01*
X110190500Y-102500000D01*
X110190500Y-101680249D01*
X110190499Y-101680247D01*
X110178868Y-101621770D01*
X110178867Y-101621769D01*
X110134552Y-101555447D01*
X110068230Y-101511132D01*
X110068229Y-101511131D01*
X110009752Y-101499500D01*
X110009748Y-101499500D01*
X108370252Y-101499500D01*
X108370247Y-101499500D01*
X108311770Y-101511131D01*
X108311769Y-101511132D01*
X108245447Y-101555447D01*
X108201132Y-101621769D01*
X108201131Y-101621770D01*
X108189500Y-101680247D01*
X108189500Y-103319752D01*
X91000500Y-103319752D01*
X91000500Y-98250001D01*
X133144318Y-98250001D01*
X133164955Y-98406760D01*
X133164956Y-98406762D01*
X133203576Y-98500000D01*
X133225464Y-98552841D01*
X133321718Y-98678282D01*
X133447159Y-98774536D01*
X133516718Y-98803348D01*
X133571117Y-98847186D01*
X133593183Y-98913480D01*
X133593262Y-98917907D01*
X133593262Y-99309107D01*
X133573577Y-99376146D01*
X133544750Y-99407481D01*
X133517644Y-99428281D01*
X133467080Y-99467080D01*
X133370825Y-99592522D01*
X133310318Y-99738599D01*
X133310317Y-99738601D01*
X133289680Y-99895360D01*
X133289680Y-99895363D01*
X133310317Y-100052122D01*
X133310318Y-100052124D01*
X133353660Y-100156762D01*
X133370826Y-100198203D01*
X133467080Y-100323644D01*
X133592521Y-100419898D01*
X133738600Y-100480406D01*
X133816981Y-100490725D01*
X133895361Y-100501044D01*
X133895362Y-100501044D01*
X133895363Y-100501044D01*
X133947616Y-100494164D01*
X134052124Y-100480406D01*
X134198203Y-100419898D01*
X134323644Y-100323644D01*
X134419898Y-100198203D01*
X134480406Y-100052124D01*
X134487268Y-100000001D01*
X137894318Y-100000001D01*
X137914955Y-100156760D01*
X137914956Y-100156762D01*
X137975464Y-100302841D01*
X138071718Y-100428282D01*
X138197159Y-100524536D01*
X138343238Y-100585044D01*
X138421619Y-100595363D01*
X138499999Y-100605682D01*
X138500000Y-100605682D01*
X138500001Y-100605682D01*
X138552254Y-100598802D01*
X138656762Y-100585044D01*
X138802841Y-100524536D01*
X138928282Y-100428282D01*
X139024536Y-100302841D01*
X139085044Y-100156762D01*
X139104216Y-100011133D01*
X139105682Y-100000001D01*
X139105682Y-99999999D01*
X139096753Y-99932180D01*
X139107518Y-99863145D01*
X139132008Y-99828316D01*
X139218204Y-99742120D01*
X139222166Y-99738489D01*
X139253194Y-99712455D01*
X139273438Y-99677390D01*
X139276335Y-99672841D01*
X139299554Y-99639684D01*
X139299554Y-99639681D01*
X139301819Y-99634824D01*
X139308747Y-99618099D01*
X139310584Y-99613050D01*
X139310588Y-99613045D01*
X139317619Y-99573162D01*
X139318777Y-99567940D01*
X139329264Y-99528807D01*
X139325735Y-99488478D01*
X139325500Y-99483075D01*
X139325500Y-99250000D01*
X141904364Y-99250000D01*
X141961567Y-99463486D01*
X141961570Y-99463492D01*
X142061399Y-99677578D01*
X142196894Y-99871082D01*
X142363917Y-100038105D01*
X142557421Y-100173600D01*
X142771507Y-100273429D01*
X142771516Y-100273433D01*
X142985000Y-100330634D01*
X142985000Y-99435501D01*
X143092685Y-99484680D01*
X143199237Y-99500000D01*
X143270763Y-99500000D01*
X143377315Y-99484680D01*
X143485000Y-99435501D01*
X143485000Y-100330633D01*
X143698483Y-100273433D01*
X143698492Y-100273429D01*
X143912578Y-100173600D01*
X144106082Y-100038105D01*
X144273105Y-99871082D01*
X144408599Y-99677578D01*
X144488118Y-99507051D01*
X144534290Y-99454612D01*
X144601484Y-99435460D01*
X144668365Y-99455676D01*
X144713699Y-99508841D01*
X144724500Y-99559456D01*
X144724500Y-99869752D01*
X144736131Y-99928229D01*
X144736132Y-99928230D01*
X144780447Y-99994552D01*
X144846769Y-100038867D01*
X144846770Y-100038868D01*
X144905247Y-100050499D01*
X144905250Y-100050500D01*
X144905252Y-100050500D01*
X146644750Y-100050500D01*
X146644751Y-100050499D01*
X146659568Y-100047552D01*
X146703229Y-100038868D01*
X146703229Y-100038867D01*
X146703231Y-100038867D01*
X146769552Y-99994552D01*
X146813867Y-99928231D01*
X146813867Y-99928229D01*
X146813868Y-99928229D01*
X146825141Y-99871554D01*
X146825500Y-99869748D01*
X146825500Y-98130252D01*
X146825500Y-98130249D01*
X146825499Y-98130247D01*
X146813868Y-98071770D01*
X146813867Y-98071769D01*
X146769552Y-98005447D01*
X146703230Y-97961132D01*
X146703229Y-97961131D01*
X146644752Y-97949500D01*
X146644748Y-97949500D01*
X144905252Y-97949500D01*
X144905247Y-97949500D01*
X144846770Y-97961131D01*
X144846769Y-97961132D01*
X144780447Y-98005447D01*
X144736132Y-98071769D01*
X144736131Y-98071770D01*
X144724500Y-98130247D01*
X144724500Y-98440543D01*
X144704815Y-98507582D01*
X144652011Y-98553337D01*
X144582853Y-98563281D01*
X144519297Y-98534256D01*
X144488118Y-98492948D01*
X144408600Y-98322422D01*
X144408599Y-98322420D01*
X144273113Y-98128926D01*
X144273108Y-98128920D01*
X144106082Y-97961894D01*
X143912578Y-97826399D01*
X143698492Y-97726570D01*
X143698486Y-97726567D01*
X143485000Y-97669364D01*
X143485000Y-98564498D01*
X143377315Y-98515320D01*
X143270763Y-98500000D01*
X143199237Y-98500000D01*
X143092685Y-98515320D01*
X142985000Y-98564498D01*
X142985000Y-97669364D01*
X142984999Y-97669364D01*
X142771513Y-97726567D01*
X142771507Y-97726570D01*
X142557422Y-97826399D01*
X142557420Y-97826400D01*
X142363926Y-97961886D01*
X142363920Y-97961891D01*
X142196891Y-98128920D01*
X142196886Y-98128926D01*
X142061400Y-98322420D01*
X142061399Y-98322422D01*
X141961570Y-98536507D01*
X141961567Y-98536513D01*
X141904364Y-98749999D01*
X141904364Y-98750000D01*
X142801314Y-98750000D01*
X142775507Y-98790156D01*
X142735000Y-98928111D01*
X142735000Y-99071889D01*
X142775507Y-99209844D01*
X142801314Y-99250000D01*
X141904364Y-99250000D01*
X139325500Y-99250000D01*
X139325500Y-95500001D01*
X140894318Y-95500001D01*
X140914955Y-95656760D01*
X140914956Y-95656762D01*
X140975464Y-95802841D01*
X141071718Y-95928282D01*
X141197159Y-96024536D01*
X141343238Y-96085044D01*
X141421619Y-96095363D01*
X141499999Y-96105682D01*
X141500000Y-96105682D01*
X141500001Y-96105682D01*
X141552254Y-96098802D01*
X141656762Y-96085044D01*
X141802841Y-96024536D01*
X141928282Y-95928282D01*
X142024536Y-95802841D01*
X142085044Y-95656762D01*
X142105682Y-95500000D01*
X142085044Y-95343238D01*
X142024536Y-95197159D01*
X141928282Y-95071718D01*
X141928280Y-95071716D01*
X141928279Y-95071715D01*
X141874012Y-95030074D01*
X141832810Y-94973646D01*
X141825500Y-94931699D01*
X141825500Y-94318298D01*
X141845185Y-94251259D01*
X141874010Y-94219925D01*
X141928282Y-94178282D01*
X142024536Y-94052841D01*
X142046423Y-94000000D01*
X151179417Y-94000000D01*
X151199699Y-94205932D01*
X151199700Y-94205934D01*
X151259768Y-94403954D01*
X151357315Y-94586450D01*
X151357317Y-94586452D01*
X151488589Y-94746410D01*
X151585209Y-94825702D01*
X151648550Y-94877685D01*
X151831046Y-94975232D01*
X152029066Y-95035300D01*
X152029065Y-95035300D01*
X152047529Y-95037118D01*
X152235000Y-95055583D01*
X152440934Y-95035300D01*
X152638954Y-94975232D01*
X152821450Y-94877685D01*
X152831116Y-94869752D01*
X153724500Y-94869752D01*
X153736131Y-94928229D01*
X153736132Y-94928230D01*
X153780447Y-94994552D01*
X153846769Y-95038867D01*
X153846770Y-95038868D01*
X153905247Y-95050499D01*
X153905250Y-95050500D01*
X153905252Y-95050500D01*
X155644750Y-95050500D01*
X155644751Y-95050499D01*
X155659568Y-95047552D01*
X155703229Y-95038868D01*
X155703229Y-95038867D01*
X155703231Y-95038867D01*
X155769552Y-94994552D01*
X155813867Y-94928231D01*
X155813867Y-94928229D01*
X155813868Y-94928229D01*
X155825499Y-94869752D01*
X155825500Y-94869750D01*
X155825500Y-93130249D01*
X155825499Y-93130247D01*
X155813868Y-93071770D01*
X155813867Y-93071769D01*
X155769552Y-93005447D01*
X155703230Y-92961132D01*
X155703229Y-92961131D01*
X155644752Y-92949500D01*
X155644748Y-92949500D01*
X153905252Y-92949500D01*
X153905247Y-92949500D01*
X153846770Y-92961131D01*
X153846769Y-92961132D01*
X153780447Y-93005447D01*
X153736132Y-93071769D01*
X153736131Y-93071770D01*
X153724500Y-93130247D01*
X153724500Y-94869752D01*
X152831116Y-94869752D01*
X152981410Y-94746410D01*
X153112685Y-94586450D01*
X153210232Y-94403954D01*
X153270300Y-94205934D01*
X153290583Y-94000000D01*
X153270300Y-93794066D01*
X153210232Y-93596046D01*
X153112685Y-93413550D01*
X153037321Y-93321718D01*
X152981410Y-93253589D01*
X152843710Y-93140583D01*
X152821450Y-93122315D01*
X152638954Y-93024768D01*
X152440934Y-92964700D01*
X152440932Y-92964699D01*
X152440934Y-92964699D01*
X152235000Y-92944417D01*
X152029067Y-92964699D01*
X151831043Y-93024769D01*
X151764698Y-93060232D01*
X151648550Y-93122315D01*
X151648548Y-93122316D01*
X151648547Y-93122317D01*
X151488589Y-93253589D01*
X151357317Y-93413547D01*
X151357315Y-93413550D01*
X151339350Y-93447160D01*
X151259769Y-93596043D01*
X151199699Y-93794067D01*
X151179417Y-94000000D01*
X142046423Y-94000000D01*
X142085044Y-93906762D01*
X142098802Y-93802254D01*
X142105682Y-93750001D01*
X142105682Y-93749998D01*
X142085044Y-93593239D01*
X142085044Y-93593238D01*
X142024536Y-93447159D01*
X141928282Y-93321718D01*
X141802841Y-93225464D01*
X141656762Y-93164956D01*
X141656760Y-93164955D01*
X141500001Y-93144318D01*
X141499999Y-93144318D01*
X141343239Y-93164955D01*
X141343237Y-93164956D01*
X141197160Y-93225463D01*
X141071718Y-93321718D01*
X140975463Y-93447160D01*
X140914956Y-93593237D01*
X140914955Y-93593239D01*
X140894318Y-93749998D01*
X140894318Y-93750001D01*
X140914955Y-93906760D01*
X140914956Y-93906762D01*
X140953576Y-94000000D01*
X140975464Y-94052841D01*
X141071718Y-94178282D01*
X141125987Y-94219924D01*
X141167189Y-94276349D01*
X141174500Y-94318298D01*
X141174500Y-94931699D01*
X141154815Y-94998738D01*
X141125988Y-95030074D01*
X141071720Y-95071715D01*
X140975463Y-95197160D01*
X140914956Y-95343237D01*
X140914955Y-95343239D01*
X140894318Y-95499998D01*
X140894318Y-95500001D01*
X139325500Y-95500001D01*
X139325500Y-92818298D01*
X139345185Y-92751259D01*
X139374010Y-92719925D01*
X139428282Y-92678282D01*
X139524536Y-92552841D01*
X139585044Y-92406762D01*
X139605682Y-92250000D01*
X139599099Y-92200000D01*
X139585044Y-92093239D01*
X139585044Y-92093238D01*
X139524536Y-91947159D01*
X139428282Y-91821718D01*
X139302841Y-91725464D01*
X139195599Y-91681043D01*
X139156762Y-91664956D01*
X139156760Y-91664955D01*
X139000001Y-91644318D01*
X138999999Y-91644318D01*
X138843239Y-91664955D01*
X138843237Y-91664956D01*
X138697160Y-91725463D01*
X138571718Y-91821718D01*
X138475463Y-91947160D01*
X138414956Y-92093237D01*
X138414955Y-92093239D01*
X138394318Y-92249998D01*
X138394318Y-92250001D01*
X138414955Y-92406760D01*
X138414956Y-92406762D01*
X138475464Y-92552841D01*
X138571718Y-92678282D01*
X138625987Y-92719924D01*
X138667189Y-92776349D01*
X138674500Y-92818298D01*
X138674500Y-99275896D01*
X138654815Y-99342935D01*
X138602011Y-99388690D01*
X138534316Y-99398835D01*
X138500003Y-99394318D01*
X138499999Y-99394318D01*
X138343239Y-99414955D01*
X138343237Y-99414956D01*
X138197160Y-99475463D01*
X138071718Y-99571718D01*
X137975463Y-99697160D01*
X137914956Y-99843237D01*
X137914955Y-99843239D01*
X137894318Y-99999998D01*
X137894318Y-100000001D01*
X134487268Y-100000001D01*
X134501044Y-99895362D01*
X134497847Y-99871082D01*
X134480406Y-99738601D01*
X134480406Y-99738600D01*
X134419898Y-99592521D01*
X134323644Y-99467080D01*
X134245974Y-99407482D01*
X134204773Y-99351055D01*
X134197462Y-99309107D01*
X134197462Y-98695377D01*
X134217147Y-98628338D01*
X134223076Y-98619903D01*
X134274536Y-98552841D01*
X134335044Y-98406762D01*
X134355682Y-98250000D01*
X134335044Y-98093238D01*
X134274536Y-97947159D01*
X134178282Y-97821718D01*
X134052841Y-97725464D01*
X133906762Y-97664956D01*
X133906760Y-97664955D01*
X133750001Y-97644318D01*
X133749999Y-97644318D01*
X133593239Y-97664955D01*
X133593237Y-97664956D01*
X133447160Y-97725463D01*
X133321718Y-97821718D01*
X133225463Y-97947160D01*
X133164956Y-98093237D01*
X133164955Y-98093239D01*
X133144318Y-98249998D01*
X133144318Y-98250001D01*
X91000500Y-98250001D01*
X91000500Y-92085000D01*
X129444417Y-92085000D01*
X129464699Y-92290932D01*
X129464700Y-92290934D01*
X129524768Y-92488954D01*
X129622315Y-92671450D01*
X129622317Y-92671452D01*
X129753589Y-92831410D01*
X129850209Y-92910702D01*
X129913550Y-92962685D01*
X130096046Y-93060232D01*
X130294066Y-93120300D01*
X130294065Y-93120300D01*
X130312529Y-93122118D01*
X130500000Y-93140583D01*
X130705934Y-93120300D01*
X130903954Y-93060232D01*
X131086450Y-92962685D01*
X131246410Y-92831410D01*
X131377685Y-92671450D01*
X131475232Y-92488954D01*
X131535300Y-92290934D01*
X131555583Y-92085000D01*
X131535300Y-91879066D01*
X131475232Y-91681046D01*
X131377685Y-91498550D01*
X131284633Y-91385165D01*
X131246410Y-91338589D01*
X131086452Y-91207317D01*
X131086453Y-91207317D01*
X131086450Y-91207315D01*
X130903954Y-91109768D01*
X130705934Y-91049700D01*
X130705932Y-91049699D01*
X130705934Y-91049699D01*
X130500000Y-91029417D01*
X130294067Y-91049699D01*
X130096043Y-91109769D01*
X129985898Y-91168643D01*
X129913550Y-91207315D01*
X129913548Y-91207316D01*
X129913547Y-91207317D01*
X129753589Y-91338589D01*
X129622317Y-91498547D01*
X129524769Y-91681043D01*
X129464699Y-91879067D01*
X129444417Y-92085000D01*
X91000500Y-92085000D01*
X91000500Y-91000000D01*
X151344540Y-91000000D01*
X151364326Y-91188256D01*
X151364327Y-91188259D01*
X151422818Y-91368277D01*
X151422821Y-91368284D01*
X151517467Y-91532216D01*
X151628300Y-91655308D01*
X151644129Y-91672888D01*
X151797265Y-91784148D01*
X151797270Y-91784151D01*
X151970192Y-91861142D01*
X151970197Y-91861144D01*
X152155354Y-91900500D01*
X152155355Y-91900500D01*
X152344644Y-91900500D01*
X152344646Y-91900500D01*
X152529803Y-91861144D01*
X152702730Y-91784151D01*
X152855871Y-91672888D01*
X152982533Y-91532216D01*
X153077179Y-91368284D01*
X153135674Y-91188256D01*
X153155460Y-91000000D01*
X153584859Y-91000000D01*
X153605378Y-91221439D01*
X153666240Y-91435350D01*
X153765369Y-91634428D01*
X153781137Y-91655308D01*
X153781138Y-91655308D01*
X154392046Y-91044400D01*
X154404835Y-91125148D01*
X154462359Y-91238045D01*
X154551955Y-91327641D01*
X154664852Y-91385165D01*
X154745599Y-91397953D01*
X154136672Y-92006879D01*
X154136672Y-92006880D01*
X154252821Y-92078797D01*
X154252822Y-92078798D01*
X154460195Y-92159134D01*
X154678807Y-92200000D01*
X154901193Y-92200000D01*
X155119809Y-92159133D01*
X155327168Y-92078801D01*
X155327181Y-92078795D01*
X155443326Y-92006879D01*
X154834401Y-91397953D01*
X154915148Y-91385165D01*
X155028045Y-91327641D01*
X155117641Y-91238045D01*
X155175165Y-91125148D01*
X155187953Y-91044400D01*
X155798861Y-91655308D01*
X155814631Y-91634425D01*
X155814633Y-91634422D01*
X155913759Y-91435350D01*
X155974621Y-91221439D01*
X155995141Y-91000000D01*
X155995141Y-90999999D01*
X155974621Y-90778560D01*
X155913759Y-90564649D01*
X155814635Y-90365580D01*
X155814630Y-90365572D01*
X155798860Y-90344690D01*
X155187953Y-90955598D01*
X155175165Y-90874852D01*
X155117641Y-90761955D01*
X155028045Y-90672359D01*
X154915148Y-90614835D01*
X154834401Y-90602046D01*
X155443327Y-89993119D01*
X155327178Y-89921202D01*
X155327177Y-89921201D01*
X155119804Y-89840865D01*
X154901193Y-89800000D01*
X154678807Y-89800000D01*
X154460195Y-89840865D01*
X154252824Y-89921200D01*
X154252823Y-89921201D01*
X154136671Y-89993119D01*
X154745599Y-90602046D01*
X154664852Y-90614835D01*
X154551955Y-90672359D01*
X154462359Y-90761955D01*
X154404835Y-90874852D01*
X154392046Y-90955599D01*
X153781138Y-90344691D01*
X153781137Y-90344691D01*
X153765368Y-90365574D01*
X153666240Y-90564649D01*
X153605378Y-90778560D01*
X153584859Y-90999999D01*
X153584859Y-91000000D01*
X153155460Y-91000000D01*
X153135674Y-90811744D01*
X153077179Y-90631716D01*
X152982533Y-90467784D01*
X152855871Y-90327112D01*
X152855870Y-90327111D01*
X152702734Y-90215851D01*
X152702729Y-90215848D01*
X152529807Y-90138857D01*
X152529802Y-90138855D01*
X152384001Y-90107865D01*
X152344646Y-90099500D01*
X152155354Y-90099500D01*
X152122897Y-90106398D01*
X151970197Y-90138855D01*
X151970192Y-90138857D01*
X151797270Y-90215848D01*
X151797265Y-90215851D01*
X151644129Y-90327111D01*
X151517466Y-90467785D01*
X151422821Y-90631715D01*
X151422818Y-90631722D01*
X151375108Y-90778560D01*
X151364326Y-90811744D01*
X151344540Y-91000000D01*
X91000500Y-91000000D01*
X91000500Y-89545000D01*
X129444417Y-89545000D01*
X129464699Y-89750932D01*
X129464700Y-89750934D01*
X129524768Y-89948954D01*
X129622315Y-90131450D01*
X129622317Y-90131452D01*
X129753589Y-90291410D01*
X129797092Y-90327111D01*
X129913550Y-90422685D01*
X130096046Y-90520232D01*
X130294066Y-90580300D01*
X130294065Y-90580300D01*
X130312529Y-90582118D01*
X130500000Y-90600583D01*
X130705934Y-90580300D01*
X130903954Y-90520232D01*
X131086450Y-90422685D01*
X131246410Y-90291410D01*
X131377685Y-90131450D01*
X131475232Y-89948954D01*
X131535300Y-89750934D01*
X131555583Y-89545000D01*
X131535300Y-89339066D01*
X131475232Y-89141046D01*
X131377685Y-88958550D01*
X131325702Y-88895209D01*
X131246410Y-88798589D01*
X131086452Y-88667317D01*
X131086453Y-88667317D01*
X131086450Y-88667315D01*
X130903954Y-88569768D01*
X130705934Y-88509700D01*
X130705932Y-88509699D01*
X130705934Y-88509699D01*
X130500000Y-88489417D01*
X130294067Y-88509699D01*
X130096043Y-88569769D01*
X129985898Y-88628643D01*
X129913550Y-88667315D01*
X129913548Y-88667316D01*
X129913547Y-88667317D01*
X129753589Y-88798589D01*
X129622317Y-88958547D01*
X129524769Y-89141043D01*
X129464699Y-89339067D01*
X129444417Y-89545000D01*
X91000500Y-89545000D01*
X91000500Y-87005000D01*
X129444417Y-87005000D01*
X129464699Y-87210932D01*
X129464700Y-87210934D01*
X129524768Y-87408954D01*
X129622315Y-87591450D01*
X129622317Y-87591452D01*
X129753589Y-87751410D01*
X129850209Y-87830702D01*
X129913550Y-87882685D01*
X130096046Y-87980232D01*
X130294066Y-88040300D01*
X130294065Y-88040300D01*
X130312529Y-88042118D01*
X130500000Y-88060583D01*
X130705934Y-88040300D01*
X130903954Y-87980232D01*
X131086450Y-87882685D01*
X131246410Y-87751410D01*
X131377685Y-87591450D01*
X131475232Y-87408954D01*
X131535300Y-87210934D01*
X131555583Y-87005000D01*
X131535300Y-86799066D01*
X131475232Y-86601046D01*
X131377685Y-86418550D01*
X131325702Y-86355209D01*
X131246410Y-86258589D01*
X131086452Y-86127317D01*
X131086453Y-86127317D01*
X131086450Y-86127315D01*
X130903954Y-86029768D01*
X130705934Y-85969700D01*
X130705932Y-85969699D01*
X130705934Y-85969699D01*
X130500000Y-85949417D01*
X130294067Y-85969699D01*
X130096043Y-86029769D01*
X129985898Y-86088643D01*
X129913550Y-86127315D01*
X129913548Y-86127316D01*
X129913547Y-86127317D01*
X129753589Y-86258589D01*
X129622317Y-86418547D01*
X129524769Y-86601043D01*
X129464699Y-86799067D01*
X129444417Y-87005000D01*
X91000500Y-87005000D01*
X91000500Y-84465000D01*
X129444417Y-84465000D01*
X129464699Y-84670932D01*
X129464700Y-84670934D01*
X129524768Y-84868954D01*
X129622315Y-85051450D01*
X129622317Y-85051452D01*
X129753589Y-85211410D01*
X129850209Y-85290702D01*
X129913550Y-85342685D01*
X130096046Y-85440232D01*
X130294066Y-85500300D01*
X130294065Y-85500300D01*
X130312529Y-85502118D01*
X130500000Y-85520583D01*
X130705934Y-85500300D01*
X130903954Y-85440232D01*
X131086450Y-85342685D01*
X131246410Y-85211410D01*
X131377685Y-85051450D01*
X131475232Y-84868954D01*
X131535300Y-84670934D01*
X131555583Y-84465000D01*
X131535300Y-84259066D01*
X131475232Y-84061046D01*
X131377685Y-83878550D01*
X131325702Y-83815209D01*
X131246410Y-83718589D01*
X131086452Y-83587317D01*
X131086453Y-83587317D01*
X131086450Y-83587315D01*
X130903954Y-83489768D01*
X130705934Y-83429700D01*
X130705932Y-83429699D01*
X130705934Y-83429699D01*
X130500000Y-83409417D01*
X130294067Y-83429699D01*
X130096043Y-83489769D01*
X129985898Y-83548643D01*
X129913550Y-83587315D01*
X129913548Y-83587316D01*
X129913547Y-83587317D01*
X129753589Y-83718589D01*
X129622317Y-83878547D01*
X129524769Y-84061043D01*
X129464699Y-84259067D01*
X129444417Y-84465000D01*
X91000500Y-84465000D01*
X91000500Y-82375000D01*
X93404364Y-82375000D01*
X93461567Y-82588486D01*
X93461570Y-82588492D01*
X93561399Y-82802578D01*
X93696894Y-82996082D01*
X93863917Y-83163105D01*
X94057421Y-83298600D01*
X94271507Y-83398429D01*
X94271516Y-83398433D01*
X94485000Y-83455634D01*
X94485000Y-82560501D01*
X94592685Y-82609680D01*
X94699237Y-82625000D01*
X94770763Y-82625000D01*
X94877315Y-82609680D01*
X94985000Y-82560501D01*
X94985000Y-83455633D01*
X95198483Y-83398433D01*
X95198492Y-83398429D01*
X95412578Y-83298600D01*
X95606082Y-83163105D01*
X95773105Y-82996082D01*
X95908599Y-82802578D01*
X95988118Y-82632051D01*
X96034290Y-82579612D01*
X96101484Y-82560460D01*
X96168365Y-82580676D01*
X96213699Y-82633841D01*
X96224500Y-82684456D01*
X96224500Y-82994752D01*
X96236131Y-83053229D01*
X96236132Y-83053230D01*
X96280447Y-83119552D01*
X96346769Y-83163867D01*
X96346770Y-83163868D01*
X96405247Y-83175499D01*
X96405250Y-83175500D01*
X96405252Y-83175500D01*
X98144750Y-83175500D01*
X98144751Y-83175499D01*
X98159568Y-83172552D01*
X98203229Y-83163868D01*
X98203229Y-83163867D01*
X98203231Y-83163867D01*
X98269552Y-83119552D01*
X98313867Y-83053231D01*
X98313867Y-83053229D01*
X98313868Y-83053229D01*
X98322552Y-83009568D01*
X98325500Y-82994748D01*
X98325500Y-82794752D01*
X129449500Y-82794752D01*
X129461131Y-82853229D01*
X129461132Y-82853230D01*
X129505447Y-82919552D01*
X129571769Y-82963867D01*
X129571770Y-82963868D01*
X129630247Y-82975499D01*
X129630250Y-82975500D01*
X129630252Y-82975500D01*
X131369750Y-82975500D01*
X131369751Y-82975499D01*
X131384568Y-82972552D01*
X131428229Y-82963868D01*
X131428229Y-82963867D01*
X131428231Y-82963867D01*
X131494552Y-82919552D01*
X131538867Y-82853231D01*
X131538867Y-82853229D01*
X131538868Y-82853229D01*
X131547552Y-82809568D01*
X131550500Y-82794748D01*
X131550500Y-81944752D01*
X158449500Y-81944752D01*
X158461131Y-82003229D01*
X158461132Y-82003230D01*
X158505447Y-82069552D01*
X158571769Y-82113867D01*
X158571770Y-82113868D01*
X158630247Y-82125499D01*
X158630250Y-82125500D01*
X158630252Y-82125500D01*
X160369750Y-82125500D01*
X160369751Y-82125499D01*
X160384568Y-82122552D01*
X160428229Y-82113868D01*
X160428229Y-82113867D01*
X160428231Y-82113867D01*
X160494552Y-82069552D01*
X160538867Y-82003231D01*
X160538867Y-82003229D01*
X160538868Y-82003229D01*
X160550499Y-81944752D01*
X160550500Y-81944750D01*
X160550500Y-80205249D01*
X160550499Y-80205247D01*
X160538868Y-80146770D01*
X160538867Y-80146769D01*
X160494552Y-80080447D01*
X160428230Y-80036132D01*
X160428229Y-80036131D01*
X160369752Y-80024500D01*
X160369748Y-80024500D01*
X158630252Y-80024500D01*
X158630247Y-80024500D01*
X158571770Y-80036131D01*
X158571769Y-80036132D01*
X158505447Y-80080447D01*
X158461132Y-80146769D01*
X158461131Y-80146770D01*
X158449500Y-80205247D01*
X158449500Y-81944752D01*
X131550500Y-81944752D01*
X131550500Y-81055252D01*
X131550500Y-81055249D01*
X131550499Y-81055247D01*
X131538868Y-80996770D01*
X131538867Y-80996769D01*
X131494552Y-80930447D01*
X131428230Y-80886132D01*
X131428229Y-80886131D01*
X131369752Y-80874500D01*
X131369748Y-80874500D01*
X129630252Y-80874500D01*
X129630247Y-80874500D01*
X129571770Y-80886131D01*
X129571769Y-80886132D01*
X129505447Y-80930447D01*
X129461132Y-80996769D01*
X129461131Y-80996770D01*
X129449500Y-81055247D01*
X129449500Y-82794752D01*
X98325500Y-82794752D01*
X98325500Y-81255252D01*
X98325500Y-81255249D01*
X98325499Y-81255247D01*
X98313868Y-81196770D01*
X98313867Y-81196769D01*
X98269552Y-81130447D01*
X98203230Y-81086132D01*
X98203229Y-81086131D01*
X98144752Y-81074500D01*
X98144748Y-81074500D01*
X96405252Y-81074500D01*
X96405247Y-81074500D01*
X96346770Y-81086131D01*
X96346769Y-81086132D01*
X96280447Y-81130447D01*
X96236132Y-81196769D01*
X96236131Y-81196770D01*
X96224500Y-81255247D01*
X96224500Y-81565543D01*
X96204815Y-81632582D01*
X96152011Y-81678337D01*
X96082853Y-81688281D01*
X96019297Y-81659256D01*
X95988118Y-81617948D01*
X95908600Y-81447422D01*
X95908599Y-81447420D01*
X95773113Y-81253926D01*
X95773108Y-81253920D01*
X95606082Y-81086894D01*
X95412578Y-80951399D01*
X95198492Y-80851570D01*
X95198486Y-80851567D01*
X94985000Y-80794364D01*
X94985000Y-81689498D01*
X94877315Y-81640320D01*
X94770763Y-81625000D01*
X94699237Y-81625000D01*
X94592685Y-81640320D01*
X94485000Y-81689498D01*
X94485000Y-80794364D01*
X94484999Y-80794364D01*
X94271513Y-80851567D01*
X94271507Y-80851570D01*
X94057422Y-80951399D01*
X94057420Y-80951400D01*
X93863926Y-81086886D01*
X93863920Y-81086891D01*
X93696891Y-81253920D01*
X93696886Y-81253926D01*
X93561400Y-81447420D01*
X93561399Y-81447422D01*
X93461570Y-81661507D01*
X93461567Y-81661513D01*
X93404364Y-81874999D01*
X93404364Y-81875000D01*
X94301314Y-81875000D01*
X94275507Y-81915156D01*
X94235000Y-82053111D01*
X94235000Y-82196889D01*
X94275507Y-82334844D01*
X94301314Y-82375000D01*
X93404364Y-82375000D01*
X91000500Y-82375000D01*
X91000500Y-79831660D01*
X140936891Y-79831660D01*
X140950697Y-79840335D01*
X140950701Y-79840337D01*
X141120858Y-79899877D01*
X141120861Y-79899878D01*
X141299997Y-79920062D01*
X141300003Y-79920062D01*
X141479138Y-79899878D01*
X141649307Y-79840333D01*
X141663107Y-79831661D01*
X141663107Y-79831660D01*
X142336891Y-79831660D01*
X142350697Y-79840335D01*
X142350701Y-79840337D01*
X142520858Y-79899877D01*
X142520861Y-79899878D01*
X142699997Y-79920062D01*
X142700003Y-79920062D01*
X142879138Y-79899878D01*
X143049307Y-79840333D01*
X143063107Y-79831661D01*
X143063107Y-79831660D01*
X142700001Y-79468553D01*
X142700000Y-79468553D01*
X142336891Y-79831660D01*
X141663107Y-79831660D01*
X141300001Y-79468553D01*
X141300000Y-79468553D01*
X140936891Y-79831660D01*
X91000500Y-79831660D01*
X91000500Y-79131660D01*
X140236891Y-79131660D01*
X140250697Y-79140335D01*
X140250701Y-79140337D01*
X140420859Y-79199878D01*
X140421644Y-79200057D01*
X140422099Y-79200311D01*
X140427430Y-79202177D01*
X140427103Y-79203110D01*
X140482623Y-79234166D01*
X140511952Y-79287875D01*
X140512823Y-79287571D01*
X140514672Y-79292855D01*
X140514940Y-79293346D01*
X140515120Y-79294137D01*
X140574662Y-79464298D01*
X140574667Y-79464308D01*
X140583338Y-79478108D01*
X140946447Y-79115000D01*
X141144709Y-79115000D01*
X141165514Y-79192645D01*
X141222355Y-79249486D01*
X141280254Y-79265000D01*
X141319746Y-79265000D01*
X141377645Y-79249486D01*
X141434486Y-79192646D01*
X141455291Y-79115000D01*
X141653553Y-79115000D01*
X142000000Y-79461447D01*
X142333947Y-79127500D01*
X142321447Y-79115000D01*
X142544709Y-79115000D01*
X142565514Y-79192645D01*
X142622355Y-79249486D01*
X142680254Y-79265000D01*
X142719746Y-79265000D01*
X142777645Y-79249486D01*
X142834486Y-79192646D01*
X142855291Y-79115000D01*
X143053553Y-79115000D01*
X143416660Y-79478107D01*
X143416661Y-79478107D01*
X143425333Y-79464307D01*
X143484877Y-79294141D01*
X143485056Y-79293358D01*
X143485310Y-79292902D01*
X143487177Y-79287569D01*
X143488111Y-79287895D01*
X143519164Y-79232379D01*
X143572874Y-79203050D01*
X143572569Y-79202177D01*
X143577871Y-79200321D01*
X143578358Y-79200056D01*
X143579141Y-79199877D01*
X143749307Y-79140333D01*
X143763107Y-79131661D01*
X143763107Y-79131660D01*
X143701447Y-79070000D01*
X154169364Y-79070000D01*
X154226567Y-79283486D01*
X154226570Y-79283492D01*
X154326399Y-79497578D01*
X154461894Y-79691082D01*
X154628917Y-79858105D01*
X154822421Y-79993600D01*
X155036507Y-80093429D01*
X155036516Y-80093433D01*
X155250000Y-80150634D01*
X155250000Y-79255501D01*
X155357685Y-79304680D01*
X155464237Y-79320000D01*
X155535763Y-79320000D01*
X155642315Y-79304680D01*
X155750000Y-79255501D01*
X155750000Y-80150633D01*
X155963483Y-80093433D01*
X155963492Y-80093429D01*
X156177578Y-79993600D01*
X156371082Y-79858105D01*
X156538105Y-79691082D01*
X156673600Y-79497578D01*
X156773429Y-79283492D01*
X156773432Y-79283486D01*
X156830636Y-79070000D01*
X155933686Y-79070000D01*
X155959493Y-79029844D01*
X156000000Y-78891889D01*
X156000000Y-78748111D01*
X155959493Y-78610156D01*
X155933686Y-78570000D01*
X156830636Y-78570000D01*
X156830635Y-78569999D01*
X156821257Y-78535000D01*
X158444417Y-78535000D01*
X158464699Y-78740932D01*
X158470922Y-78761447D01*
X158524768Y-78938954D01*
X158622315Y-79121450D01*
X158637815Y-79140337D01*
X158753589Y-79281410D01*
X158800612Y-79320000D01*
X158913550Y-79412685D01*
X159096046Y-79510232D01*
X159294066Y-79570300D01*
X159294065Y-79570300D01*
X159312529Y-79572118D01*
X159500000Y-79590583D01*
X159705934Y-79570300D01*
X159903954Y-79510232D01*
X160086450Y-79412685D01*
X160246410Y-79281410D01*
X160377685Y-79121450D01*
X160475232Y-78938954D01*
X160535300Y-78740934D01*
X160555583Y-78535000D01*
X160535300Y-78329066D01*
X160475232Y-78131046D01*
X160377685Y-77948550D01*
X160249739Y-77792646D01*
X160246410Y-77788589D01*
X160086452Y-77657317D01*
X160086453Y-77657317D01*
X160086450Y-77657315D01*
X159903954Y-77559768D01*
X159705934Y-77499700D01*
X159705932Y-77499699D01*
X159705934Y-77499699D01*
X159500000Y-77479417D01*
X159294067Y-77499699D01*
X159096043Y-77559769D01*
X159057233Y-77580514D01*
X158913550Y-77657315D01*
X158913548Y-77657316D01*
X158913547Y-77657317D01*
X158753589Y-77788589D01*
X158622317Y-77948547D01*
X158622315Y-77948550D01*
X158622114Y-77948926D01*
X158524769Y-78131043D01*
X158464699Y-78329067D01*
X158444417Y-78535000D01*
X156821257Y-78535000D01*
X156773432Y-78356513D01*
X156773429Y-78356507D01*
X156673600Y-78142422D01*
X156673599Y-78142420D01*
X156538113Y-77948926D01*
X156538108Y-77948920D01*
X156371082Y-77781894D01*
X156177578Y-77646399D01*
X155963492Y-77546570D01*
X155963486Y-77546567D01*
X155841349Y-77513841D01*
X155781689Y-77477476D01*
X155751160Y-77414629D01*
X155759455Y-77345253D01*
X155803940Y-77291375D01*
X155837444Y-77275407D01*
X155903954Y-77255232D01*
X156086450Y-77157685D01*
X156246410Y-77026410D01*
X156377685Y-76866450D01*
X156475232Y-76683954D01*
X156535300Y-76485934D01*
X156555583Y-76280000D01*
X156535300Y-76074066D01*
X156511316Y-75995000D01*
X158444417Y-75995000D01*
X158464699Y-76200932D01*
X158473553Y-76230120D01*
X158524768Y-76398954D01*
X158622315Y-76581450D01*
X158622317Y-76581452D01*
X158753589Y-76741410D01*
X158850209Y-76820702D01*
X158913550Y-76872685D01*
X159096046Y-76970232D01*
X159294066Y-77030300D01*
X159294065Y-77030300D01*
X159312529Y-77032118D01*
X159500000Y-77050583D01*
X159705934Y-77030300D01*
X159903954Y-76970232D01*
X160086450Y-76872685D01*
X160246410Y-76741410D01*
X160377685Y-76581450D01*
X160475232Y-76398954D01*
X160535300Y-76200934D01*
X160555583Y-75995000D01*
X160535300Y-75789066D01*
X160475232Y-75591046D01*
X160377685Y-75408550D01*
X160292514Y-75304768D01*
X160246410Y-75248589D01*
X160086452Y-75117317D01*
X160086453Y-75117317D01*
X160086450Y-75117315D01*
X159903954Y-75019768D01*
X159705934Y-74959700D01*
X159705932Y-74959699D01*
X159705934Y-74959699D01*
X159500000Y-74939417D01*
X159294067Y-74959699D01*
X159096043Y-75019769D01*
X158985898Y-75078643D01*
X158913550Y-75117315D01*
X158913548Y-75117316D01*
X158913547Y-75117317D01*
X158753589Y-75248589D01*
X158627430Y-75402317D01*
X158622315Y-75408550D01*
X158597843Y-75454334D01*
X158524769Y-75591043D01*
X158464699Y-75789067D01*
X158444417Y-75995000D01*
X156511316Y-75995000D01*
X156475232Y-75876046D01*
X156377685Y-75693550D01*
X156293563Y-75591046D01*
X156246410Y-75533589D01*
X156094047Y-75408550D01*
X156086450Y-75402315D01*
X155903954Y-75304768D01*
X155705934Y-75244700D01*
X155705932Y-75244699D01*
X155705934Y-75244699D01*
X155500000Y-75224417D01*
X155294067Y-75244699D01*
X155096043Y-75304769D01*
X154985898Y-75363643D01*
X154913550Y-75402315D01*
X154913548Y-75402316D01*
X154913547Y-75402317D01*
X154753589Y-75533589D01*
X154622317Y-75693547D01*
X154524769Y-75876043D01*
X154464699Y-76074067D01*
X154444417Y-76280000D01*
X154464699Y-76485932D01*
X154464700Y-76485934D01*
X154524768Y-76683954D01*
X154622315Y-76866450D01*
X154627432Y-76872685D01*
X154753589Y-77026410D01*
X154834298Y-77092645D01*
X154913550Y-77157685D01*
X155096046Y-77255232D01*
X155162551Y-77275405D01*
X155220989Y-77313702D01*
X155249446Y-77377514D01*
X155238887Y-77446581D01*
X155192663Y-77498975D01*
X155158650Y-77513841D01*
X155036514Y-77546567D01*
X155036507Y-77546570D01*
X154822422Y-77646399D01*
X154822420Y-77646400D01*
X154628926Y-77781886D01*
X154628920Y-77781891D01*
X154461891Y-77948920D01*
X154461886Y-77948926D01*
X154326400Y-78142420D01*
X154326399Y-78142422D01*
X154226570Y-78356507D01*
X154226567Y-78356513D01*
X154169364Y-78569999D01*
X154169364Y-78570000D01*
X155066314Y-78570000D01*
X155040507Y-78610156D01*
X155000000Y-78748111D01*
X155000000Y-78891889D01*
X155040507Y-79029844D01*
X155066314Y-79070000D01*
X154169364Y-79070000D01*
X143701447Y-79070000D01*
X143400000Y-78768553D01*
X143053553Y-79115000D01*
X142855291Y-79115000D01*
X142834486Y-79037355D01*
X142777645Y-78980514D01*
X142719746Y-78965000D01*
X142680254Y-78965000D01*
X142622355Y-78980514D01*
X142565514Y-79037354D01*
X142544709Y-79115000D01*
X142321447Y-79115000D01*
X141987500Y-78781053D01*
X141653553Y-79115000D01*
X141455291Y-79115000D01*
X141434486Y-79037355D01*
X141377645Y-78980514D01*
X141319746Y-78965000D01*
X141280254Y-78965000D01*
X141222355Y-78980514D01*
X141165514Y-79037354D01*
X141144709Y-79115000D01*
X140946447Y-79115000D01*
X140946447Y-79114999D01*
X140600001Y-78768553D01*
X140600000Y-78768553D01*
X140236891Y-79131660D01*
X91000500Y-79131660D01*
X91000500Y-78415002D01*
X139794938Y-78415002D01*
X139815121Y-78594138D01*
X139815122Y-78594141D01*
X139874662Y-78764298D01*
X139874667Y-78764308D01*
X139883338Y-78778108D01*
X140246447Y-78415000D01*
X140444709Y-78415000D01*
X140465514Y-78492645D01*
X140522355Y-78549486D01*
X140580254Y-78565000D01*
X140619746Y-78565000D01*
X140677645Y-78549486D01*
X140734486Y-78492646D01*
X140755291Y-78415000D01*
X140953553Y-78415000D01*
X141287500Y-78748947D01*
X141621447Y-78415000D01*
X141819709Y-78415000D01*
X141840514Y-78492645D01*
X141897355Y-78549486D01*
X141955254Y-78565000D01*
X141994746Y-78565000D01*
X142052645Y-78549486D01*
X142109486Y-78492646D01*
X142130291Y-78415000D01*
X142353553Y-78415000D01*
X142700000Y-78761447D01*
X143046447Y-78415000D01*
X143244709Y-78415000D01*
X143265514Y-78492645D01*
X143322355Y-78549486D01*
X143380254Y-78565000D01*
X143419746Y-78565000D01*
X143477645Y-78549486D01*
X143534486Y-78492646D01*
X143555291Y-78415000D01*
X143753553Y-78415000D01*
X144116660Y-78778107D01*
X144116661Y-78778107D01*
X144125333Y-78764307D01*
X144184878Y-78594138D01*
X144205062Y-78415002D01*
X144205062Y-78414997D01*
X144184878Y-78235861D01*
X144184877Y-78235858D01*
X144125337Y-78065701D01*
X144125335Y-78065697D01*
X144116660Y-78051891D01*
X143753553Y-78414999D01*
X143753553Y-78415000D01*
X143555291Y-78415000D01*
X143534486Y-78337355D01*
X143477645Y-78280514D01*
X143419746Y-78265000D01*
X143380254Y-78265000D01*
X143322355Y-78280514D01*
X143265514Y-78337354D01*
X143244709Y-78415000D01*
X143046447Y-78415000D01*
X142700000Y-78068553D01*
X142353553Y-78415000D01*
X142130291Y-78415000D01*
X142109486Y-78337355D01*
X142052645Y-78280514D01*
X141994746Y-78265000D01*
X141955254Y-78265000D01*
X141897355Y-78280514D01*
X141840514Y-78337354D01*
X141819709Y-78415000D01*
X141621447Y-78415000D01*
X141287500Y-78081053D01*
X140953553Y-78415000D01*
X140755291Y-78415000D01*
X140734486Y-78337355D01*
X140677645Y-78280514D01*
X140619746Y-78265000D01*
X140580254Y-78265000D01*
X140522355Y-78280514D01*
X140465514Y-78337354D01*
X140444709Y-78415000D01*
X140246447Y-78415000D01*
X140246447Y-78414999D01*
X139883338Y-78051890D01*
X139883338Y-78051891D01*
X139874664Y-78065696D01*
X139815122Y-78235858D01*
X139815121Y-78235861D01*
X139794938Y-78414997D01*
X139794938Y-78415002D01*
X91000500Y-78415002D01*
X91000500Y-77715000D01*
X140253553Y-77715000D01*
X140600000Y-78061447D01*
X140946447Y-77715000D01*
X141144709Y-77715000D01*
X141165514Y-77792645D01*
X141222355Y-77849486D01*
X141280254Y-77865000D01*
X141319746Y-77865000D01*
X141377645Y-77849486D01*
X141434486Y-77792646D01*
X141455291Y-77715000D01*
X141653553Y-77715000D01*
X141987500Y-78048947D01*
X142321447Y-77715000D01*
X142544709Y-77715000D01*
X142565514Y-77792645D01*
X142622355Y-77849486D01*
X142680254Y-77865000D01*
X142719746Y-77865000D01*
X142777645Y-77849486D01*
X142834486Y-77792646D01*
X142855291Y-77715000D01*
X143053553Y-77715000D01*
X143400000Y-78061447D01*
X143746447Y-77715000D01*
X143400000Y-77368553D01*
X143053553Y-77715000D01*
X142855291Y-77715000D01*
X142834486Y-77637355D01*
X142777645Y-77580514D01*
X142719746Y-77565000D01*
X142680254Y-77565000D01*
X142622355Y-77580514D01*
X142565514Y-77637354D01*
X142544709Y-77715000D01*
X142321447Y-77715000D01*
X141987500Y-77381053D01*
X141653553Y-77715000D01*
X141455291Y-77715000D01*
X141434486Y-77637355D01*
X141377645Y-77580514D01*
X141319746Y-77565000D01*
X141280254Y-77565000D01*
X141222355Y-77580514D01*
X141165514Y-77637354D01*
X141144709Y-77715000D01*
X140946447Y-77715000D01*
X140600000Y-77368553D01*
X140253553Y-77715000D01*
X91000500Y-77715000D01*
X91000500Y-77015000D01*
X139695043Y-77015000D01*
X139714819Y-77203154D01*
X139773278Y-77383072D01*
X139773281Y-77383079D01*
X139811745Y-77449700D01*
X140246447Y-77015000D01*
X140444709Y-77015000D01*
X140465514Y-77092645D01*
X140522355Y-77149486D01*
X140580254Y-77165000D01*
X140619746Y-77165000D01*
X140677645Y-77149486D01*
X140734486Y-77092646D01*
X140755291Y-77015000D01*
X140953553Y-77015000D01*
X141287500Y-77348947D01*
X141621447Y-77015000D01*
X141819709Y-77015000D01*
X141840514Y-77092645D01*
X141897355Y-77149486D01*
X141955254Y-77165000D01*
X141994746Y-77165000D01*
X142052645Y-77149486D01*
X142109486Y-77092646D01*
X142130291Y-77015000D01*
X142353553Y-77015000D01*
X142700000Y-77361447D01*
X143046447Y-77015000D01*
X143244709Y-77015000D01*
X143265514Y-77092645D01*
X143322355Y-77149486D01*
X143380254Y-77165000D01*
X143419746Y-77165000D01*
X143477645Y-77149486D01*
X143534486Y-77092646D01*
X143555291Y-77015000D01*
X143753553Y-77015000D01*
X144116660Y-77378107D01*
X144116661Y-77378107D01*
X144125333Y-77364307D01*
X144184878Y-77194138D01*
X144205062Y-77015002D01*
X144205062Y-77014997D01*
X144184878Y-76835861D01*
X144184877Y-76835858D01*
X144125337Y-76665701D01*
X144125335Y-76665697D01*
X144116660Y-76651891D01*
X143753553Y-77014999D01*
X143753553Y-77015000D01*
X143555291Y-77015000D01*
X143534486Y-76937355D01*
X143477645Y-76880514D01*
X143419746Y-76865000D01*
X143380254Y-76865000D01*
X143322355Y-76880514D01*
X143265514Y-76937354D01*
X143244709Y-77015000D01*
X143046447Y-77015000D01*
X142700000Y-76668553D01*
X142353553Y-77015000D01*
X142130291Y-77015000D01*
X142109486Y-76937355D01*
X142052645Y-76880514D01*
X141994746Y-76865000D01*
X141955254Y-76865000D01*
X141897355Y-76880514D01*
X141840514Y-76937354D01*
X141819709Y-77015000D01*
X141621447Y-77015000D01*
X141287500Y-76681053D01*
X140953553Y-77015000D01*
X140755291Y-77015000D01*
X140734486Y-76937355D01*
X140677645Y-76880514D01*
X140619746Y-76865000D01*
X140580254Y-76865000D01*
X140522355Y-76880514D01*
X140465514Y-76937354D01*
X140444709Y-77015000D01*
X140246447Y-77015000D01*
X139811745Y-76580298D01*
X139773279Y-76646923D01*
X139714819Y-76826845D01*
X139695043Y-77015000D01*
X91000500Y-77015000D01*
X91000500Y-76224409D01*
X140162961Y-76224409D01*
X140599999Y-76661447D01*
X140946447Y-76315000D01*
X141144709Y-76315000D01*
X141165514Y-76392645D01*
X141222355Y-76449486D01*
X141280254Y-76465000D01*
X141319746Y-76465000D01*
X141377645Y-76449486D01*
X141434486Y-76392646D01*
X141455291Y-76315000D01*
X141653553Y-76315000D01*
X141987500Y-76648947D01*
X142321447Y-76315000D01*
X142544709Y-76315000D01*
X142565514Y-76392645D01*
X142622355Y-76449486D01*
X142680254Y-76465000D01*
X142719746Y-76465000D01*
X142777645Y-76449486D01*
X142834486Y-76392646D01*
X142855291Y-76315000D01*
X143053553Y-76315000D01*
X143400000Y-76661447D01*
X143400001Y-76661447D01*
X143763108Y-76298338D01*
X143763108Y-76298337D01*
X143749308Y-76289667D01*
X143749298Y-76289662D01*
X143579137Y-76230120D01*
X143578346Y-76229940D01*
X143577886Y-76229683D01*
X143572571Y-76227823D01*
X143572896Y-76226891D01*
X143517370Y-76195827D01*
X143488049Y-76142124D01*
X143487177Y-76142430D01*
X143485322Y-76137130D01*
X143485057Y-76136644D01*
X143484878Y-76135859D01*
X143425337Y-75965701D01*
X143425335Y-75965697D01*
X143416660Y-75951891D01*
X143053553Y-76314999D01*
X143053553Y-76315000D01*
X142855291Y-76315000D01*
X142834486Y-76237355D01*
X142777645Y-76180514D01*
X142719746Y-76165000D01*
X142680254Y-76165000D01*
X142622355Y-76180514D01*
X142565514Y-76237354D01*
X142544709Y-76315000D01*
X142321447Y-76315000D01*
X142333947Y-76302500D01*
X142000000Y-75968553D01*
X141653553Y-76315000D01*
X141455291Y-76315000D01*
X141434486Y-76237355D01*
X141377645Y-76180514D01*
X141319746Y-76165000D01*
X141280254Y-76165000D01*
X141222355Y-76180514D01*
X141165514Y-76237354D01*
X141144709Y-76315000D01*
X140946447Y-76315000D01*
X140511745Y-75880298D01*
X140473280Y-75946922D01*
X140434356Y-76066718D01*
X140394918Y-76124393D01*
X140342208Y-76149689D01*
X140320352Y-76154334D01*
X140162961Y-76224409D01*
X91000500Y-76224409D01*
X91000500Y-75524409D01*
X140862961Y-75524409D01*
X141300000Y-75961447D01*
X141300001Y-75961447D01*
X141663108Y-75598338D01*
X142336890Y-75598338D01*
X142700000Y-75961447D01*
X142700001Y-75961447D01*
X143063108Y-75598338D01*
X143063108Y-75598337D01*
X143049308Y-75589667D01*
X143049298Y-75589662D01*
X142879141Y-75530122D01*
X142879138Y-75530121D01*
X142700003Y-75509938D01*
X142699997Y-75509938D01*
X142520861Y-75530121D01*
X142520858Y-75530122D01*
X142350696Y-75589664D01*
X142336891Y-75598338D01*
X142336890Y-75598338D01*
X141663108Y-75598338D01*
X141737037Y-75524409D01*
X141579644Y-75454334D01*
X141394594Y-75415000D01*
X141205406Y-75415000D01*
X141020355Y-75454334D01*
X140862961Y-75524409D01*
X91000500Y-75524409D01*
X91000500Y-72500001D01*
X150394318Y-72500001D01*
X150414955Y-72656760D01*
X150414956Y-72656762D01*
X150475464Y-72802841D01*
X150571718Y-72928282D01*
X150697159Y-73024536D01*
X150843238Y-73085044D01*
X150921619Y-73095363D01*
X150999999Y-73105682D01*
X151000000Y-73105682D01*
X151000001Y-73105682D01*
X151052254Y-73098802D01*
X151156762Y-73085044D01*
X151302841Y-73024536D01*
X151428282Y-72928282D01*
X151469923Y-72874013D01*
X151526351Y-72832811D01*
X151568299Y-72825500D01*
X154629362Y-72825500D01*
X154696401Y-72845185D01*
X154742156Y-72897989D01*
X154752100Y-72967147D01*
X154725215Y-73028165D01*
X154622317Y-73153546D01*
X154524769Y-73336043D01*
X154464699Y-73534067D01*
X154444417Y-73740000D01*
X154464699Y-73945932D01*
X154464700Y-73945934D01*
X154524768Y-74143954D01*
X154622315Y-74326450D01*
X154627432Y-74332685D01*
X154753589Y-74486410D01*
X154850209Y-74565702D01*
X154913550Y-74617685D01*
X155096046Y-74715232D01*
X155294066Y-74775300D01*
X155294065Y-74775300D01*
X155312529Y-74777118D01*
X155500000Y-74795583D01*
X155705934Y-74775300D01*
X155903954Y-74715232D01*
X156086450Y-74617685D01*
X156246410Y-74486410D01*
X156377685Y-74326450D01*
X156475232Y-74143954D01*
X156535300Y-73945934D01*
X156555583Y-73740000D01*
X156535300Y-73534066D01*
X156475232Y-73336046D01*
X156377685Y-73153550D01*
X156288616Y-73045019D01*
X156274785Y-73028165D01*
X156247472Y-72963855D01*
X156259263Y-72894987D01*
X156306415Y-72843427D01*
X156370638Y-72825500D01*
X158358812Y-72825500D01*
X158425851Y-72845185D01*
X158446493Y-72861819D01*
X158498678Y-72914004D01*
X158532163Y-72975327D01*
X158527179Y-73045019D01*
X158525563Y-73049126D01*
X158524771Y-73051038D01*
X158524769Y-73051043D01*
X158524768Y-73051046D01*
X158514455Y-73085044D01*
X158464699Y-73249067D01*
X158444417Y-73455000D01*
X158464699Y-73660932D01*
X158464700Y-73660934D01*
X158524768Y-73858954D01*
X158622315Y-74041450D01*
X158622317Y-74041452D01*
X158753589Y-74201410D01*
X158850209Y-74280702D01*
X158913550Y-74332685D01*
X159096046Y-74430232D01*
X159294066Y-74490300D01*
X159294065Y-74490300D01*
X159312529Y-74492118D01*
X159500000Y-74510583D01*
X159705934Y-74490300D01*
X159903954Y-74430232D01*
X160086450Y-74332685D01*
X160246410Y-74201410D01*
X160377685Y-74041450D01*
X160475232Y-73858954D01*
X160535300Y-73660934D01*
X160555583Y-73455000D01*
X160535300Y-73249066D01*
X160475232Y-73051046D01*
X160377685Y-72868550D01*
X160323758Y-72802839D01*
X160246410Y-72708589D01*
X160086452Y-72577317D01*
X160086453Y-72577317D01*
X160086450Y-72577315D01*
X159903954Y-72479768D01*
X159705934Y-72419700D01*
X159705932Y-72419699D01*
X159705934Y-72419699D01*
X159500000Y-72399417D01*
X159294067Y-72419699D01*
X159185430Y-72452653D01*
X159096046Y-72479768D01*
X159096043Y-72479769D01*
X159096038Y-72479771D01*
X159094126Y-72480563D01*
X159093045Y-72480679D01*
X159090217Y-72481537D01*
X159090054Y-72481000D01*
X159024656Y-72488024D01*
X158962180Y-72456743D01*
X158959004Y-72453678D01*
X158904743Y-72399417D01*
X158787119Y-72281793D01*
X158783474Y-72277814D01*
X158757456Y-72246807D01*
X158757455Y-72246806D01*
X158746058Y-72240226D01*
X158722392Y-72226561D01*
X158717831Y-72223655D01*
X158704687Y-72214452D01*
X158684684Y-72200446D01*
X158684681Y-72200445D01*
X158679861Y-72198197D01*
X158663055Y-72191235D01*
X158658043Y-72189411D01*
X158618190Y-72182383D01*
X158612910Y-72181212D01*
X158573808Y-72170735D01*
X158538892Y-72173790D01*
X158533481Y-72174264D01*
X158528078Y-72174500D01*
X156674500Y-72174500D01*
X156607461Y-72154815D01*
X156561706Y-72102011D01*
X156550500Y-72050500D01*
X156550500Y-70915000D01*
X158444417Y-70915000D01*
X158464699Y-71120932D01*
X158464700Y-71120934D01*
X158524768Y-71318954D01*
X158622315Y-71501450D01*
X158622317Y-71501452D01*
X158753589Y-71661410D01*
X158850209Y-71740702D01*
X158913550Y-71792685D01*
X159096046Y-71890232D01*
X159294066Y-71950300D01*
X159294065Y-71950300D01*
X159312529Y-71952118D01*
X159500000Y-71970583D01*
X159705934Y-71950300D01*
X159903954Y-71890232D01*
X160086450Y-71792685D01*
X160246410Y-71661410D01*
X160377685Y-71501450D01*
X160475232Y-71318954D01*
X160535300Y-71120934D01*
X160555583Y-70915000D01*
X160535300Y-70709066D01*
X160475232Y-70511046D01*
X160377685Y-70328550D01*
X160294527Y-70227221D01*
X160246410Y-70168589D01*
X160128677Y-70071969D01*
X160086450Y-70037315D01*
X159903954Y-69939768D01*
X159705934Y-69879700D01*
X159705932Y-69879699D01*
X159705934Y-69879699D01*
X159500000Y-69859417D01*
X159294067Y-69879699D01*
X159096043Y-69939769D01*
X158985898Y-69998643D01*
X158913550Y-70037315D01*
X158913548Y-70037316D01*
X158913547Y-70037317D01*
X158753589Y-70168589D01*
X158622317Y-70328547D01*
X158622315Y-70328550D01*
X158597353Y-70375250D01*
X158524769Y-70511043D01*
X158464699Y-70709067D01*
X158444417Y-70915000D01*
X156550500Y-70915000D01*
X156550500Y-70330249D01*
X156550499Y-70330247D01*
X156538868Y-70271770D01*
X156538867Y-70271769D01*
X156494552Y-70205447D01*
X156428230Y-70161132D01*
X156428229Y-70161131D01*
X156369752Y-70149500D01*
X156369748Y-70149500D01*
X154630252Y-70149500D01*
X154630247Y-70149500D01*
X154571770Y-70161131D01*
X154571769Y-70161132D01*
X154505447Y-70205447D01*
X154461132Y-70271769D01*
X154461131Y-70271770D01*
X154449500Y-70330247D01*
X154449500Y-72050500D01*
X154429815Y-72117539D01*
X154377011Y-72163294D01*
X154325500Y-72174500D01*
X151568299Y-72174500D01*
X151501260Y-72154815D01*
X151469923Y-72125986D01*
X151463441Y-72117539D01*
X151428282Y-72071718D01*
X151302841Y-71975464D01*
X151291057Y-71970583D01*
X151156762Y-71914956D01*
X151156760Y-71914955D01*
X151000001Y-71894318D01*
X150999999Y-71894318D01*
X150843239Y-71914955D01*
X150843237Y-71914956D01*
X150697160Y-71975463D01*
X150571718Y-72071718D01*
X150475463Y-72197160D01*
X150414956Y-72343237D01*
X150414955Y-72343239D01*
X150394318Y-72499998D01*
X150394318Y-72500001D01*
X91000500Y-72500001D01*
X91000500Y-72001623D01*
X91000585Y-71998377D01*
X91004957Y-71914955D01*
X91007488Y-71866657D01*
X91019325Y-71655862D01*
X91019984Y-71649707D01*
X91040596Y-71519568D01*
X91045531Y-71488414D01*
X91051683Y-71452201D01*
X91076195Y-71307931D01*
X91077416Y-71302342D01*
X91121176Y-71139031D01*
X91170376Y-70968255D01*
X91172048Y-70963269D01*
X91233533Y-70803095D01*
X91300760Y-70640794D01*
X91302775Y-70636423D01*
X91381287Y-70482335D01*
X91465837Y-70329353D01*
X91468064Y-70325643D01*
X91562724Y-70179880D01*
X91663646Y-70037645D01*
X91665975Y-70034573D01*
X91774767Y-69900227D01*
X91776702Y-69897953D01*
X91891920Y-69769023D01*
X91894239Y-69766571D01*
X92016571Y-69644239D01*
X92019023Y-69641920D01*
X92147953Y-69526702D01*
X92150235Y-69524761D01*
X92284573Y-69415975D01*
X92287645Y-69413646D01*
X92429879Y-69312725D01*
X92575643Y-69218064D01*
X92579353Y-69215837D01*
X92732335Y-69131287D01*
X92886423Y-69052775D01*
X92890794Y-69050760D01*
X93053095Y-68983533D01*
X93213269Y-68922048D01*
X93218255Y-68920376D01*
X93389033Y-68871175D01*
X93552342Y-68827416D01*
X93557931Y-68826195D01*
X93702201Y-68801683D01*
X93738414Y-68795531D01*
X93769568Y-68790596D01*
X93899707Y-68769984D01*
X93905862Y-68769325D01*
X94116424Y-68757500D01*
X94248379Y-68750584D01*
X94251623Y-68750500D01*
X159998377Y-68750500D01*
X160001620Y-68750584D01*
G37*
%TD.AperFunction*%
%TD*%
M02*
