%TF.GenerationSoftware,KiCad,Pcbnew,7.0.8*%
%TF.CreationDate,2023-12-29T21:58:38-05:00*%
%TF.ProjectId,SleepMonitor,536c6565-704d-46f6-9e69-746f722e6b69,rev?*%
%TF.SameCoordinates,Original*%
%TF.FileFunction,Legend,Top*%
%TF.FilePolarity,Positive*%
%FSLAX46Y46*%
G04 Gerber Fmt 4.6, Leading zero omitted, Abs format (unit mm)*
G04 Created by KiCad (PCBNEW 7.0.8) date 2023-12-29 21:58:38*
%MOMM*%
%LPD*%
G01*
G04 APERTURE LIST*
%ADD10C,0.150000*%
%ADD11C,0.120000*%
G04 APERTURE END LIST*
D10*
X132344819Y-87436904D02*
X133154342Y-87436904D01*
X133154342Y-87436904D02*
X133249580Y-87389285D01*
X133249580Y-87389285D02*
X133297200Y-87341666D01*
X133297200Y-87341666D02*
X133344819Y-87246428D01*
X133344819Y-87246428D02*
X133344819Y-87055952D01*
X133344819Y-87055952D02*
X133297200Y-86960714D01*
X133297200Y-86960714D02*
X133249580Y-86913095D01*
X133249580Y-86913095D02*
X133154342Y-86865476D01*
X133154342Y-86865476D02*
X132344819Y-86865476D01*
X132344819Y-86484523D02*
X132344819Y-85865476D01*
X132344819Y-85865476D02*
X132725771Y-86198809D01*
X132725771Y-86198809D02*
X132725771Y-86055952D01*
X132725771Y-86055952D02*
X132773390Y-85960714D01*
X132773390Y-85960714D02*
X132821009Y-85913095D01*
X132821009Y-85913095D02*
X132916247Y-85865476D01*
X132916247Y-85865476D02*
X133154342Y-85865476D01*
X133154342Y-85865476D02*
X133249580Y-85913095D01*
X133249580Y-85913095D02*
X133297200Y-85960714D01*
X133297200Y-85960714D02*
X133344819Y-86055952D01*
X133344819Y-86055952D02*
X133344819Y-86341666D01*
X133344819Y-86341666D02*
X133297200Y-86436904D01*
X133297200Y-86436904D02*
X133249580Y-86484523D01*
X99059819Y-82458333D02*
X99774104Y-82458333D01*
X99774104Y-82458333D02*
X99916961Y-82505952D01*
X99916961Y-82505952D02*
X100012200Y-82601190D01*
X100012200Y-82601190D02*
X100059819Y-82744047D01*
X100059819Y-82744047D02*
X100059819Y-82839285D01*
X100059819Y-81458333D02*
X100059819Y-82029761D01*
X100059819Y-81744047D02*
X99059819Y-81744047D01*
X99059819Y-81744047D02*
X99202676Y-81839285D01*
X99202676Y-81839285D02*
X99297914Y-81934523D01*
X99297914Y-81934523D02*
X99345533Y-82029761D01*
X116404761Y-108950057D02*
X116309523Y-108902438D01*
X116309523Y-108902438D02*
X116214285Y-108807200D01*
X116214285Y-108807200D02*
X116071428Y-108664342D01*
X116071428Y-108664342D02*
X115976190Y-108616723D01*
X115976190Y-108616723D02*
X115880952Y-108616723D01*
X115928571Y-108854819D02*
X115833333Y-108807200D01*
X115833333Y-108807200D02*
X115738095Y-108711961D01*
X115738095Y-108711961D02*
X115690476Y-108521485D01*
X115690476Y-108521485D02*
X115690476Y-108188152D01*
X115690476Y-108188152D02*
X115738095Y-107997676D01*
X115738095Y-107997676D02*
X115833333Y-107902438D01*
X115833333Y-107902438D02*
X115928571Y-107854819D01*
X115928571Y-107854819D02*
X116119047Y-107854819D01*
X116119047Y-107854819D02*
X116214285Y-107902438D01*
X116214285Y-107902438D02*
X116309523Y-107997676D01*
X116309523Y-107997676D02*
X116357142Y-108188152D01*
X116357142Y-108188152D02*
X116357142Y-108521485D01*
X116357142Y-108521485D02*
X116309523Y-108711961D01*
X116309523Y-108711961D02*
X116214285Y-108807200D01*
X116214285Y-108807200D02*
X116119047Y-108854819D01*
X116119047Y-108854819D02*
X115928571Y-108854819D01*
X117309523Y-108854819D02*
X116738095Y-108854819D01*
X117023809Y-108854819D02*
X117023809Y-107854819D01*
X117023809Y-107854819D02*
X116928571Y-107997676D01*
X116928571Y-107997676D02*
X116833333Y-108092914D01*
X116833333Y-108092914D02*
X116738095Y-108140533D01*
X114579819Y-74166666D02*
X114103628Y-74499999D01*
X114579819Y-74738094D02*
X113579819Y-74738094D01*
X113579819Y-74738094D02*
X113579819Y-74357142D01*
X113579819Y-74357142D02*
X113627438Y-74261904D01*
X113627438Y-74261904D02*
X113675057Y-74214285D01*
X113675057Y-74214285D02*
X113770295Y-74166666D01*
X113770295Y-74166666D02*
X113913152Y-74166666D01*
X113913152Y-74166666D02*
X114008390Y-74214285D01*
X114008390Y-74214285D02*
X114056009Y-74261904D01*
X114056009Y-74261904D02*
X114103628Y-74357142D01*
X114103628Y-74357142D02*
X114103628Y-74738094D01*
X113675057Y-73785713D02*
X113627438Y-73738094D01*
X113627438Y-73738094D02*
X113579819Y-73642856D01*
X113579819Y-73642856D02*
X113579819Y-73404761D01*
X113579819Y-73404761D02*
X113627438Y-73309523D01*
X113627438Y-73309523D02*
X113675057Y-73261904D01*
X113675057Y-73261904D02*
X113770295Y-73214285D01*
X113770295Y-73214285D02*
X113865533Y-73214285D01*
X113865533Y-73214285D02*
X114008390Y-73261904D01*
X114008390Y-73261904D02*
X114579819Y-73833332D01*
X114579819Y-73833332D02*
X114579819Y-73214285D01*
X133083628Y-108476190D02*
X133559819Y-108476190D01*
X132559819Y-108809523D02*
X133083628Y-108476190D01*
X133083628Y-108476190D02*
X132559819Y-108142857D01*
X133559819Y-107285714D02*
X133559819Y-107857142D01*
X133559819Y-107571428D02*
X132559819Y-107571428D01*
X132559819Y-107571428D02*
X132702676Y-107666666D01*
X132702676Y-107666666D02*
X132797914Y-107761904D01*
X132797914Y-107761904D02*
X132845533Y-107857142D01*
X129357142Y-99104819D02*
X129023809Y-98628628D01*
X128785714Y-99104819D02*
X128785714Y-98104819D01*
X128785714Y-98104819D02*
X129166666Y-98104819D01*
X129166666Y-98104819D02*
X129261904Y-98152438D01*
X129261904Y-98152438D02*
X129309523Y-98200057D01*
X129309523Y-98200057D02*
X129357142Y-98295295D01*
X129357142Y-98295295D02*
X129357142Y-98438152D01*
X129357142Y-98438152D02*
X129309523Y-98533390D01*
X129309523Y-98533390D02*
X129261904Y-98581009D01*
X129261904Y-98581009D02*
X129166666Y-98628628D01*
X129166666Y-98628628D02*
X128785714Y-98628628D01*
X130309523Y-99104819D02*
X129738095Y-99104819D01*
X130023809Y-99104819D02*
X130023809Y-98104819D01*
X130023809Y-98104819D02*
X129928571Y-98247676D01*
X129928571Y-98247676D02*
X129833333Y-98342914D01*
X129833333Y-98342914D02*
X129738095Y-98390533D01*
X131166666Y-98438152D02*
X131166666Y-99104819D01*
X130928571Y-98057200D02*
X130690476Y-98771485D01*
X130690476Y-98771485D02*
X131309523Y-98771485D01*
X112261905Y-100834819D02*
X112261905Y-99834819D01*
X112261905Y-99834819D02*
X112500000Y-99834819D01*
X112500000Y-99834819D02*
X112642857Y-99882438D01*
X112642857Y-99882438D02*
X112738095Y-99977676D01*
X112738095Y-99977676D02*
X112785714Y-100072914D01*
X112785714Y-100072914D02*
X112833333Y-100263390D01*
X112833333Y-100263390D02*
X112833333Y-100406247D01*
X112833333Y-100406247D02*
X112785714Y-100596723D01*
X112785714Y-100596723D02*
X112738095Y-100691961D01*
X112738095Y-100691961D02*
X112642857Y-100787200D01*
X112642857Y-100787200D02*
X112500000Y-100834819D01*
X112500000Y-100834819D02*
X112261905Y-100834819D01*
X113214286Y-99930057D02*
X113261905Y-99882438D01*
X113261905Y-99882438D02*
X113357143Y-99834819D01*
X113357143Y-99834819D02*
X113595238Y-99834819D01*
X113595238Y-99834819D02*
X113690476Y-99882438D01*
X113690476Y-99882438D02*
X113738095Y-99930057D01*
X113738095Y-99930057D02*
X113785714Y-100025295D01*
X113785714Y-100025295D02*
X113785714Y-100120533D01*
X113785714Y-100120533D02*
X113738095Y-100263390D01*
X113738095Y-100263390D02*
X113166667Y-100834819D01*
X113166667Y-100834819D02*
X113785714Y-100834819D01*
X108928095Y-101154819D02*
X108928095Y-100154819D01*
X109499523Y-101154819D02*
X109070952Y-100583390D01*
X109499523Y-100154819D02*
X108928095Y-100726247D01*
X139539580Y-95166666D02*
X139587200Y-95214285D01*
X139587200Y-95214285D02*
X139634819Y-95357142D01*
X139634819Y-95357142D02*
X139634819Y-95452380D01*
X139634819Y-95452380D02*
X139587200Y-95595237D01*
X139587200Y-95595237D02*
X139491961Y-95690475D01*
X139491961Y-95690475D02*
X139396723Y-95738094D01*
X139396723Y-95738094D02*
X139206247Y-95785713D01*
X139206247Y-95785713D02*
X139063390Y-95785713D01*
X139063390Y-95785713D02*
X138872914Y-95738094D01*
X138872914Y-95738094D02*
X138777676Y-95690475D01*
X138777676Y-95690475D02*
X138682438Y-95595237D01*
X138682438Y-95595237D02*
X138634819Y-95452380D01*
X138634819Y-95452380D02*
X138634819Y-95357142D01*
X138634819Y-95357142D02*
X138682438Y-95214285D01*
X138682438Y-95214285D02*
X138730057Y-95166666D01*
X139634819Y-94214285D02*
X139634819Y-94785713D01*
X139634819Y-94499999D02*
X138634819Y-94499999D01*
X138634819Y-94499999D02*
X138777676Y-94595237D01*
X138777676Y-94595237D02*
X138872914Y-94690475D01*
X138872914Y-94690475D02*
X138920533Y-94785713D01*
X156559819Y-94333333D02*
X157274104Y-94333333D01*
X157274104Y-94333333D02*
X157416961Y-94380952D01*
X157416961Y-94380952D02*
X157512200Y-94476190D01*
X157512200Y-94476190D02*
X157559819Y-94619047D01*
X157559819Y-94619047D02*
X157559819Y-94714285D01*
X156559819Y-93380952D02*
X156559819Y-93857142D01*
X156559819Y-93857142D02*
X157036009Y-93904761D01*
X157036009Y-93904761D02*
X156988390Y-93857142D01*
X156988390Y-93857142D02*
X156940771Y-93761904D01*
X156940771Y-93761904D02*
X156940771Y-93523809D01*
X156940771Y-93523809D02*
X156988390Y-93428571D01*
X156988390Y-93428571D02*
X157036009Y-93380952D01*
X157036009Y-93380952D02*
X157131247Y-93333333D01*
X157131247Y-93333333D02*
X157369342Y-93333333D01*
X157369342Y-93333333D02*
X157464580Y-93380952D01*
X157464580Y-93380952D02*
X157512200Y-93428571D01*
X157512200Y-93428571D02*
X157559819Y-93523809D01*
X157559819Y-93523809D02*
X157559819Y-93761904D01*
X157559819Y-93761904D02*
X157512200Y-93857142D01*
X157512200Y-93857142D02*
X157464580Y-93904761D01*
X119608333Y-87934580D02*
X119560714Y-87982200D01*
X119560714Y-87982200D02*
X119417857Y-88029819D01*
X119417857Y-88029819D02*
X119322619Y-88029819D01*
X119322619Y-88029819D02*
X119179762Y-87982200D01*
X119179762Y-87982200D02*
X119084524Y-87886961D01*
X119084524Y-87886961D02*
X119036905Y-87791723D01*
X119036905Y-87791723D02*
X118989286Y-87601247D01*
X118989286Y-87601247D02*
X118989286Y-87458390D01*
X118989286Y-87458390D02*
X119036905Y-87267914D01*
X119036905Y-87267914D02*
X119084524Y-87172676D01*
X119084524Y-87172676D02*
X119179762Y-87077438D01*
X119179762Y-87077438D02*
X119322619Y-87029819D01*
X119322619Y-87029819D02*
X119417857Y-87029819D01*
X119417857Y-87029819D02*
X119560714Y-87077438D01*
X119560714Y-87077438D02*
X119608333Y-87125057D01*
X120084524Y-88029819D02*
X120275000Y-88029819D01*
X120275000Y-88029819D02*
X120370238Y-87982200D01*
X120370238Y-87982200D02*
X120417857Y-87934580D01*
X120417857Y-87934580D02*
X120513095Y-87791723D01*
X120513095Y-87791723D02*
X120560714Y-87601247D01*
X120560714Y-87601247D02*
X120560714Y-87220295D01*
X120560714Y-87220295D02*
X120513095Y-87125057D01*
X120513095Y-87125057D02*
X120465476Y-87077438D01*
X120465476Y-87077438D02*
X120370238Y-87029819D01*
X120370238Y-87029819D02*
X120179762Y-87029819D01*
X120179762Y-87029819D02*
X120084524Y-87077438D01*
X120084524Y-87077438D02*
X120036905Y-87125057D01*
X120036905Y-87125057D02*
X119989286Y-87220295D01*
X119989286Y-87220295D02*
X119989286Y-87458390D01*
X119989286Y-87458390D02*
X120036905Y-87553628D01*
X120036905Y-87553628D02*
X120084524Y-87601247D01*
X120084524Y-87601247D02*
X120179762Y-87648866D01*
X120179762Y-87648866D02*
X120370238Y-87648866D01*
X120370238Y-87648866D02*
X120465476Y-87601247D01*
X120465476Y-87601247D02*
X120513095Y-87553628D01*
X120513095Y-87553628D02*
X120560714Y-87458390D01*
X141238095Y-96954819D02*
X141238095Y-97764342D01*
X141238095Y-97764342D02*
X141285714Y-97859580D01*
X141285714Y-97859580D02*
X141333333Y-97907200D01*
X141333333Y-97907200D02*
X141428571Y-97954819D01*
X141428571Y-97954819D02*
X141619047Y-97954819D01*
X141619047Y-97954819D02*
X141714285Y-97907200D01*
X141714285Y-97907200D02*
X141761904Y-97859580D01*
X141761904Y-97859580D02*
X141809523Y-97764342D01*
X141809523Y-97764342D02*
X141809523Y-96954819D01*
X142809523Y-97954819D02*
X142238095Y-97954819D01*
X142523809Y-97954819D02*
X142523809Y-96954819D01*
X142523809Y-96954819D02*
X142428571Y-97097676D01*
X142428571Y-97097676D02*
X142333333Y-97192914D01*
X142333333Y-97192914D02*
X142238095Y-97240533D01*
X124574819Y-105548094D02*
X123574819Y-105548094D01*
X123574819Y-105548094D02*
X123574819Y-105309999D01*
X123574819Y-105309999D02*
X123622438Y-105167142D01*
X123622438Y-105167142D02*
X123717676Y-105071904D01*
X123717676Y-105071904D02*
X123812914Y-105024285D01*
X123812914Y-105024285D02*
X124003390Y-104976666D01*
X124003390Y-104976666D02*
X124146247Y-104976666D01*
X124146247Y-104976666D02*
X124336723Y-105024285D01*
X124336723Y-105024285D02*
X124431961Y-105071904D01*
X124431961Y-105071904D02*
X124527200Y-105167142D01*
X124527200Y-105167142D02*
X124574819Y-105309999D01*
X124574819Y-105309999D02*
X124574819Y-105548094D01*
X124574819Y-104024285D02*
X124574819Y-104595713D01*
X124574819Y-104309999D02*
X123574819Y-104309999D01*
X123574819Y-104309999D02*
X123717676Y-104405237D01*
X123717676Y-104405237D02*
X123812914Y-104500475D01*
X123812914Y-104500475D02*
X123860533Y-104595713D01*
X124254819Y-101261904D02*
X123254819Y-101261904D01*
X124254819Y-100690476D02*
X123683390Y-101119047D01*
X123254819Y-100690476D02*
X123826247Y-101261904D01*
X144450057Y-103957738D02*
X144402438Y-104052976D01*
X144402438Y-104052976D02*
X144307200Y-104148214D01*
X144307200Y-104148214D02*
X144164342Y-104291071D01*
X144164342Y-104291071D02*
X144116723Y-104386309D01*
X144116723Y-104386309D02*
X144116723Y-104481547D01*
X144354819Y-104433928D02*
X144307200Y-104529166D01*
X144307200Y-104529166D02*
X144211961Y-104624404D01*
X144211961Y-104624404D02*
X144021485Y-104672023D01*
X144021485Y-104672023D02*
X143688152Y-104672023D01*
X143688152Y-104672023D02*
X143497676Y-104624404D01*
X143497676Y-104624404D02*
X143402438Y-104529166D01*
X143402438Y-104529166D02*
X143354819Y-104433928D01*
X143354819Y-104433928D02*
X143354819Y-104243452D01*
X143354819Y-104243452D02*
X143402438Y-104148214D01*
X143402438Y-104148214D02*
X143497676Y-104052976D01*
X143497676Y-104052976D02*
X143688152Y-104005357D01*
X143688152Y-104005357D02*
X144021485Y-104005357D01*
X144021485Y-104005357D02*
X144211961Y-104052976D01*
X144211961Y-104052976D02*
X144307200Y-104148214D01*
X144307200Y-104148214D02*
X144354819Y-104243452D01*
X144354819Y-104243452D02*
X144354819Y-104433928D01*
X143354819Y-103672023D02*
X143354819Y-103052976D01*
X143354819Y-103052976D02*
X143735771Y-103386309D01*
X143735771Y-103386309D02*
X143735771Y-103243452D01*
X143735771Y-103243452D02*
X143783390Y-103148214D01*
X143783390Y-103148214D02*
X143831009Y-103100595D01*
X143831009Y-103100595D02*
X143926247Y-103052976D01*
X143926247Y-103052976D02*
X144164342Y-103052976D01*
X144164342Y-103052976D02*
X144259580Y-103100595D01*
X144259580Y-103100595D02*
X144307200Y-103148214D01*
X144307200Y-103148214D02*
X144354819Y-103243452D01*
X144354819Y-103243452D02*
X144354819Y-103529166D01*
X144354819Y-103529166D02*
X144307200Y-103624404D01*
X144307200Y-103624404D02*
X144259580Y-103672023D01*
X125666666Y-87754819D02*
X125666666Y-88469104D01*
X125666666Y-88469104D02*
X125619047Y-88611961D01*
X125619047Y-88611961D02*
X125523809Y-88707200D01*
X125523809Y-88707200D02*
X125380952Y-88754819D01*
X125380952Y-88754819D02*
X125285714Y-88754819D01*
X126142857Y-88754819D02*
X126142857Y-87754819D01*
X126142857Y-87754819D02*
X126523809Y-87754819D01*
X126523809Y-87754819D02*
X126619047Y-87802438D01*
X126619047Y-87802438D02*
X126666666Y-87850057D01*
X126666666Y-87850057D02*
X126714285Y-87945295D01*
X126714285Y-87945295D02*
X126714285Y-88088152D01*
X126714285Y-88088152D02*
X126666666Y-88183390D01*
X126666666Y-88183390D02*
X126619047Y-88231009D01*
X126619047Y-88231009D02*
X126523809Y-88278628D01*
X126523809Y-88278628D02*
X126142857Y-88278628D01*
X127619047Y-87754819D02*
X127142857Y-87754819D01*
X127142857Y-87754819D02*
X127095238Y-88231009D01*
X127095238Y-88231009D02*
X127142857Y-88183390D01*
X127142857Y-88183390D02*
X127238095Y-88135771D01*
X127238095Y-88135771D02*
X127476190Y-88135771D01*
X127476190Y-88135771D02*
X127571428Y-88183390D01*
X127571428Y-88183390D02*
X127619047Y-88231009D01*
X127619047Y-88231009D02*
X127666666Y-88326247D01*
X127666666Y-88326247D02*
X127666666Y-88564342D01*
X127666666Y-88564342D02*
X127619047Y-88659580D01*
X127619047Y-88659580D02*
X127571428Y-88707200D01*
X127571428Y-88707200D02*
X127476190Y-88754819D01*
X127476190Y-88754819D02*
X127238095Y-88754819D01*
X127238095Y-88754819D02*
X127142857Y-88707200D01*
X127142857Y-88707200D02*
X127095238Y-88659580D01*
X128104819Y-78166666D02*
X127628628Y-78499999D01*
X128104819Y-78738094D02*
X127104819Y-78738094D01*
X127104819Y-78738094D02*
X127104819Y-78357142D01*
X127104819Y-78357142D02*
X127152438Y-78261904D01*
X127152438Y-78261904D02*
X127200057Y-78214285D01*
X127200057Y-78214285D02*
X127295295Y-78166666D01*
X127295295Y-78166666D02*
X127438152Y-78166666D01*
X127438152Y-78166666D02*
X127533390Y-78214285D01*
X127533390Y-78214285D02*
X127581009Y-78261904D01*
X127581009Y-78261904D02*
X127628628Y-78357142D01*
X127628628Y-78357142D02*
X127628628Y-78738094D01*
X127104819Y-77261904D02*
X127104819Y-77738094D01*
X127104819Y-77738094D02*
X127581009Y-77785713D01*
X127581009Y-77785713D02*
X127533390Y-77738094D01*
X127533390Y-77738094D02*
X127485771Y-77642856D01*
X127485771Y-77642856D02*
X127485771Y-77404761D01*
X127485771Y-77404761D02*
X127533390Y-77309523D01*
X127533390Y-77309523D02*
X127581009Y-77261904D01*
X127581009Y-77261904D02*
X127676247Y-77214285D01*
X127676247Y-77214285D02*
X127914342Y-77214285D01*
X127914342Y-77214285D02*
X128009580Y-77261904D01*
X128009580Y-77261904D02*
X128057200Y-77309523D01*
X128057200Y-77309523D02*
X128104819Y-77404761D01*
X128104819Y-77404761D02*
X128104819Y-77642856D01*
X128104819Y-77642856D02*
X128057200Y-77738094D01*
X128057200Y-77738094D02*
X128009580Y-77785713D01*
X99454819Y-78863094D02*
X98454819Y-78863094D01*
X98454819Y-78863094D02*
X98454819Y-78624999D01*
X98454819Y-78624999D02*
X98502438Y-78482142D01*
X98502438Y-78482142D02*
X98597676Y-78386904D01*
X98597676Y-78386904D02*
X98692914Y-78339285D01*
X98692914Y-78339285D02*
X98883390Y-78291666D01*
X98883390Y-78291666D02*
X99026247Y-78291666D01*
X99026247Y-78291666D02*
X99216723Y-78339285D01*
X99216723Y-78339285D02*
X99311961Y-78386904D01*
X99311961Y-78386904D02*
X99407200Y-78482142D01*
X99407200Y-78482142D02*
X99454819Y-78624999D01*
X99454819Y-78624999D02*
X99454819Y-78863094D01*
X98454819Y-77958332D02*
X98454819Y-77339285D01*
X98454819Y-77339285D02*
X98835771Y-77672618D01*
X98835771Y-77672618D02*
X98835771Y-77529761D01*
X98835771Y-77529761D02*
X98883390Y-77434523D01*
X98883390Y-77434523D02*
X98931009Y-77386904D01*
X98931009Y-77386904D02*
X99026247Y-77339285D01*
X99026247Y-77339285D02*
X99264342Y-77339285D01*
X99264342Y-77339285D02*
X99359580Y-77386904D01*
X99359580Y-77386904D02*
X99407200Y-77434523D01*
X99407200Y-77434523D02*
X99454819Y-77529761D01*
X99454819Y-77529761D02*
X99454819Y-77815475D01*
X99454819Y-77815475D02*
X99407200Y-77910713D01*
X99407200Y-77910713D02*
X99359580Y-77958332D01*
X125357142Y-95804819D02*
X125023809Y-95328628D01*
X124785714Y-95804819D02*
X124785714Y-94804819D01*
X124785714Y-94804819D02*
X125166666Y-94804819D01*
X125166666Y-94804819D02*
X125261904Y-94852438D01*
X125261904Y-94852438D02*
X125309523Y-94900057D01*
X125309523Y-94900057D02*
X125357142Y-94995295D01*
X125357142Y-94995295D02*
X125357142Y-95138152D01*
X125357142Y-95138152D02*
X125309523Y-95233390D01*
X125309523Y-95233390D02*
X125261904Y-95281009D01*
X125261904Y-95281009D02*
X125166666Y-95328628D01*
X125166666Y-95328628D02*
X124785714Y-95328628D01*
X126309523Y-95804819D02*
X125738095Y-95804819D01*
X126023809Y-95804819D02*
X126023809Y-94804819D01*
X126023809Y-94804819D02*
X125928571Y-94947676D01*
X125928571Y-94947676D02*
X125833333Y-95042914D01*
X125833333Y-95042914D02*
X125738095Y-95090533D01*
X126690476Y-94900057D02*
X126738095Y-94852438D01*
X126738095Y-94852438D02*
X126833333Y-94804819D01*
X126833333Y-94804819D02*
X127071428Y-94804819D01*
X127071428Y-94804819D02*
X127166666Y-94852438D01*
X127166666Y-94852438D02*
X127214285Y-94900057D01*
X127214285Y-94900057D02*
X127261904Y-94995295D01*
X127261904Y-94995295D02*
X127261904Y-95090533D01*
X127261904Y-95090533D02*
X127214285Y-95233390D01*
X127214285Y-95233390D02*
X126642857Y-95804819D01*
X126642857Y-95804819D02*
X127261904Y-95804819D01*
X136604819Y-108029166D02*
X136128628Y-108362499D01*
X136604819Y-108600594D02*
X135604819Y-108600594D01*
X135604819Y-108600594D02*
X135604819Y-108219642D01*
X135604819Y-108219642D02*
X135652438Y-108124404D01*
X135652438Y-108124404D02*
X135700057Y-108076785D01*
X135700057Y-108076785D02*
X135795295Y-108029166D01*
X135795295Y-108029166D02*
X135938152Y-108029166D01*
X135938152Y-108029166D02*
X136033390Y-108076785D01*
X136033390Y-108076785D02*
X136081009Y-108124404D01*
X136081009Y-108124404D02*
X136128628Y-108219642D01*
X136128628Y-108219642D02*
X136128628Y-108600594D01*
X136033390Y-107457737D02*
X135985771Y-107552975D01*
X135985771Y-107552975D02*
X135938152Y-107600594D01*
X135938152Y-107600594D02*
X135842914Y-107648213D01*
X135842914Y-107648213D02*
X135795295Y-107648213D01*
X135795295Y-107648213D02*
X135700057Y-107600594D01*
X135700057Y-107600594D02*
X135652438Y-107552975D01*
X135652438Y-107552975D02*
X135604819Y-107457737D01*
X135604819Y-107457737D02*
X135604819Y-107267261D01*
X135604819Y-107267261D02*
X135652438Y-107172023D01*
X135652438Y-107172023D02*
X135700057Y-107124404D01*
X135700057Y-107124404D02*
X135795295Y-107076785D01*
X135795295Y-107076785D02*
X135842914Y-107076785D01*
X135842914Y-107076785D02*
X135938152Y-107124404D01*
X135938152Y-107124404D02*
X135985771Y-107172023D01*
X135985771Y-107172023D02*
X136033390Y-107267261D01*
X136033390Y-107267261D02*
X136033390Y-107457737D01*
X136033390Y-107457737D02*
X136081009Y-107552975D01*
X136081009Y-107552975D02*
X136128628Y-107600594D01*
X136128628Y-107600594D02*
X136223866Y-107648213D01*
X136223866Y-107648213D02*
X136414342Y-107648213D01*
X136414342Y-107648213D02*
X136509580Y-107600594D01*
X136509580Y-107600594D02*
X136557200Y-107552975D01*
X136557200Y-107552975D02*
X136604819Y-107457737D01*
X136604819Y-107457737D02*
X136604819Y-107267261D01*
X136604819Y-107267261D02*
X136557200Y-107172023D01*
X136557200Y-107172023D02*
X136509580Y-107124404D01*
X136509580Y-107124404D02*
X136414342Y-107076785D01*
X136414342Y-107076785D02*
X136223866Y-107076785D01*
X136223866Y-107076785D02*
X136128628Y-107124404D01*
X136128628Y-107124404D02*
X136081009Y-107172023D01*
X136081009Y-107172023D02*
X136033390Y-107267261D01*
X122166666Y-76654819D02*
X122166666Y-77369104D01*
X122166666Y-77369104D02*
X122119047Y-77511961D01*
X122119047Y-77511961D02*
X122023809Y-77607200D01*
X122023809Y-77607200D02*
X121880952Y-77654819D01*
X121880952Y-77654819D02*
X121785714Y-77654819D01*
X122642857Y-77654819D02*
X122642857Y-76654819D01*
X122642857Y-76654819D02*
X123023809Y-76654819D01*
X123023809Y-76654819D02*
X123119047Y-76702438D01*
X123119047Y-76702438D02*
X123166666Y-76750057D01*
X123166666Y-76750057D02*
X123214285Y-76845295D01*
X123214285Y-76845295D02*
X123214285Y-76988152D01*
X123214285Y-76988152D02*
X123166666Y-77083390D01*
X123166666Y-77083390D02*
X123119047Y-77131009D01*
X123119047Y-77131009D02*
X123023809Y-77178628D01*
X123023809Y-77178628D02*
X122642857Y-77178628D01*
X123595238Y-76750057D02*
X123642857Y-76702438D01*
X123642857Y-76702438D02*
X123738095Y-76654819D01*
X123738095Y-76654819D02*
X123976190Y-76654819D01*
X123976190Y-76654819D02*
X124071428Y-76702438D01*
X124071428Y-76702438D02*
X124119047Y-76750057D01*
X124119047Y-76750057D02*
X124166666Y-76845295D01*
X124166666Y-76845295D02*
X124166666Y-76940533D01*
X124166666Y-76940533D02*
X124119047Y-77083390D01*
X124119047Y-77083390D02*
X123547619Y-77654819D01*
X123547619Y-77654819D02*
X124166666Y-77654819D01*
X119608333Y-80434580D02*
X119560714Y-80482200D01*
X119560714Y-80482200D02*
X119417857Y-80529819D01*
X119417857Y-80529819D02*
X119322619Y-80529819D01*
X119322619Y-80529819D02*
X119179762Y-80482200D01*
X119179762Y-80482200D02*
X119084524Y-80386961D01*
X119084524Y-80386961D02*
X119036905Y-80291723D01*
X119036905Y-80291723D02*
X118989286Y-80101247D01*
X118989286Y-80101247D02*
X118989286Y-79958390D01*
X118989286Y-79958390D02*
X119036905Y-79767914D01*
X119036905Y-79767914D02*
X119084524Y-79672676D01*
X119084524Y-79672676D02*
X119179762Y-79577438D01*
X119179762Y-79577438D02*
X119322619Y-79529819D01*
X119322619Y-79529819D02*
X119417857Y-79529819D01*
X119417857Y-79529819D02*
X119560714Y-79577438D01*
X119560714Y-79577438D02*
X119608333Y-79625057D01*
X120465476Y-79529819D02*
X120275000Y-79529819D01*
X120275000Y-79529819D02*
X120179762Y-79577438D01*
X120179762Y-79577438D02*
X120132143Y-79625057D01*
X120132143Y-79625057D02*
X120036905Y-79767914D01*
X120036905Y-79767914D02*
X119989286Y-79958390D01*
X119989286Y-79958390D02*
X119989286Y-80339342D01*
X119989286Y-80339342D02*
X120036905Y-80434580D01*
X120036905Y-80434580D02*
X120084524Y-80482200D01*
X120084524Y-80482200D02*
X120179762Y-80529819D01*
X120179762Y-80529819D02*
X120370238Y-80529819D01*
X120370238Y-80529819D02*
X120465476Y-80482200D01*
X120465476Y-80482200D02*
X120513095Y-80434580D01*
X120513095Y-80434580D02*
X120560714Y-80339342D01*
X120560714Y-80339342D02*
X120560714Y-80101247D01*
X120560714Y-80101247D02*
X120513095Y-80006009D01*
X120513095Y-80006009D02*
X120465476Y-79958390D01*
X120465476Y-79958390D02*
X120370238Y-79910771D01*
X120370238Y-79910771D02*
X120179762Y-79910771D01*
X120179762Y-79910771D02*
X120084524Y-79958390D01*
X120084524Y-79958390D02*
X120036905Y-80006009D01*
X120036905Y-80006009D02*
X119989286Y-80101247D01*
X120833333Y-97179580D02*
X120785714Y-97227200D01*
X120785714Y-97227200D02*
X120642857Y-97274819D01*
X120642857Y-97274819D02*
X120547619Y-97274819D01*
X120547619Y-97274819D02*
X120404762Y-97227200D01*
X120404762Y-97227200D02*
X120309524Y-97131961D01*
X120309524Y-97131961D02*
X120261905Y-97036723D01*
X120261905Y-97036723D02*
X120214286Y-96846247D01*
X120214286Y-96846247D02*
X120214286Y-96703390D01*
X120214286Y-96703390D02*
X120261905Y-96512914D01*
X120261905Y-96512914D02*
X120309524Y-96417676D01*
X120309524Y-96417676D02*
X120404762Y-96322438D01*
X120404762Y-96322438D02*
X120547619Y-96274819D01*
X120547619Y-96274819D02*
X120642857Y-96274819D01*
X120642857Y-96274819D02*
X120785714Y-96322438D01*
X120785714Y-96322438D02*
X120833333Y-96370057D01*
X121166667Y-96274819D02*
X121785714Y-96274819D01*
X121785714Y-96274819D02*
X121452381Y-96655771D01*
X121452381Y-96655771D02*
X121595238Y-96655771D01*
X121595238Y-96655771D02*
X121690476Y-96703390D01*
X121690476Y-96703390D02*
X121738095Y-96751009D01*
X121738095Y-96751009D02*
X121785714Y-96846247D01*
X121785714Y-96846247D02*
X121785714Y-97084342D01*
X121785714Y-97084342D02*
X121738095Y-97179580D01*
X121738095Y-97179580D02*
X121690476Y-97227200D01*
X121690476Y-97227200D02*
X121595238Y-97274819D01*
X121595238Y-97274819D02*
X121309524Y-97274819D01*
X121309524Y-97274819D02*
X121214286Y-97227200D01*
X121214286Y-97227200D02*
X121166667Y-97179580D01*
X116333333Y-95179580D02*
X116285714Y-95227200D01*
X116285714Y-95227200D02*
X116142857Y-95274819D01*
X116142857Y-95274819D02*
X116047619Y-95274819D01*
X116047619Y-95274819D02*
X115904762Y-95227200D01*
X115904762Y-95227200D02*
X115809524Y-95131961D01*
X115809524Y-95131961D02*
X115761905Y-95036723D01*
X115761905Y-95036723D02*
X115714286Y-94846247D01*
X115714286Y-94846247D02*
X115714286Y-94703390D01*
X115714286Y-94703390D02*
X115761905Y-94512914D01*
X115761905Y-94512914D02*
X115809524Y-94417676D01*
X115809524Y-94417676D02*
X115904762Y-94322438D01*
X115904762Y-94322438D02*
X116047619Y-94274819D01*
X116047619Y-94274819D02*
X116142857Y-94274819D01*
X116142857Y-94274819D02*
X116285714Y-94322438D01*
X116285714Y-94322438D02*
X116333333Y-94370057D01*
X116904762Y-94703390D02*
X116809524Y-94655771D01*
X116809524Y-94655771D02*
X116761905Y-94608152D01*
X116761905Y-94608152D02*
X116714286Y-94512914D01*
X116714286Y-94512914D02*
X116714286Y-94465295D01*
X116714286Y-94465295D02*
X116761905Y-94370057D01*
X116761905Y-94370057D02*
X116809524Y-94322438D01*
X116809524Y-94322438D02*
X116904762Y-94274819D01*
X116904762Y-94274819D02*
X117095238Y-94274819D01*
X117095238Y-94274819D02*
X117190476Y-94322438D01*
X117190476Y-94322438D02*
X117238095Y-94370057D01*
X117238095Y-94370057D02*
X117285714Y-94465295D01*
X117285714Y-94465295D02*
X117285714Y-94512914D01*
X117285714Y-94512914D02*
X117238095Y-94608152D01*
X117238095Y-94608152D02*
X117190476Y-94655771D01*
X117190476Y-94655771D02*
X117095238Y-94703390D01*
X117095238Y-94703390D02*
X116904762Y-94703390D01*
X116904762Y-94703390D02*
X116809524Y-94751009D01*
X116809524Y-94751009D02*
X116761905Y-94798628D01*
X116761905Y-94798628D02*
X116714286Y-94893866D01*
X116714286Y-94893866D02*
X116714286Y-95084342D01*
X116714286Y-95084342D02*
X116761905Y-95179580D01*
X116761905Y-95179580D02*
X116809524Y-95227200D01*
X116809524Y-95227200D02*
X116904762Y-95274819D01*
X116904762Y-95274819D02*
X117095238Y-95274819D01*
X117095238Y-95274819D02*
X117190476Y-95227200D01*
X117190476Y-95227200D02*
X117238095Y-95179580D01*
X117238095Y-95179580D02*
X117285714Y-95084342D01*
X117285714Y-95084342D02*
X117285714Y-94893866D01*
X117285714Y-94893866D02*
X117238095Y-94798628D01*
X117238095Y-94798628D02*
X117190476Y-94751009D01*
X117190476Y-94751009D02*
X117095238Y-94703390D01*
X138679580Y-99166666D02*
X138727200Y-99214285D01*
X138727200Y-99214285D02*
X138774819Y-99357142D01*
X138774819Y-99357142D02*
X138774819Y-99452380D01*
X138774819Y-99452380D02*
X138727200Y-99595237D01*
X138727200Y-99595237D02*
X138631961Y-99690475D01*
X138631961Y-99690475D02*
X138536723Y-99738094D01*
X138536723Y-99738094D02*
X138346247Y-99785713D01*
X138346247Y-99785713D02*
X138203390Y-99785713D01*
X138203390Y-99785713D02*
X138012914Y-99738094D01*
X138012914Y-99738094D02*
X137917676Y-99690475D01*
X137917676Y-99690475D02*
X137822438Y-99595237D01*
X137822438Y-99595237D02*
X137774819Y-99452380D01*
X137774819Y-99452380D02*
X137774819Y-99357142D01*
X137774819Y-99357142D02*
X137822438Y-99214285D01*
X137822438Y-99214285D02*
X137870057Y-99166666D01*
X137870057Y-98785713D02*
X137822438Y-98738094D01*
X137822438Y-98738094D02*
X137774819Y-98642856D01*
X137774819Y-98642856D02*
X137774819Y-98404761D01*
X137774819Y-98404761D02*
X137822438Y-98309523D01*
X137822438Y-98309523D02*
X137870057Y-98261904D01*
X137870057Y-98261904D02*
X137965295Y-98214285D01*
X137965295Y-98214285D02*
X138060533Y-98214285D01*
X138060533Y-98214285D02*
X138203390Y-98261904D01*
X138203390Y-98261904D02*
X138774819Y-98833332D01*
X138774819Y-98833332D02*
X138774819Y-98214285D01*
X126604819Y-108166666D02*
X126128628Y-108499999D01*
X126604819Y-108738094D02*
X125604819Y-108738094D01*
X125604819Y-108738094D02*
X125604819Y-108357142D01*
X125604819Y-108357142D02*
X125652438Y-108261904D01*
X125652438Y-108261904D02*
X125700057Y-108214285D01*
X125700057Y-108214285D02*
X125795295Y-108166666D01*
X125795295Y-108166666D02*
X125938152Y-108166666D01*
X125938152Y-108166666D02*
X126033390Y-108214285D01*
X126033390Y-108214285D02*
X126081009Y-108261904D01*
X126081009Y-108261904D02*
X126128628Y-108357142D01*
X126128628Y-108357142D02*
X126128628Y-108738094D01*
X126604819Y-107690475D02*
X126604819Y-107499999D01*
X126604819Y-107499999D02*
X126557200Y-107404761D01*
X126557200Y-107404761D02*
X126509580Y-107357142D01*
X126509580Y-107357142D02*
X126366723Y-107261904D01*
X126366723Y-107261904D02*
X126176247Y-107214285D01*
X126176247Y-107214285D02*
X125795295Y-107214285D01*
X125795295Y-107214285D02*
X125700057Y-107261904D01*
X125700057Y-107261904D02*
X125652438Y-107309523D01*
X125652438Y-107309523D02*
X125604819Y-107404761D01*
X125604819Y-107404761D02*
X125604819Y-107595237D01*
X125604819Y-107595237D02*
X125652438Y-107690475D01*
X125652438Y-107690475D02*
X125700057Y-107738094D01*
X125700057Y-107738094D02*
X125795295Y-107785713D01*
X125795295Y-107785713D02*
X126033390Y-107785713D01*
X126033390Y-107785713D02*
X126128628Y-107738094D01*
X126128628Y-107738094D02*
X126176247Y-107690475D01*
X126176247Y-107690475D02*
X126223866Y-107595237D01*
X126223866Y-107595237D02*
X126223866Y-107404761D01*
X126223866Y-107404761D02*
X126176247Y-107309523D01*
X126176247Y-107309523D02*
X126128628Y-107261904D01*
X126128628Y-107261904D02*
X126033390Y-107214285D01*
X115854819Y-93791666D02*
X115854819Y-94267856D01*
X115854819Y-94267856D02*
X114854819Y-94267856D01*
X115854819Y-92934523D02*
X115854819Y-93505951D01*
X115854819Y-93220237D02*
X114854819Y-93220237D01*
X114854819Y-93220237D02*
X114997676Y-93315475D01*
X114997676Y-93315475D02*
X115092914Y-93410713D01*
X115092914Y-93410713D02*
X115140533Y-93505951D01*
X140104819Y-108029166D02*
X139628628Y-108362499D01*
X140104819Y-108600594D02*
X139104819Y-108600594D01*
X139104819Y-108600594D02*
X139104819Y-108219642D01*
X139104819Y-108219642D02*
X139152438Y-108124404D01*
X139152438Y-108124404D02*
X139200057Y-108076785D01*
X139200057Y-108076785D02*
X139295295Y-108029166D01*
X139295295Y-108029166D02*
X139438152Y-108029166D01*
X139438152Y-108029166D02*
X139533390Y-108076785D01*
X139533390Y-108076785D02*
X139581009Y-108124404D01*
X139581009Y-108124404D02*
X139628628Y-108219642D01*
X139628628Y-108219642D02*
X139628628Y-108600594D01*
X139104819Y-107172023D02*
X139104819Y-107362499D01*
X139104819Y-107362499D02*
X139152438Y-107457737D01*
X139152438Y-107457737D02*
X139200057Y-107505356D01*
X139200057Y-107505356D02*
X139342914Y-107600594D01*
X139342914Y-107600594D02*
X139533390Y-107648213D01*
X139533390Y-107648213D02*
X139914342Y-107648213D01*
X139914342Y-107648213D02*
X140009580Y-107600594D01*
X140009580Y-107600594D02*
X140057200Y-107552975D01*
X140057200Y-107552975D02*
X140104819Y-107457737D01*
X140104819Y-107457737D02*
X140104819Y-107267261D01*
X140104819Y-107267261D02*
X140057200Y-107172023D01*
X140057200Y-107172023D02*
X140009580Y-107124404D01*
X140009580Y-107124404D02*
X139914342Y-107076785D01*
X139914342Y-107076785D02*
X139676247Y-107076785D01*
X139676247Y-107076785D02*
X139581009Y-107124404D01*
X139581009Y-107124404D02*
X139533390Y-107172023D01*
X139533390Y-107172023D02*
X139485771Y-107267261D01*
X139485771Y-107267261D02*
X139485771Y-107457737D01*
X139485771Y-107457737D02*
X139533390Y-107552975D01*
X139533390Y-107552975D02*
X139581009Y-107600594D01*
X139581009Y-107600594D02*
X139676247Y-107648213D01*
X152716666Y-88454819D02*
X152716666Y-89169104D01*
X152716666Y-89169104D02*
X152669047Y-89311961D01*
X152669047Y-89311961D02*
X152573809Y-89407200D01*
X152573809Y-89407200D02*
X152430952Y-89454819D01*
X152430952Y-89454819D02*
X152335714Y-89454819D01*
X153192857Y-89454819D02*
X153192857Y-88454819D01*
X153192857Y-88454819D02*
X153573809Y-88454819D01*
X153573809Y-88454819D02*
X153669047Y-88502438D01*
X153669047Y-88502438D02*
X153716666Y-88550057D01*
X153716666Y-88550057D02*
X153764285Y-88645295D01*
X153764285Y-88645295D02*
X153764285Y-88788152D01*
X153764285Y-88788152D02*
X153716666Y-88883390D01*
X153716666Y-88883390D02*
X153669047Y-88931009D01*
X153669047Y-88931009D02*
X153573809Y-88978628D01*
X153573809Y-88978628D02*
X153192857Y-88978628D01*
X154716666Y-89454819D02*
X154145238Y-89454819D01*
X154430952Y-89454819D02*
X154430952Y-88454819D01*
X154430952Y-88454819D02*
X154335714Y-88597676D01*
X154335714Y-88597676D02*
X154240476Y-88692914D01*
X154240476Y-88692914D02*
X154145238Y-88740533D01*
X125357142Y-97104819D02*
X125023809Y-96628628D01*
X124785714Y-97104819D02*
X124785714Y-96104819D01*
X124785714Y-96104819D02*
X125166666Y-96104819D01*
X125166666Y-96104819D02*
X125261904Y-96152438D01*
X125261904Y-96152438D02*
X125309523Y-96200057D01*
X125309523Y-96200057D02*
X125357142Y-96295295D01*
X125357142Y-96295295D02*
X125357142Y-96438152D01*
X125357142Y-96438152D02*
X125309523Y-96533390D01*
X125309523Y-96533390D02*
X125261904Y-96581009D01*
X125261904Y-96581009D02*
X125166666Y-96628628D01*
X125166666Y-96628628D02*
X124785714Y-96628628D01*
X126309523Y-97104819D02*
X125738095Y-97104819D01*
X126023809Y-97104819D02*
X126023809Y-96104819D01*
X126023809Y-96104819D02*
X125928571Y-96247676D01*
X125928571Y-96247676D02*
X125833333Y-96342914D01*
X125833333Y-96342914D02*
X125738095Y-96390533D01*
X127261904Y-97104819D02*
X126690476Y-97104819D01*
X126976190Y-97104819D02*
X126976190Y-96104819D01*
X126976190Y-96104819D02*
X126880952Y-96247676D01*
X126880952Y-96247676D02*
X126785714Y-96342914D01*
X126785714Y-96342914D02*
X126690476Y-96390533D01*
X134539580Y-71642857D02*
X134587200Y-71690476D01*
X134587200Y-71690476D02*
X134634819Y-71833333D01*
X134634819Y-71833333D02*
X134634819Y-71928571D01*
X134634819Y-71928571D02*
X134587200Y-72071428D01*
X134587200Y-72071428D02*
X134491961Y-72166666D01*
X134491961Y-72166666D02*
X134396723Y-72214285D01*
X134396723Y-72214285D02*
X134206247Y-72261904D01*
X134206247Y-72261904D02*
X134063390Y-72261904D01*
X134063390Y-72261904D02*
X133872914Y-72214285D01*
X133872914Y-72214285D02*
X133777676Y-72166666D01*
X133777676Y-72166666D02*
X133682438Y-72071428D01*
X133682438Y-72071428D02*
X133634819Y-71928571D01*
X133634819Y-71928571D02*
X133634819Y-71833333D01*
X133634819Y-71833333D02*
X133682438Y-71690476D01*
X133682438Y-71690476D02*
X133730057Y-71642857D01*
X134634819Y-70690476D02*
X134634819Y-71261904D01*
X134634819Y-70976190D02*
X133634819Y-70976190D01*
X133634819Y-70976190D02*
X133777676Y-71071428D01*
X133777676Y-71071428D02*
X133872914Y-71166666D01*
X133872914Y-71166666D02*
X133920533Y-71261904D01*
X133634819Y-70071428D02*
X133634819Y-69976190D01*
X133634819Y-69976190D02*
X133682438Y-69880952D01*
X133682438Y-69880952D02*
X133730057Y-69833333D01*
X133730057Y-69833333D02*
X133825295Y-69785714D01*
X133825295Y-69785714D02*
X134015771Y-69738095D01*
X134015771Y-69738095D02*
X134253866Y-69738095D01*
X134253866Y-69738095D02*
X134444342Y-69785714D01*
X134444342Y-69785714D02*
X134539580Y-69833333D01*
X134539580Y-69833333D02*
X134587200Y-69880952D01*
X134587200Y-69880952D02*
X134634819Y-69976190D01*
X134634819Y-69976190D02*
X134634819Y-70071428D01*
X134634819Y-70071428D02*
X134587200Y-70166666D01*
X134587200Y-70166666D02*
X134539580Y-70214285D01*
X134539580Y-70214285D02*
X134444342Y-70261904D01*
X134444342Y-70261904D02*
X134253866Y-70309523D01*
X134253866Y-70309523D02*
X134015771Y-70309523D01*
X134015771Y-70309523D02*
X133825295Y-70261904D01*
X133825295Y-70261904D02*
X133730057Y-70214285D01*
X133730057Y-70214285D02*
X133682438Y-70166666D01*
X133682438Y-70166666D02*
X133634819Y-70071428D01*
X107849819Y-106794523D02*
X106849819Y-106794523D01*
X106849819Y-106794523D02*
X107564104Y-106461190D01*
X107564104Y-106461190D02*
X106849819Y-106127857D01*
X106849819Y-106127857D02*
X107849819Y-106127857D01*
X107849819Y-105127857D02*
X107849819Y-105699285D01*
X107849819Y-105413571D02*
X106849819Y-105413571D01*
X106849819Y-105413571D02*
X106992676Y-105508809D01*
X106992676Y-105508809D02*
X107087914Y-105604047D01*
X107087914Y-105604047D02*
X107135533Y-105699285D01*
X114579819Y-78642857D02*
X114103628Y-78976190D01*
X114579819Y-79214285D02*
X113579819Y-79214285D01*
X113579819Y-79214285D02*
X113579819Y-78833333D01*
X113579819Y-78833333D02*
X113627438Y-78738095D01*
X113627438Y-78738095D02*
X113675057Y-78690476D01*
X113675057Y-78690476D02*
X113770295Y-78642857D01*
X113770295Y-78642857D02*
X113913152Y-78642857D01*
X113913152Y-78642857D02*
X114008390Y-78690476D01*
X114008390Y-78690476D02*
X114056009Y-78738095D01*
X114056009Y-78738095D02*
X114103628Y-78833333D01*
X114103628Y-78833333D02*
X114103628Y-79214285D01*
X114579819Y-77690476D02*
X114579819Y-78261904D01*
X114579819Y-77976190D02*
X113579819Y-77976190D01*
X113579819Y-77976190D02*
X113722676Y-78071428D01*
X113722676Y-78071428D02*
X113817914Y-78166666D01*
X113817914Y-78166666D02*
X113865533Y-78261904D01*
X113579819Y-76785714D02*
X113579819Y-77261904D01*
X113579819Y-77261904D02*
X114056009Y-77309523D01*
X114056009Y-77309523D02*
X114008390Y-77261904D01*
X114008390Y-77261904D02*
X113960771Y-77166666D01*
X113960771Y-77166666D02*
X113960771Y-76928571D01*
X113960771Y-76928571D02*
X114008390Y-76833333D01*
X114008390Y-76833333D02*
X114056009Y-76785714D01*
X114056009Y-76785714D02*
X114151247Y-76738095D01*
X114151247Y-76738095D02*
X114389342Y-76738095D01*
X114389342Y-76738095D02*
X114484580Y-76785714D01*
X114484580Y-76785714D02*
X114532200Y-76833333D01*
X114532200Y-76833333D02*
X114579819Y-76928571D01*
X114579819Y-76928571D02*
X114579819Y-77166666D01*
X114579819Y-77166666D02*
X114532200Y-77261904D01*
X114532200Y-77261904D02*
X114484580Y-77309523D01*
X159166666Y-82859819D02*
X159166666Y-83574104D01*
X159166666Y-83574104D02*
X159119047Y-83716961D01*
X159119047Y-83716961D02*
X159023809Y-83812200D01*
X159023809Y-83812200D02*
X158880952Y-83859819D01*
X158880952Y-83859819D02*
X158785714Y-83859819D01*
X160071428Y-83193152D02*
X160071428Y-83859819D01*
X159833333Y-82812200D02*
X159595238Y-83526485D01*
X159595238Y-83526485D02*
X160214285Y-83526485D01*
X137450057Y-103957738D02*
X137402438Y-104052976D01*
X137402438Y-104052976D02*
X137307200Y-104148214D01*
X137307200Y-104148214D02*
X137164342Y-104291071D01*
X137164342Y-104291071D02*
X137116723Y-104386309D01*
X137116723Y-104386309D02*
X137116723Y-104481547D01*
X137354819Y-104433928D02*
X137307200Y-104529166D01*
X137307200Y-104529166D02*
X137211961Y-104624404D01*
X137211961Y-104624404D02*
X137021485Y-104672023D01*
X137021485Y-104672023D02*
X136688152Y-104672023D01*
X136688152Y-104672023D02*
X136497676Y-104624404D01*
X136497676Y-104624404D02*
X136402438Y-104529166D01*
X136402438Y-104529166D02*
X136354819Y-104433928D01*
X136354819Y-104433928D02*
X136354819Y-104243452D01*
X136354819Y-104243452D02*
X136402438Y-104148214D01*
X136402438Y-104148214D02*
X136497676Y-104052976D01*
X136497676Y-104052976D02*
X136688152Y-104005357D01*
X136688152Y-104005357D02*
X137021485Y-104005357D01*
X137021485Y-104005357D02*
X137211961Y-104052976D01*
X137211961Y-104052976D02*
X137307200Y-104148214D01*
X137307200Y-104148214D02*
X137354819Y-104243452D01*
X137354819Y-104243452D02*
X137354819Y-104433928D01*
X136688152Y-103148214D02*
X137354819Y-103148214D01*
X136307200Y-103386309D02*
X137021485Y-103624404D01*
X137021485Y-103624404D02*
X137021485Y-103005357D01*
X140950057Y-103957738D02*
X140902438Y-104052976D01*
X140902438Y-104052976D02*
X140807200Y-104148214D01*
X140807200Y-104148214D02*
X140664342Y-104291071D01*
X140664342Y-104291071D02*
X140616723Y-104386309D01*
X140616723Y-104386309D02*
X140616723Y-104481547D01*
X140854819Y-104433928D02*
X140807200Y-104529166D01*
X140807200Y-104529166D02*
X140711961Y-104624404D01*
X140711961Y-104624404D02*
X140521485Y-104672023D01*
X140521485Y-104672023D02*
X140188152Y-104672023D01*
X140188152Y-104672023D02*
X139997676Y-104624404D01*
X139997676Y-104624404D02*
X139902438Y-104529166D01*
X139902438Y-104529166D02*
X139854819Y-104433928D01*
X139854819Y-104433928D02*
X139854819Y-104243452D01*
X139854819Y-104243452D02*
X139902438Y-104148214D01*
X139902438Y-104148214D02*
X139997676Y-104052976D01*
X139997676Y-104052976D02*
X140188152Y-104005357D01*
X140188152Y-104005357D02*
X140521485Y-104005357D01*
X140521485Y-104005357D02*
X140711961Y-104052976D01*
X140711961Y-104052976D02*
X140807200Y-104148214D01*
X140807200Y-104148214D02*
X140854819Y-104243452D01*
X140854819Y-104243452D02*
X140854819Y-104433928D01*
X139950057Y-103624404D02*
X139902438Y-103576785D01*
X139902438Y-103576785D02*
X139854819Y-103481547D01*
X139854819Y-103481547D02*
X139854819Y-103243452D01*
X139854819Y-103243452D02*
X139902438Y-103148214D01*
X139902438Y-103148214D02*
X139950057Y-103100595D01*
X139950057Y-103100595D02*
X140045295Y-103052976D01*
X140045295Y-103052976D02*
X140140533Y-103052976D01*
X140140533Y-103052976D02*
X140283390Y-103100595D01*
X140283390Y-103100595D02*
X140854819Y-103672023D01*
X140854819Y-103672023D02*
X140854819Y-103052976D01*
X155333333Y-82804819D02*
X155000000Y-82328628D01*
X154761905Y-82804819D02*
X154761905Y-81804819D01*
X154761905Y-81804819D02*
X155142857Y-81804819D01*
X155142857Y-81804819D02*
X155238095Y-81852438D01*
X155238095Y-81852438D02*
X155285714Y-81900057D01*
X155285714Y-81900057D02*
X155333333Y-81995295D01*
X155333333Y-81995295D02*
X155333333Y-82138152D01*
X155333333Y-82138152D02*
X155285714Y-82233390D01*
X155285714Y-82233390D02*
X155238095Y-82281009D01*
X155238095Y-82281009D02*
X155142857Y-82328628D01*
X155142857Y-82328628D02*
X154761905Y-82328628D01*
X155666667Y-81804819D02*
X156285714Y-81804819D01*
X156285714Y-81804819D02*
X155952381Y-82185771D01*
X155952381Y-82185771D02*
X156095238Y-82185771D01*
X156095238Y-82185771D02*
X156190476Y-82233390D01*
X156190476Y-82233390D02*
X156238095Y-82281009D01*
X156238095Y-82281009D02*
X156285714Y-82376247D01*
X156285714Y-82376247D02*
X156285714Y-82614342D01*
X156285714Y-82614342D02*
X156238095Y-82709580D01*
X156238095Y-82709580D02*
X156190476Y-82757200D01*
X156190476Y-82757200D02*
X156095238Y-82804819D01*
X156095238Y-82804819D02*
X155809524Y-82804819D01*
X155809524Y-82804819D02*
X155714286Y-82757200D01*
X155714286Y-82757200D02*
X155666667Y-82709580D01*
X125666666Y-79154819D02*
X125666666Y-79869104D01*
X125666666Y-79869104D02*
X125619047Y-80011961D01*
X125619047Y-80011961D02*
X125523809Y-80107200D01*
X125523809Y-80107200D02*
X125380952Y-80154819D01*
X125380952Y-80154819D02*
X125285714Y-80154819D01*
X126142857Y-80154819D02*
X126142857Y-79154819D01*
X126142857Y-79154819D02*
X126523809Y-79154819D01*
X126523809Y-79154819D02*
X126619047Y-79202438D01*
X126619047Y-79202438D02*
X126666666Y-79250057D01*
X126666666Y-79250057D02*
X126714285Y-79345295D01*
X126714285Y-79345295D02*
X126714285Y-79488152D01*
X126714285Y-79488152D02*
X126666666Y-79583390D01*
X126666666Y-79583390D02*
X126619047Y-79631009D01*
X126619047Y-79631009D02*
X126523809Y-79678628D01*
X126523809Y-79678628D02*
X126142857Y-79678628D01*
X127047619Y-79154819D02*
X127666666Y-79154819D01*
X127666666Y-79154819D02*
X127333333Y-79535771D01*
X127333333Y-79535771D02*
X127476190Y-79535771D01*
X127476190Y-79535771D02*
X127571428Y-79583390D01*
X127571428Y-79583390D02*
X127619047Y-79631009D01*
X127619047Y-79631009D02*
X127666666Y-79726247D01*
X127666666Y-79726247D02*
X127666666Y-79964342D01*
X127666666Y-79964342D02*
X127619047Y-80059580D01*
X127619047Y-80059580D02*
X127571428Y-80107200D01*
X127571428Y-80107200D02*
X127476190Y-80154819D01*
X127476190Y-80154819D02*
X127190476Y-80154819D01*
X127190476Y-80154819D02*
X127095238Y-80107200D01*
X127095238Y-80107200D02*
X127047619Y-80059580D01*
X130357142Y-76039580D02*
X130309523Y-76087200D01*
X130309523Y-76087200D02*
X130166666Y-76134819D01*
X130166666Y-76134819D02*
X130071428Y-76134819D01*
X130071428Y-76134819D02*
X129928571Y-76087200D01*
X129928571Y-76087200D02*
X129833333Y-75991961D01*
X129833333Y-75991961D02*
X129785714Y-75896723D01*
X129785714Y-75896723D02*
X129738095Y-75706247D01*
X129738095Y-75706247D02*
X129738095Y-75563390D01*
X129738095Y-75563390D02*
X129785714Y-75372914D01*
X129785714Y-75372914D02*
X129833333Y-75277676D01*
X129833333Y-75277676D02*
X129928571Y-75182438D01*
X129928571Y-75182438D02*
X130071428Y-75134819D01*
X130071428Y-75134819D02*
X130166666Y-75134819D01*
X130166666Y-75134819D02*
X130309523Y-75182438D01*
X130309523Y-75182438D02*
X130357142Y-75230057D01*
X131309523Y-76134819D02*
X130738095Y-76134819D01*
X131023809Y-76134819D02*
X131023809Y-75134819D01*
X131023809Y-75134819D02*
X130928571Y-75277676D01*
X130928571Y-75277676D02*
X130833333Y-75372914D01*
X130833333Y-75372914D02*
X130738095Y-75420533D01*
X131690476Y-75230057D02*
X131738095Y-75182438D01*
X131738095Y-75182438D02*
X131833333Y-75134819D01*
X131833333Y-75134819D02*
X132071428Y-75134819D01*
X132071428Y-75134819D02*
X132166666Y-75182438D01*
X132166666Y-75182438D02*
X132214285Y-75230057D01*
X132214285Y-75230057D02*
X132261904Y-75325295D01*
X132261904Y-75325295D02*
X132261904Y-75420533D01*
X132261904Y-75420533D02*
X132214285Y-75563390D01*
X132214285Y-75563390D02*
X131642857Y-76134819D01*
X131642857Y-76134819D02*
X132261904Y-76134819D01*
X119879819Y-78642857D02*
X119403628Y-78976190D01*
X119879819Y-79214285D02*
X118879819Y-79214285D01*
X118879819Y-79214285D02*
X118879819Y-78833333D01*
X118879819Y-78833333D02*
X118927438Y-78738095D01*
X118927438Y-78738095D02*
X118975057Y-78690476D01*
X118975057Y-78690476D02*
X119070295Y-78642857D01*
X119070295Y-78642857D02*
X119213152Y-78642857D01*
X119213152Y-78642857D02*
X119308390Y-78690476D01*
X119308390Y-78690476D02*
X119356009Y-78738095D01*
X119356009Y-78738095D02*
X119403628Y-78833333D01*
X119403628Y-78833333D02*
X119403628Y-79214285D01*
X119879819Y-77690476D02*
X119879819Y-78261904D01*
X119879819Y-77976190D02*
X118879819Y-77976190D01*
X118879819Y-77976190D02*
X119022676Y-78071428D01*
X119022676Y-78071428D02*
X119117914Y-78166666D01*
X119117914Y-78166666D02*
X119165533Y-78261904D01*
X118879819Y-77357142D02*
X118879819Y-76690476D01*
X118879819Y-76690476D02*
X119879819Y-77119047D01*
X143604819Y-108029166D02*
X143128628Y-108362499D01*
X143604819Y-108600594D02*
X142604819Y-108600594D01*
X142604819Y-108600594D02*
X142604819Y-108219642D01*
X142604819Y-108219642D02*
X142652438Y-108124404D01*
X142652438Y-108124404D02*
X142700057Y-108076785D01*
X142700057Y-108076785D02*
X142795295Y-108029166D01*
X142795295Y-108029166D02*
X142938152Y-108029166D01*
X142938152Y-108029166D02*
X143033390Y-108076785D01*
X143033390Y-108076785D02*
X143081009Y-108124404D01*
X143081009Y-108124404D02*
X143128628Y-108219642D01*
X143128628Y-108219642D02*
X143128628Y-108600594D01*
X142938152Y-107172023D02*
X143604819Y-107172023D01*
X142557200Y-107410118D02*
X143271485Y-107648213D01*
X143271485Y-107648213D02*
X143271485Y-107029166D01*
X119879819Y-74642857D02*
X119403628Y-74976190D01*
X119879819Y-75214285D02*
X118879819Y-75214285D01*
X118879819Y-75214285D02*
X118879819Y-74833333D01*
X118879819Y-74833333D02*
X118927438Y-74738095D01*
X118927438Y-74738095D02*
X118975057Y-74690476D01*
X118975057Y-74690476D02*
X119070295Y-74642857D01*
X119070295Y-74642857D02*
X119213152Y-74642857D01*
X119213152Y-74642857D02*
X119308390Y-74690476D01*
X119308390Y-74690476D02*
X119356009Y-74738095D01*
X119356009Y-74738095D02*
X119403628Y-74833333D01*
X119403628Y-74833333D02*
X119403628Y-75214285D01*
X119879819Y-73690476D02*
X119879819Y-74261904D01*
X119879819Y-73976190D02*
X118879819Y-73976190D01*
X118879819Y-73976190D02*
X119022676Y-74071428D01*
X119022676Y-74071428D02*
X119117914Y-74166666D01*
X119117914Y-74166666D02*
X119165533Y-74261904D01*
X118879819Y-72833333D02*
X118879819Y-73023809D01*
X118879819Y-73023809D02*
X118927438Y-73119047D01*
X118927438Y-73119047D02*
X118975057Y-73166666D01*
X118975057Y-73166666D02*
X119117914Y-73261904D01*
X119117914Y-73261904D02*
X119308390Y-73309523D01*
X119308390Y-73309523D02*
X119689342Y-73309523D01*
X119689342Y-73309523D02*
X119784580Y-73261904D01*
X119784580Y-73261904D02*
X119832200Y-73214285D01*
X119832200Y-73214285D02*
X119879819Y-73119047D01*
X119879819Y-73119047D02*
X119879819Y-72928571D01*
X119879819Y-72928571D02*
X119832200Y-72833333D01*
X119832200Y-72833333D02*
X119784580Y-72785714D01*
X119784580Y-72785714D02*
X119689342Y-72738095D01*
X119689342Y-72738095D02*
X119451247Y-72738095D01*
X119451247Y-72738095D02*
X119356009Y-72785714D01*
X119356009Y-72785714D02*
X119308390Y-72833333D01*
X119308390Y-72833333D02*
X119260771Y-72928571D01*
X119260771Y-72928571D02*
X119260771Y-73119047D01*
X119260771Y-73119047D02*
X119308390Y-73214285D01*
X119308390Y-73214285D02*
X119356009Y-73261904D01*
X119356009Y-73261904D02*
X119451247Y-73309523D01*
X157807200Y-90183332D02*
X157854819Y-90040475D01*
X157854819Y-90040475D02*
X157854819Y-89802380D01*
X157854819Y-89802380D02*
X157807200Y-89707142D01*
X157807200Y-89707142D02*
X157759580Y-89659523D01*
X157759580Y-89659523D02*
X157664342Y-89611904D01*
X157664342Y-89611904D02*
X157569104Y-89611904D01*
X157569104Y-89611904D02*
X157473866Y-89659523D01*
X157473866Y-89659523D02*
X157426247Y-89707142D01*
X157426247Y-89707142D02*
X157378628Y-89802380D01*
X157378628Y-89802380D02*
X157331009Y-89992856D01*
X157331009Y-89992856D02*
X157283390Y-90088094D01*
X157283390Y-90088094D02*
X157235771Y-90135713D01*
X157235771Y-90135713D02*
X157140533Y-90183332D01*
X157140533Y-90183332D02*
X157045295Y-90183332D01*
X157045295Y-90183332D02*
X156950057Y-90135713D01*
X156950057Y-90135713D02*
X156902438Y-90088094D01*
X156902438Y-90088094D02*
X156854819Y-89992856D01*
X156854819Y-89992856D02*
X156854819Y-89754761D01*
X156854819Y-89754761D02*
X156902438Y-89611904D01*
X156854819Y-89278570D02*
X157854819Y-89040475D01*
X157854819Y-89040475D02*
X157140533Y-88849999D01*
X157140533Y-88849999D02*
X157854819Y-88659523D01*
X157854819Y-88659523D02*
X156854819Y-88421428D01*
X156950057Y-88088094D02*
X156902438Y-88040475D01*
X156902438Y-88040475D02*
X156854819Y-87945237D01*
X156854819Y-87945237D02*
X156854819Y-87707142D01*
X156854819Y-87707142D02*
X156902438Y-87611904D01*
X156902438Y-87611904D02*
X156950057Y-87564285D01*
X156950057Y-87564285D02*
X157045295Y-87516666D01*
X157045295Y-87516666D02*
X157140533Y-87516666D01*
X157140533Y-87516666D02*
X157283390Y-87564285D01*
X157283390Y-87564285D02*
X157854819Y-88135713D01*
X157854819Y-88135713D02*
X157854819Y-87516666D01*
X148604819Y-95166666D02*
X148128628Y-95499999D01*
X148604819Y-95738094D02*
X147604819Y-95738094D01*
X147604819Y-95738094D02*
X147604819Y-95357142D01*
X147604819Y-95357142D02*
X147652438Y-95261904D01*
X147652438Y-95261904D02*
X147700057Y-95214285D01*
X147700057Y-95214285D02*
X147795295Y-95166666D01*
X147795295Y-95166666D02*
X147938152Y-95166666D01*
X147938152Y-95166666D02*
X148033390Y-95214285D01*
X148033390Y-95214285D02*
X148081009Y-95261904D01*
X148081009Y-95261904D02*
X148128628Y-95357142D01*
X148128628Y-95357142D02*
X148128628Y-95738094D01*
X148604819Y-94214285D02*
X148604819Y-94785713D01*
X148604819Y-94499999D02*
X147604819Y-94499999D01*
X147604819Y-94499999D02*
X147747676Y-94595237D01*
X147747676Y-94595237D02*
X147842914Y-94690475D01*
X147842914Y-94690475D02*
X147890533Y-94785713D01*
X100679580Y-84791666D02*
X100727200Y-84839285D01*
X100727200Y-84839285D02*
X100774819Y-84982142D01*
X100774819Y-84982142D02*
X100774819Y-85077380D01*
X100774819Y-85077380D02*
X100727200Y-85220237D01*
X100727200Y-85220237D02*
X100631961Y-85315475D01*
X100631961Y-85315475D02*
X100536723Y-85363094D01*
X100536723Y-85363094D02*
X100346247Y-85410713D01*
X100346247Y-85410713D02*
X100203390Y-85410713D01*
X100203390Y-85410713D02*
X100012914Y-85363094D01*
X100012914Y-85363094D02*
X99917676Y-85315475D01*
X99917676Y-85315475D02*
X99822438Y-85220237D01*
X99822438Y-85220237D02*
X99774819Y-85077380D01*
X99774819Y-85077380D02*
X99774819Y-84982142D01*
X99774819Y-84982142D02*
X99822438Y-84839285D01*
X99822438Y-84839285D02*
X99870057Y-84791666D01*
X99774819Y-84458332D02*
X99774819Y-83791666D01*
X99774819Y-83791666D02*
X100774819Y-84220237D01*
X130166666Y-79049819D02*
X130166666Y-79764104D01*
X130166666Y-79764104D02*
X130119047Y-79906961D01*
X130119047Y-79906961D02*
X130023809Y-80002200D01*
X130023809Y-80002200D02*
X129880952Y-80049819D01*
X129880952Y-80049819D02*
X129785714Y-80049819D01*
X130547619Y-79049819D02*
X131166666Y-79049819D01*
X131166666Y-79049819D02*
X130833333Y-79430771D01*
X130833333Y-79430771D02*
X130976190Y-79430771D01*
X130976190Y-79430771D02*
X131071428Y-79478390D01*
X131071428Y-79478390D02*
X131119047Y-79526009D01*
X131119047Y-79526009D02*
X131166666Y-79621247D01*
X131166666Y-79621247D02*
X131166666Y-79859342D01*
X131166666Y-79859342D02*
X131119047Y-79954580D01*
X131119047Y-79954580D02*
X131071428Y-80002200D01*
X131071428Y-80002200D02*
X130976190Y-80049819D01*
X130976190Y-80049819D02*
X130690476Y-80049819D01*
X130690476Y-80049819D02*
X130595238Y-80002200D01*
X130595238Y-80002200D02*
X130547619Y-79954580D01*
X132104819Y-102642857D02*
X131628628Y-102976190D01*
X132104819Y-103214285D02*
X131104819Y-103214285D01*
X131104819Y-103214285D02*
X131104819Y-102833333D01*
X131104819Y-102833333D02*
X131152438Y-102738095D01*
X131152438Y-102738095D02*
X131200057Y-102690476D01*
X131200057Y-102690476D02*
X131295295Y-102642857D01*
X131295295Y-102642857D02*
X131438152Y-102642857D01*
X131438152Y-102642857D02*
X131533390Y-102690476D01*
X131533390Y-102690476D02*
X131581009Y-102738095D01*
X131581009Y-102738095D02*
X131628628Y-102833333D01*
X131628628Y-102833333D02*
X131628628Y-103214285D01*
X132104819Y-101690476D02*
X132104819Y-102261904D01*
X132104819Y-101976190D02*
X131104819Y-101976190D01*
X131104819Y-101976190D02*
X131247676Y-102071428D01*
X131247676Y-102071428D02*
X131342914Y-102166666D01*
X131342914Y-102166666D02*
X131390533Y-102261904D01*
X131104819Y-101071428D02*
X131104819Y-100976190D01*
X131104819Y-100976190D02*
X131152438Y-100880952D01*
X131152438Y-100880952D02*
X131200057Y-100833333D01*
X131200057Y-100833333D02*
X131295295Y-100785714D01*
X131295295Y-100785714D02*
X131485771Y-100738095D01*
X131485771Y-100738095D02*
X131723866Y-100738095D01*
X131723866Y-100738095D02*
X131914342Y-100785714D01*
X131914342Y-100785714D02*
X132009580Y-100833333D01*
X132009580Y-100833333D02*
X132057200Y-100880952D01*
X132057200Y-100880952D02*
X132104819Y-100976190D01*
X132104819Y-100976190D02*
X132104819Y-101071428D01*
X132104819Y-101071428D02*
X132057200Y-101166666D01*
X132057200Y-101166666D02*
X132009580Y-101214285D01*
X132009580Y-101214285D02*
X131914342Y-101261904D01*
X131914342Y-101261904D02*
X131723866Y-101309523D01*
X131723866Y-101309523D02*
X131485771Y-101309523D01*
X131485771Y-101309523D02*
X131295295Y-101261904D01*
X131295295Y-101261904D02*
X131200057Y-101214285D01*
X131200057Y-101214285D02*
X131152438Y-101166666D01*
X131152438Y-101166666D02*
X131104819Y-101071428D01*
X96333333Y-92334580D02*
X96285714Y-92382200D01*
X96285714Y-92382200D02*
X96142857Y-92429819D01*
X96142857Y-92429819D02*
X96047619Y-92429819D01*
X96047619Y-92429819D02*
X95904762Y-92382200D01*
X95904762Y-92382200D02*
X95809524Y-92286961D01*
X95809524Y-92286961D02*
X95761905Y-92191723D01*
X95761905Y-92191723D02*
X95714286Y-92001247D01*
X95714286Y-92001247D02*
X95714286Y-91858390D01*
X95714286Y-91858390D02*
X95761905Y-91667914D01*
X95761905Y-91667914D02*
X95809524Y-91572676D01*
X95809524Y-91572676D02*
X95904762Y-91477438D01*
X95904762Y-91477438D02*
X96047619Y-91429819D01*
X96047619Y-91429819D02*
X96142857Y-91429819D01*
X96142857Y-91429819D02*
X96285714Y-91477438D01*
X96285714Y-91477438D02*
X96333333Y-91525057D01*
X97190476Y-91763152D02*
X97190476Y-92429819D01*
X96952381Y-91382200D02*
X96714286Y-92096485D01*
X96714286Y-92096485D02*
X97333333Y-92096485D01*
X125666666Y-81654819D02*
X125666666Y-82369104D01*
X125666666Y-82369104D02*
X125619047Y-82511961D01*
X125619047Y-82511961D02*
X125523809Y-82607200D01*
X125523809Y-82607200D02*
X125380952Y-82654819D01*
X125380952Y-82654819D02*
X125285714Y-82654819D01*
X126142857Y-82654819D02*
X126142857Y-81654819D01*
X126142857Y-81654819D02*
X126523809Y-81654819D01*
X126523809Y-81654819D02*
X126619047Y-81702438D01*
X126619047Y-81702438D02*
X126666666Y-81750057D01*
X126666666Y-81750057D02*
X126714285Y-81845295D01*
X126714285Y-81845295D02*
X126714285Y-81988152D01*
X126714285Y-81988152D02*
X126666666Y-82083390D01*
X126666666Y-82083390D02*
X126619047Y-82131009D01*
X126619047Y-82131009D02*
X126523809Y-82178628D01*
X126523809Y-82178628D02*
X126142857Y-82178628D01*
X127571428Y-81988152D02*
X127571428Y-82654819D01*
X127333333Y-81607200D02*
X127095238Y-82321485D01*
X127095238Y-82321485D02*
X127714285Y-82321485D01*
X155166666Y-68324819D02*
X155166666Y-69039104D01*
X155166666Y-69039104D02*
X155119047Y-69181961D01*
X155119047Y-69181961D02*
X155023809Y-69277200D01*
X155023809Y-69277200D02*
X154880952Y-69324819D01*
X154880952Y-69324819D02*
X154785714Y-69324819D01*
X155595238Y-68420057D02*
X155642857Y-68372438D01*
X155642857Y-68372438D02*
X155738095Y-68324819D01*
X155738095Y-68324819D02*
X155976190Y-68324819D01*
X155976190Y-68324819D02*
X156071428Y-68372438D01*
X156071428Y-68372438D02*
X156119047Y-68420057D01*
X156119047Y-68420057D02*
X156166666Y-68515295D01*
X156166666Y-68515295D02*
X156166666Y-68610533D01*
X156166666Y-68610533D02*
X156119047Y-68753390D01*
X156119047Y-68753390D02*
X155547619Y-69324819D01*
X155547619Y-69324819D02*
X156166666Y-69324819D01*
X122054819Y-102761904D02*
X122864342Y-102761904D01*
X122864342Y-102761904D02*
X122959580Y-102714285D01*
X122959580Y-102714285D02*
X123007200Y-102666666D01*
X123007200Y-102666666D02*
X123054819Y-102571428D01*
X123054819Y-102571428D02*
X123054819Y-102380952D01*
X123054819Y-102380952D02*
X123007200Y-102285714D01*
X123007200Y-102285714D02*
X122959580Y-102238095D01*
X122959580Y-102238095D02*
X122864342Y-102190476D01*
X122864342Y-102190476D02*
X122054819Y-102190476D01*
X122150057Y-101761904D02*
X122102438Y-101714285D01*
X122102438Y-101714285D02*
X122054819Y-101619047D01*
X122054819Y-101619047D02*
X122054819Y-101380952D01*
X122054819Y-101380952D02*
X122102438Y-101285714D01*
X122102438Y-101285714D02*
X122150057Y-101238095D01*
X122150057Y-101238095D02*
X122245295Y-101190476D01*
X122245295Y-101190476D02*
X122340533Y-101190476D01*
X122340533Y-101190476D02*
X122483390Y-101238095D01*
X122483390Y-101238095D02*
X123054819Y-101809523D01*
X123054819Y-101809523D02*
X123054819Y-101190476D01*
X126007200Y-75983332D02*
X126054819Y-75840475D01*
X126054819Y-75840475D02*
X126054819Y-75602380D01*
X126054819Y-75602380D02*
X126007200Y-75507142D01*
X126007200Y-75507142D02*
X125959580Y-75459523D01*
X125959580Y-75459523D02*
X125864342Y-75411904D01*
X125864342Y-75411904D02*
X125769104Y-75411904D01*
X125769104Y-75411904D02*
X125673866Y-75459523D01*
X125673866Y-75459523D02*
X125626247Y-75507142D01*
X125626247Y-75507142D02*
X125578628Y-75602380D01*
X125578628Y-75602380D02*
X125531009Y-75792856D01*
X125531009Y-75792856D02*
X125483390Y-75888094D01*
X125483390Y-75888094D02*
X125435771Y-75935713D01*
X125435771Y-75935713D02*
X125340533Y-75983332D01*
X125340533Y-75983332D02*
X125245295Y-75983332D01*
X125245295Y-75983332D02*
X125150057Y-75935713D01*
X125150057Y-75935713D02*
X125102438Y-75888094D01*
X125102438Y-75888094D02*
X125054819Y-75792856D01*
X125054819Y-75792856D02*
X125054819Y-75554761D01*
X125054819Y-75554761D02*
X125102438Y-75411904D01*
X125054819Y-75078570D02*
X126054819Y-74840475D01*
X126054819Y-74840475D02*
X125340533Y-74649999D01*
X125340533Y-74649999D02*
X126054819Y-74459523D01*
X126054819Y-74459523D02*
X125054819Y-74221428D01*
X126054819Y-73316666D02*
X126054819Y-73888094D01*
X126054819Y-73602380D02*
X125054819Y-73602380D01*
X125054819Y-73602380D02*
X125197676Y-73697618D01*
X125197676Y-73697618D02*
X125292914Y-73792856D01*
X125292914Y-73792856D02*
X125340533Y-73888094D01*
X159432142Y-83679580D02*
X159384523Y-83727200D01*
X159384523Y-83727200D02*
X159241666Y-83774819D01*
X159241666Y-83774819D02*
X159146428Y-83774819D01*
X159146428Y-83774819D02*
X159003571Y-83727200D01*
X159003571Y-83727200D02*
X158908333Y-83631961D01*
X158908333Y-83631961D02*
X158860714Y-83536723D01*
X158860714Y-83536723D02*
X158813095Y-83346247D01*
X158813095Y-83346247D02*
X158813095Y-83203390D01*
X158813095Y-83203390D02*
X158860714Y-83012914D01*
X158860714Y-83012914D02*
X158908333Y-82917676D01*
X158908333Y-82917676D02*
X159003571Y-82822438D01*
X159003571Y-82822438D02*
X159146428Y-82774819D01*
X159146428Y-82774819D02*
X159241666Y-82774819D01*
X159241666Y-82774819D02*
X159384523Y-82822438D01*
X159384523Y-82822438D02*
X159432142Y-82870057D01*
X160384523Y-83774819D02*
X159813095Y-83774819D01*
X160098809Y-83774819D02*
X160098809Y-82774819D01*
X160098809Y-82774819D02*
X160003571Y-82917676D01*
X160003571Y-82917676D02*
X159908333Y-83012914D01*
X159908333Y-83012914D02*
X159813095Y-83060533D01*
X161241666Y-83108152D02*
X161241666Y-83774819D01*
X161003571Y-82727200D02*
X160765476Y-83441485D01*
X160765476Y-83441485D02*
X161384523Y-83441485D01*
X133904761Y-99950057D02*
X133809523Y-99902438D01*
X133809523Y-99902438D02*
X133714285Y-99807200D01*
X133714285Y-99807200D02*
X133571428Y-99664342D01*
X133571428Y-99664342D02*
X133476190Y-99616723D01*
X133476190Y-99616723D02*
X133380952Y-99616723D01*
X133428571Y-99854819D02*
X133333333Y-99807200D01*
X133333333Y-99807200D02*
X133238095Y-99711961D01*
X133238095Y-99711961D02*
X133190476Y-99521485D01*
X133190476Y-99521485D02*
X133190476Y-99188152D01*
X133190476Y-99188152D02*
X133238095Y-98997676D01*
X133238095Y-98997676D02*
X133333333Y-98902438D01*
X133333333Y-98902438D02*
X133428571Y-98854819D01*
X133428571Y-98854819D02*
X133619047Y-98854819D01*
X133619047Y-98854819D02*
X133714285Y-98902438D01*
X133714285Y-98902438D02*
X133809523Y-98997676D01*
X133809523Y-98997676D02*
X133857142Y-99188152D01*
X133857142Y-99188152D02*
X133857142Y-99521485D01*
X133857142Y-99521485D02*
X133809523Y-99711961D01*
X133809523Y-99711961D02*
X133714285Y-99807200D01*
X133714285Y-99807200D02*
X133619047Y-99854819D01*
X133619047Y-99854819D02*
X133428571Y-99854819D01*
X134714285Y-98854819D02*
X134523809Y-98854819D01*
X134523809Y-98854819D02*
X134428571Y-98902438D01*
X134428571Y-98902438D02*
X134380952Y-98950057D01*
X134380952Y-98950057D02*
X134285714Y-99092914D01*
X134285714Y-99092914D02*
X134238095Y-99283390D01*
X134238095Y-99283390D02*
X134238095Y-99664342D01*
X134238095Y-99664342D02*
X134285714Y-99759580D01*
X134285714Y-99759580D02*
X134333333Y-99807200D01*
X134333333Y-99807200D02*
X134428571Y-99854819D01*
X134428571Y-99854819D02*
X134619047Y-99854819D01*
X134619047Y-99854819D02*
X134714285Y-99807200D01*
X134714285Y-99807200D02*
X134761904Y-99759580D01*
X134761904Y-99759580D02*
X134809523Y-99664342D01*
X134809523Y-99664342D02*
X134809523Y-99426247D01*
X134809523Y-99426247D02*
X134761904Y-99331009D01*
X134761904Y-99331009D02*
X134714285Y-99283390D01*
X134714285Y-99283390D02*
X134619047Y-99235771D01*
X134619047Y-99235771D02*
X134428571Y-99235771D01*
X134428571Y-99235771D02*
X134333333Y-99283390D01*
X134333333Y-99283390D02*
X134285714Y-99331009D01*
X134285714Y-99331009D02*
X134238095Y-99426247D01*
X147559819Y-99333333D02*
X148274104Y-99333333D01*
X148274104Y-99333333D02*
X148416961Y-99380952D01*
X148416961Y-99380952D02*
X148512200Y-99476190D01*
X148512200Y-99476190D02*
X148559819Y-99619047D01*
X148559819Y-99619047D02*
X148559819Y-99714285D01*
X147559819Y-98428571D02*
X147559819Y-98619047D01*
X147559819Y-98619047D02*
X147607438Y-98714285D01*
X147607438Y-98714285D02*
X147655057Y-98761904D01*
X147655057Y-98761904D02*
X147797914Y-98857142D01*
X147797914Y-98857142D02*
X147988390Y-98904761D01*
X147988390Y-98904761D02*
X148369342Y-98904761D01*
X148369342Y-98904761D02*
X148464580Y-98857142D01*
X148464580Y-98857142D02*
X148512200Y-98809523D01*
X148512200Y-98809523D02*
X148559819Y-98714285D01*
X148559819Y-98714285D02*
X148559819Y-98523809D01*
X148559819Y-98523809D02*
X148512200Y-98428571D01*
X148512200Y-98428571D02*
X148464580Y-98380952D01*
X148464580Y-98380952D02*
X148369342Y-98333333D01*
X148369342Y-98333333D02*
X148131247Y-98333333D01*
X148131247Y-98333333D02*
X148036009Y-98380952D01*
X148036009Y-98380952D02*
X147988390Y-98428571D01*
X147988390Y-98428571D02*
X147940771Y-98523809D01*
X147940771Y-98523809D02*
X147940771Y-98714285D01*
X147940771Y-98714285D02*
X147988390Y-98809523D01*
X147988390Y-98809523D02*
X148036009Y-98857142D01*
X148036009Y-98857142D02*
X148131247Y-98904761D01*
X122357142Y-72539580D02*
X122309523Y-72587200D01*
X122309523Y-72587200D02*
X122166666Y-72634819D01*
X122166666Y-72634819D02*
X122071428Y-72634819D01*
X122071428Y-72634819D02*
X121928571Y-72587200D01*
X121928571Y-72587200D02*
X121833333Y-72491961D01*
X121833333Y-72491961D02*
X121785714Y-72396723D01*
X121785714Y-72396723D02*
X121738095Y-72206247D01*
X121738095Y-72206247D02*
X121738095Y-72063390D01*
X121738095Y-72063390D02*
X121785714Y-71872914D01*
X121785714Y-71872914D02*
X121833333Y-71777676D01*
X121833333Y-71777676D02*
X121928571Y-71682438D01*
X121928571Y-71682438D02*
X122071428Y-71634819D01*
X122071428Y-71634819D02*
X122166666Y-71634819D01*
X122166666Y-71634819D02*
X122309523Y-71682438D01*
X122309523Y-71682438D02*
X122357142Y-71730057D01*
X123309523Y-72634819D02*
X122738095Y-72634819D01*
X123023809Y-72634819D02*
X123023809Y-71634819D01*
X123023809Y-71634819D02*
X122928571Y-71777676D01*
X122928571Y-71777676D02*
X122833333Y-71872914D01*
X122833333Y-71872914D02*
X122738095Y-71920533D01*
X123642857Y-71634819D02*
X124261904Y-71634819D01*
X124261904Y-71634819D02*
X123928571Y-72015771D01*
X123928571Y-72015771D02*
X124071428Y-72015771D01*
X124071428Y-72015771D02*
X124166666Y-72063390D01*
X124166666Y-72063390D02*
X124214285Y-72111009D01*
X124214285Y-72111009D02*
X124261904Y-72206247D01*
X124261904Y-72206247D02*
X124261904Y-72444342D01*
X124261904Y-72444342D02*
X124214285Y-72539580D01*
X124214285Y-72539580D02*
X124166666Y-72587200D01*
X124166666Y-72587200D02*
X124071428Y-72634819D01*
X124071428Y-72634819D02*
X123785714Y-72634819D01*
X123785714Y-72634819D02*
X123690476Y-72587200D01*
X123690476Y-72587200D02*
X123642857Y-72539580D01*
X155166666Y-84654819D02*
X155166666Y-85369104D01*
X155166666Y-85369104D02*
X155119047Y-85511961D01*
X155119047Y-85511961D02*
X155023809Y-85607200D01*
X155023809Y-85607200D02*
X154880952Y-85654819D01*
X154880952Y-85654819D02*
X154785714Y-85654819D01*
X155642857Y-85654819D02*
X155642857Y-84654819D01*
X155642857Y-84654819D02*
X156023809Y-84654819D01*
X156023809Y-84654819D02*
X156119047Y-84702438D01*
X156119047Y-84702438D02*
X156166666Y-84750057D01*
X156166666Y-84750057D02*
X156214285Y-84845295D01*
X156214285Y-84845295D02*
X156214285Y-84988152D01*
X156214285Y-84988152D02*
X156166666Y-85083390D01*
X156166666Y-85083390D02*
X156119047Y-85131009D01*
X156119047Y-85131009D02*
X156023809Y-85178628D01*
X156023809Y-85178628D02*
X155642857Y-85178628D01*
X157071428Y-84654819D02*
X156880952Y-84654819D01*
X156880952Y-84654819D02*
X156785714Y-84702438D01*
X156785714Y-84702438D02*
X156738095Y-84750057D01*
X156738095Y-84750057D02*
X156642857Y-84892914D01*
X156642857Y-84892914D02*
X156595238Y-85083390D01*
X156595238Y-85083390D02*
X156595238Y-85464342D01*
X156595238Y-85464342D02*
X156642857Y-85559580D01*
X156642857Y-85559580D02*
X156690476Y-85607200D01*
X156690476Y-85607200D02*
X156785714Y-85654819D01*
X156785714Y-85654819D02*
X156976190Y-85654819D01*
X156976190Y-85654819D02*
X157071428Y-85607200D01*
X157071428Y-85607200D02*
X157119047Y-85559580D01*
X157119047Y-85559580D02*
X157166666Y-85464342D01*
X157166666Y-85464342D02*
X157166666Y-85226247D01*
X157166666Y-85226247D02*
X157119047Y-85131009D01*
X157119047Y-85131009D02*
X157071428Y-85083390D01*
X157071428Y-85083390D02*
X156976190Y-85035771D01*
X156976190Y-85035771D02*
X156785714Y-85035771D01*
X156785714Y-85035771D02*
X156690476Y-85083390D01*
X156690476Y-85083390D02*
X156642857Y-85131009D01*
X156642857Y-85131009D02*
X156595238Y-85226247D01*
X130009580Y-73142857D02*
X130057200Y-73190476D01*
X130057200Y-73190476D02*
X130104819Y-73333333D01*
X130104819Y-73333333D02*
X130104819Y-73428571D01*
X130104819Y-73428571D02*
X130057200Y-73571428D01*
X130057200Y-73571428D02*
X129961961Y-73666666D01*
X129961961Y-73666666D02*
X129866723Y-73714285D01*
X129866723Y-73714285D02*
X129676247Y-73761904D01*
X129676247Y-73761904D02*
X129533390Y-73761904D01*
X129533390Y-73761904D02*
X129342914Y-73714285D01*
X129342914Y-73714285D02*
X129247676Y-73666666D01*
X129247676Y-73666666D02*
X129152438Y-73571428D01*
X129152438Y-73571428D02*
X129104819Y-73428571D01*
X129104819Y-73428571D02*
X129104819Y-73333333D01*
X129104819Y-73333333D02*
X129152438Y-73190476D01*
X129152438Y-73190476D02*
X129200057Y-73142857D01*
X130104819Y-72190476D02*
X130104819Y-72761904D01*
X130104819Y-72476190D02*
X129104819Y-72476190D01*
X129104819Y-72476190D02*
X129247676Y-72571428D01*
X129247676Y-72571428D02*
X129342914Y-72666666D01*
X129342914Y-72666666D02*
X129390533Y-72761904D01*
X130104819Y-71238095D02*
X130104819Y-71809523D01*
X130104819Y-71523809D02*
X129104819Y-71523809D01*
X129104819Y-71523809D02*
X129247676Y-71619047D01*
X129247676Y-71619047D02*
X129342914Y-71714285D01*
X129342914Y-71714285D02*
X129390533Y-71809523D01*
X96333333Y-99834580D02*
X96285714Y-99882200D01*
X96285714Y-99882200D02*
X96142857Y-99929819D01*
X96142857Y-99929819D02*
X96047619Y-99929819D01*
X96047619Y-99929819D02*
X95904762Y-99882200D01*
X95904762Y-99882200D02*
X95809524Y-99786961D01*
X95809524Y-99786961D02*
X95761905Y-99691723D01*
X95761905Y-99691723D02*
X95714286Y-99501247D01*
X95714286Y-99501247D02*
X95714286Y-99358390D01*
X95714286Y-99358390D02*
X95761905Y-99167914D01*
X95761905Y-99167914D02*
X95809524Y-99072676D01*
X95809524Y-99072676D02*
X95904762Y-98977438D01*
X95904762Y-98977438D02*
X96047619Y-98929819D01*
X96047619Y-98929819D02*
X96142857Y-98929819D01*
X96142857Y-98929819D02*
X96285714Y-98977438D01*
X96285714Y-98977438D02*
X96333333Y-99025057D01*
X97238095Y-98929819D02*
X96761905Y-98929819D01*
X96761905Y-98929819D02*
X96714286Y-99406009D01*
X96714286Y-99406009D02*
X96761905Y-99358390D01*
X96761905Y-99358390D02*
X96857143Y-99310771D01*
X96857143Y-99310771D02*
X97095238Y-99310771D01*
X97095238Y-99310771D02*
X97190476Y-99358390D01*
X97190476Y-99358390D02*
X97238095Y-99406009D01*
X97238095Y-99406009D02*
X97285714Y-99501247D01*
X97285714Y-99501247D02*
X97285714Y-99739342D01*
X97285714Y-99739342D02*
X97238095Y-99834580D01*
X97238095Y-99834580D02*
X97190476Y-99882200D01*
X97190476Y-99882200D02*
X97095238Y-99929819D01*
X97095238Y-99929819D02*
X96857143Y-99929819D01*
X96857143Y-99929819D02*
X96761905Y-99882200D01*
X96761905Y-99882200D02*
X96714286Y-99834580D01*
X101804819Y-76886904D02*
X102614342Y-76886904D01*
X102614342Y-76886904D02*
X102709580Y-76839285D01*
X102709580Y-76839285D02*
X102757200Y-76791666D01*
X102757200Y-76791666D02*
X102804819Y-76696428D01*
X102804819Y-76696428D02*
X102804819Y-76505952D01*
X102804819Y-76505952D02*
X102757200Y-76410714D01*
X102757200Y-76410714D02*
X102709580Y-76363095D01*
X102709580Y-76363095D02*
X102614342Y-76315476D01*
X102614342Y-76315476D02*
X101804819Y-76315476D01*
X102138152Y-75410714D02*
X102804819Y-75410714D01*
X101757200Y-75648809D02*
X102471485Y-75886904D01*
X102471485Y-75886904D02*
X102471485Y-75267857D01*
D11*
%TO.C,U3*%
X152620000Y-88125000D02*
X151620000Y-88125000D01*
X152620000Y-87345000D02*
X152620000Y-88125000D01*
X152620000Y-62385000D02*
X152620000Y-68800000D01*
X134380000Y-88125000D02*
X135380000Y-88125000D01*
X134380000Y-87345000D02*
X134380000Y-88125000D01*
X134380000Y-68800000D02*
X134000000Y-68800000D01*
X134380000Y-62385000D02*
X152620000Y-62385000D01*
X134380000Y-62385000D02*
X134380000Y-68800000D01*
%TO.C,J1*%
X98605000Y-80795000D02*
X98605000Y-82125000D01*
X97275000Y-80795000D02*
X98605000Y-80795000D01*
X96005000Y-80795000D02*
X93405000Y-80795000D01*
X96005000Y-80795000D02*
X96005000Y-83455000D01*
X93405000Y-80795000D02*
X93405000Y-83455000D01*
X96005000Y-83455000D02*
X93405000Y-83455000D01*
%TO.C,Q1*%
X116500000Y-107560000D02*
X118300000Y-107560000D01*
X116500000Y-107560000D02*
X115700000Y-107560000D01*
X116500000Y-104440000D02*
X117300000Y-104440000D01*
X116500000Y-104440000D02*
X115700000Y-104440000D01*
%TO.C,R2*%
X115040000Y-74227064D02*
X115040000Y-73772936D01*
X116510000Y-74227064D02*
X116510000Y-73772936D01*
%TO.C,Y1*%
X132105000Y-106670000D02*
X132105000Y-108000000D01*
X130775000Y-106670000D02*
X132105000Y-106670000D01*
X129505000Y-106670000D02*
X126905000Y-106670000D01*
X129505000Y-106670000D02*
X129505000Y-109330000D01*
X126905000Y-106670000D02*
X126905000Y-109330000D01*
X129505000Y-109330000D02*
X126905000Y-109330000D01*
%TO.C,R14*%
X130227064Y-97735000D02*
X129772936Y-97735000D01*
X130227064Y-96265000D02*
X129772936Y-96265000D01*
%TO.C,D2*%
X110230000Y-102500000D02*
X110880000Y-102500000D01*
X110880000Y-101380000D02*
X110880000Y-103620000D01*
X110880000Y-103620000D02*
X115120000Y-103620000D01*
X111480000Y-101380000D02*
X111480000Y-103620000D01*
X111600000Y-101380000D02*
X111600000Y-103620000D01*
X111720000Y-101380000D02*
X111720000Y-103620000D01*
X115120000Y-101380000D02*
X110880000Y-101380000D01*
X115120000Y-103620000D02*
X115120000Y-101380000D01*
X115770000Y-102500000D02*
X115120000Y-102500000D01*
%TO.C,C1*%
X138235000Y-94738748D02*
X138235000Y-95261252D01*
X136765000Y-94738748D02*
X136765000Y-95261252D01*
%TO.C,J5*%
X156105000Y-92670000D02*
X156105000Y-94000000D01*
X154775000Y-92670000D02*
X156105000Y-92670000D01*
X153505000Y-92670000D02*
X150905000Y-92670000D01*
X153505000Y-92670000D02*
X153505000Y-95330000D01*
X150905000Y-92670000D02*
X150905000Y-95330000D01*
X153505000Y-95330000D02*
X150905000Y-95330000D01*
%TO.C,C9*%
X115337500Y-90077500D02*
X116125000Y-90077500D01*
X115731250Y-89683750D02*
X115731250Y-90471250D01*
X116365000Y-89579437D02*
X116365000Y-90865000D01*
X116365000Y-89579437D02*
X117429437Y-88515000D01*
X116365000Y-94270563D02*
X116365000Y-92985000D01*
X116365000Y-94270563D02*
X117429437Y-95335000D01*
X117429437Y-88515000D02*
X123185000Y-88515000D01*
X117429437Y-95335000D02*
X123185000Y-95335000D01*
X123185000Y-88515000D02*
X123185000Y-90865000D01*
X123185000Y-95335000D02*
X123185000Y-92985000D01*
%TO.C,U1*%
X142000000Y-96620000D02*
X145000000Y-96620000D01*
X141000000Y-93380000D02*
X143000000Y-93380000D01*
%TO.C,D1*%
X122000000Y-102040000D02*
X122000000Y-102690000D01*
X123120000Y-102690000D02*
X120880000Y-102690000D01*
X120880000Y-102690000D02*
X120880000Y-106930000D01*
X123120000Y-103290000D02*
X120880000Y-103290000D01*
X123120000Y-103410000D02*
X120880000Y-103410000D01*
X123120000Y-103530000D02*
X120880000Y-103530000D01*
X123120000Y-106930000D02*
X123120000Y-102690000D01*
X120880000Y-106930000D02*
X123120000Y-106930000D01*
X122000000Y-107580000D02*
X122000000Y-106930000D01*
%TO.C,Q3*%
X143060000Y-103862500D02*
X143060000Y-102062500D01*
X143060000Y-103862500D02*
X143060000Y-104662500D01*
X139940000Y-103862500D02*
X139940000Y-103062500D01*
X139940000Y-103862500D02*
X139940000Y-104662500D01*
%TO.C,JP5*%
X127900000Y-87500000D02*
X125100000Y-87500000D01*
X127900000Y-85500000D02*
X127900000Y-87500000D01*
X125100000Y-87500000D02*
X125100000Y-85500000D01*
X125100000Y-85500000D02*
X127900000Y-85500000D01*
%TO.C,R5*%
X126735000Y-77772936D02*
X126735000Y-78227064D01*
X125265000Y-77772936D02*
X125265000Y-78227064D01*
%TO.C,D3*%
X99850000Y-82635000D02*
X103150000Y-82635000D01*
X99850000Y-82635000D02*
X99850000Y-75625000D01*
X103150000Y-82635000D02*
X103150000Y-75625000D01*
%TO.C,R12*%
X125772936Y-96265000D02*
X126227064Y-96265000D01*
X125772936Y-97735000D02*
X126227064Y-97735000D01*
%TO.C,R8*%
X135235000Y-107635436D02*
X135235000Y-108089564D01*
X133765000Y-107635436D02*
X133765000Y-108089564D01*
%TO.C,JP2*%
X121600000Y-78000000D02*
X124400000Y-78000000D01*
X121600000Y-80000000D02*
X121600000Y-78000000D01*
X124400000Y-78000000D02*
X124400000Y-80000000D01*
X124400000Y-80000000D02*
X121600000Y-80000000D01*
%TO.C,C6*%
X115337500Y-82577500D02*
X116125000Y-82577500D01*
X115731250Y-82183750D02*
X115731250Y-82971250D01*
X116365000Y-82079437D02*
X116365000Y-83365000D01*
X116365000Y-82079437D02*
X117429437Y-81015000D01*
X116365000Y-86770563D02*
X116365000Y-85485000D01*
X116365000Y-86770563D02*
X117429437Y-87835000D01*
X117429437Y-81015000D02*
X123185000Y-81015000D01*
X117429437Y-87835000D02*
X123185000Y-87835000D01*
X123185000Y-81015000D02*
X123185000Y-83365000D01*
X123185000Y-87835000D02*
X123185000Y-85485000D01*
%TO.C,C3*%
X120738748Y-97765000D02*
X121261252Y-97765000D01*
X120738748Y-99235000D02*
X121261252Y-99235000D01*
%TO.C,C8*%
X116238748Y-95765000D02*
X116761252Y-95765000D01*
X116238748Y-97235000D02*
X116761252Y-97235000D01*
%TO.C,C2*%
X139265000Y-99261252D02*
X139265000Y-98738748D01*
X140735000Y-99261252D02*
X140735000Y-98738748D01*
%TO.C,R9*%
X125235000Y-107772936D02*
X125235000Y-108227064D01*
X123765000Y-107772936D02*
X123765000Y-108227064D01*
%TO.C,L1*%
X114300000Y-87325000D02*
X114300000Y-99925000D01*
X111300000Y-87325000D02*
X114300000Y-87325000D01*
X101700000Y-87325000D02*
X104700000Y-87325000D01*
X114300000Y-99925000D02*
X111300000Y-99925000D01*
X104700000Y-99925000D02*
X101700000Y-99925000D01*
X101700000Y-99925000D02*
X101700000Y-87325000D01*
%TO.C,R6*%
X138735000Y-107635436D02*
X138735000Y-108089564D01*
X137265000Y-107635436D02*
X137265000Y-108089564D01*
D10*
%TO.C,JP1*%
X151220000Y-90600000D02*
X151720000Y-90100000D01*
X151220000Y-91400000D02*
X151220000Y-90600000D01*
X151720000Y-90100000D02*
X155320000Y-90100000D01*
X151720000Y-91900000D02*
X151220000Y-91400000D01*
X155320000Y-90100000D02*
X155820000Y-90600000D01*
X155320000Y-91900000D02*
X151720000Y-91900000D01*
X155820000Y-90600000D02*
X155820000Y-91400000D01*
X155820000Y-91400000D02*
X155320000Y-91900000D01*
D11*
%TO.C,R11*%
X126227064Y-95735000D02*
X125772936Y-95735000D01*
X126227064Y-94265000D02*
X125772936Y-94265000D01*
%TO.C,C10*%
X133235000Y-70738748D02*
X133235000Y-71261252D01*
X131765000Y-70738748D02*
X131765000Y-71261252D01*
%TO.C,M1*%
X108395000Y-107315000D02*
X108395000Y-105985000D01*
X109725000Y-107315000D02*
X108395000Y-107315000D01*
X110995000Y-107315000D02*
X113595000Y-107315000D01*
X110995000Y-107315000D02*
X110995000Y-104655000D01*
X113595000Y-107315000D02*
X113595000Y-104655000D01*
X110995000Y-104655000D02*
X113595000Y-104655000D01*
%TO.C,R15*%
X115040000Y-78227064D02*
X115040000Y-77772936D01*
X116510000Y-78227064D02*
X116510000Y-77772936D01*
%TO.C,J4*%
X160830000Y-82405000D02*
X159500000Y-82405000D01*
X160830000Y-81075000D02*
X160830000Y-82405000D01*
X160830000Y-79805000D02*
X160830000Y-69585000D01*
X160830000Y-79805000D02*
X158170000Y-79805000D01*
X160830000Y-69585000D02*
X158170000Y-69585000D01*
X158170000Y-79805000D02*
X158170000Y-69585000D01*
%TO.C,Q4*%
X136060000Y-103862500D02*
X136060000Y-102062500D01*
X136060000Y-103862500D02*
X136060000Y-104662500D01*
X132940000Y-103862500D02*
X132940000Y-103062500D01*
X132940000Y-103862500D02*
X132940000Y-104662500D01*
%TO.C,Q2*%
X139560000Y-103862500D02*
X139560000Y-102062500D01*
X139560000Y-103862500D02*
X139560000Y-104662500D01*
X136440000Y-103862500D02*
X136440000Y-103062500D01*
X136440000Y-103862500D02*
X136440000Y-104662500D01*
%TO.C,R3*%
X155272936Y-83265000D02*
X155727064Y-83265000D01*
X155272936Y-84735000D02*
X155727064Y-84735000D01*
%TO.C,JP3*%
X125100000Y-80500000D02*
X127900000Y-80500000D01*
X125100000Y-82500000D02*
X125100000Y-80500000D01*
X127900000Y-80500000D02*
X127900000Y-82500000D01*
X127900000Y-82500000D02*
X125100000Y-82500000D01*
%TO.C,C12*%
X131261252Y-74735000D02*
X130738748Y-74735000D01*
X131261252Y-73265000D02*
X130738748Y-73265000D01*
%TO.C,R17*%
X118510000Y-77772936D02*
X118510000Y-78227064D01*
X117040000Y-77772936D02*
X117040000Y-78227064D01*
%TO.C,R4*%
X142235000Y-107635436D02*
X142235000Y-108089564D01*
X140765000Y-107635436D02*
X140765000Y-108089564D01*
%TO.C,R16*%
X118510000Y-73772936D02*
X118510000Y-74227064D01*
X117040000Y-73772936D02*
X117040000Y-74227064D01*
%TO.C,SW2*%
X160050000Y-91200000D02*
X159950000Y-91200000D01*
X161750000Y-91200000D02*
X161750000Y-86800000D01*
X158250000Y-86800000D02*
X158250000Y-91200000D01*
X160050000Y-86800000D02*
X159950000Y-86800000D01*
%TO.C,R1*%
X147235000Y-94772936D02*
X147235000Y-95227064D01*
X145765000Y-94772936D02*
X145765000Y-95227064D01*
%TO.C,C7*%
X101265000Y-84886252D02*
X101265000Y-84363748D01*
X102735000Y-84886252D02*
X102735000Y-84363748D01*
%TO.C,J3*%
X129170000Y-80595000D02*
X130500000Y-80595000D01*
X129170000Y-81925000D02*
X129170000Y-80595000D01*
X129170000Y-83195000D02*
X129170000Y-93415000D01*
X129170000Y-83195000D02*
X131830000Y-83195000D01*
X129170000Y-93415000D02*
X131830000Y-93415000D01*
X131830000Y-83195000D02*
X131830000Y-93415000D01*
%TO.C,R10*%
X130735000Y-101772936D02*
X130735000Y-102227064D01*
X129265000Y-101772936D02*
X129265000Y-102227064D01*
%TO.C,C4*%
X100937500Y-89472500D02*
X100150000Y-89472500D01*
X100543750Y-89866250D02*
X100543750Y-89078750D01*
X99910000Y-89970563D02*
X99910000Y-88685000D01*
X99910000Y-89970563D02*
X98845563Y-91035000D01*
X99910000Y-85279437D02*
X99910000Y-86565000D01*
X99910000Y-85279437D02*
X98845563Y-84215000D01*
X98845563Y-91035000D02*
X93090000Y-91035000D01*
X98845563Y-84215000D02*
X93090000Y-84215000D01*
X93090000Y-91035000D02*
X93090000Y-88685000D01*
X93090000Y-84215000D02*
X93090000Y-86565000D01*
%TO.C,JP4*%
X125100000Y-83000000D02*
X127900000Y-83000000D01*
X125100000Y-85000000D02*
X125100000Y-83000000D01*
X127900000Y-83000000D02*
X127900000Y-85000000D01*
X127900000Y-85000000D02*
X125100000Y-85000000D01*
%TO.C,J2*%
X154170000Y-69870000D02*
X155500000Y-69870000D01*
X154170000Y-71200000D02*
X154170000Y-69870000D01*
X154170000Y-72470000D02*
X154170000Y-80150000D01*
X154170000Y-72470000D02*
X156830000Y-72470000D01*
X154170000Y-80150000D02*
X156830000Y-80150000D01*
X156830000Y-72470000D02*
X156830000Y-80150000D01*
%TO.C,U2*%
X123440000Y-102000000D02*
X123440000Y-105450000D01*
X123440000Y-102000000D02*
X123440000Y-100050000D01*
X128560000Y-102000000D02*
X128560000Y-103950000D01*
X128560000Y-102000000D02*
X128560000Y-100050000D01*
%TO.C,SW1*%
X122950000Y-72300000D02*
X123050000Y-72300000D01*
X121250000Y-72300000D02*
X121250000Y-76700000D01*
X124750000Y-76700000D02*
X124750000Y-72300000D01*
X122950000Y-76700000D02*
X123050000Y-76700000D01*
%TO.C,C14*%
X159813748Y-84265000D02*
X160336252Y-84265000D01*
X159813748Y-85735000D02*
X160336252Y-85735000D01*
%TO.C,Q6*%
X134000000Y-98560000D02*
X135800000Y-98560000D01*
X134000000Y-98560000D02*
X133200000Y-98560000D01*
X134000000Y-95440000D02*
X134800000Y-95440000D01*
X134000000Y-95440000D02*
X133200000Y-95440000D01*
%TO.C,J6*%
X147105000Y-97670000D02*
X147105000Y-99000000D01*
X145775000Y-97670000D02*
X147105000Y-97670000D01*
X144505000Y-97670000D02*
X141905000Y-97670000D01*
X144505000Y-97670000D02*
X144505000Y-100330000D01*
X141905000Y-97670000D02*
X141905000Y-100330000D01*
X144505000Y-100330000D02*
X141905000Y-100330000D01*
%TO.C,C13*%
X123261252Y-71235000D02*
X122738748Y-71235000D01*
X123261252Y-69765000D02*
X122738748Y-69765000D01*
%TO.C,JP6*%
X154600000Y-86000000D02*
X157400000Y-86000000D01*
X154600000Y-88000000D02*
X154600000Y-86000000D01*
X157400000Y-86000000D02*
X157400000Y-88000000D01*
X157400000Y-88000000D02*
X154600000Y-88000000D01*
%TO.C,C11*%
X128710000Y-71338748D02*
X128710000Y-73661252D01*
X125290000Y-71338748D02*
X125290000Y-73661252D01*
%TO.C,C5*%
X100937500Y-96972500D02*
X100150000Y-96972500D01*
X100543750Y-97366250D02*
X100543750Y-96578750D01*
X99910000Y-97470563D02*
X99910000Y-96185000D01*
X99910000Y-97470563D02*
X98845563Y-98535000D01*
X99910000Y-92779437D02*
X99910000Y-94065000D01*
X99910000Y-92779437D02*
X98845563Y-91715000D01*
X98845563Y-98535000D02*
X93090000Y-98535000D01*
X98845563Y-91715000D02*
X93090000Y-91715000D01*
X93090000Y-98535000D02*
X93090000Y-96185000D01*
X93090000Y-91715000D02*
X93090000Y-94065000D01*
%TO.C,U4*%
X103800000Y-80950000D02*
X104750000Y-80950000D01*
X104750000Y-80950000D02*
X104750000Y-86075000D01*
X113250000Y-80950000D02*
X113250000Y-82050000D01*
X114200000Y-80950000D02*
X113250000Y-80950000D01*
X103800000Y-79450000D02*
X103800000Y-80950000D01*
X114200000Y-79450000D02*
X114200000Y-80950000D01*
%TD*%
M02*
