%TF.GenerationSoftware,KiCad,Pcbnew,7.0.8*%
%TF.CreationDate,2023-12-29T21:58:38-05:00*%
%TF.ProjectId,SleepMonitor,536c6565-704d-46f6-9e69-746f722e6b69,rev?*%
%TF.SameCoordinates,Original*%
%TF.FileFunction,Soldermask,Top*%
%TF.FilePolarity,Negative*%
%FSLAX46Y46*%
G04 Gerber Fmt 4.6, Leading zero omitted, Abs format (unit mm)*
G04 Created by KiCad (PCBNEW 7.0.8) date 2023-12-29 21:58:38*
%MOMM*%
%LPD*%
G01*
G04 APERTURE LIST*
G04 Aperture macros list*
%AMRoundRect*
0 Rectangle with rounded corners*
0 $1 Rounding radius*
0 $2 $3 $4 $5 $6 $7 $8 $9 X,Y pos of 4 corners*
0 Add a 4 corners polygon primitive as box body*
4,1,4,$2,$3,$4,$5,$6,$7,$8,$9,$2,$3,0*
0 Add four circle primitives for the rounded corners*
1,1,$1+$1,$2,$3*
1,1,$1+$1,$4,$5*
1,1,$1+$1,$6,$7*
1,1,$1+$1,$8,$9*
0 Add four rect primitives between the rounded corners*
20,1,$1+$1,$2,$3,$4,$5,0*
20,1,$1+$1,$4,$5,$6,$7,0*
20,1,$1+$1,$6,$7,$8,$9,0*
20,1,$1+$1,$8,$9,$2,$3,0*%
%AMFreePoly0*
4,1,6,1.000000,0.000000,0.500000,-0.750000,-0.500000,-0.750000,-0.500000,0.750000,0.500000,0.750000,1.000000,0.000000,1.000000,0.000000,$1*%
%AMFreePoly1*
4,1,6,0.500000,-0.750000,-0.650000,-0.750000,-0.150000,0.000000,-0.650000,0.750000,0.500000,0.750000,0.500000,-0.750000,0.500000,-0.750000,$1*%
G04 Aperture macros list end*
%ADD10C,0.600000*%
%ADD11R,3.800000X3.800000*%
%ADD12C,0.800000*%
%ADD13R,1.500000X0.900000*%
%ADD14R,0.900000X1.500000*%
%ADD15R,1.700000X1.700000*%
%ADD16O,1.700000X1.700000*%
%ADD17RoundRect,0.150000X0.512500X0.150000X-0.512500X0.150000X-0.512500X-0.150000X0.512500X-0.150000X0*%
%ADD18RoundRect,0.250000X0.450000X-0.350000X0.450000X0.350000X-0.450000X0.350000X-0.450000X-0.350000X0*%
%ADD19RoundRect,0.250000X0.350000X0.450000X-0.350000X0.450000X-0.350000X-0.450000X0.350000X-0.450000X0*%
%ADD20R,1.600000X1.600000*%
%ADD21O,1.600000X1.600000*%
%ADD22RoundRect,0.250000X-0.475000X0.337500X-0.475000X-0.337500X0.475000X-0.337500X0.475000X0.337500X0*%
%ADD23RoundRect,0.250000X-1.500000X-0.550000X1.500000X-0.550000X1.500000X0.550000X-1.500000X0.550000X0*%
%ADD24R,1.450000X0.450000*%
%ADD25RoundRect,0.150000X-0.150000X0.512500X-0.150000X-0.512500X0.150000X-0.512500X0.150000X0.512500X0*%
%ADD26FreePoly0,180.000000*%
%ADD27FreePoly1,180.000000*%
%ADD28RoundRect,0.250000X-0.450000X0.350000X-0.450000X-0.350000X0.450000X-0.350000X0.450000X0.350000X0*%
%ADD29RoundRect,0.250000X0.650000X-1.500000X0.650000X1.500000X-0.650000X1.500000X-0.650000X-1.500000X0*%
%ADD30RoundRect,0.250000X-0.350000X-0.450000X0.350000X-0.450000X0.350000X0.450000X-0.350000X0.450000X0*%
%ADD31FreePoly0,0.000000*%
%ADD32FreePoly1,0.000000*%
%ADD33RoundRect,0.250000X-0.337500X-0.475000X0.337500X-0.475000X0.337500X0.475000X-0.337500X0.475000X0*%
%ADD34RoundRect,0.250000X0.475000X-0.337500X0.475000X0.337500X-0.475000X0.337500X-0.475000X-0.337500X0*%
%ADD35R,5.400000X2.900000*%
%ADD36C,1.400000*%
%ADD37RoundRect,0.250000X0.337500X0.475000X-0.337500X0.475000X-0.337500X-0.475000X0.337500X-0.475000X0*%
%ADD38R,0.650000X1.050000*%
%ADD39RoundRect,0.250000X1.500000X0.550000X-1.500000X0.550000X-1.500000X-0.550000X1.500000X-0.550000X0*%
%ADD40RoundRect,0.150000X0.150000X-0.825000X0.150000X0.825000X-0.150000X0.825000X-0.150000X-0.825000X0*%
%ADD41RoundRect,0.250000X-1.450000X0.537500X-1.450000X-0.537500X1.450000X-0.537500X1.450000X0.537500X0*%
%ADD42RoundRect,0.250000X0.300000X-2.050000X0.300000X2.050000X-0.300000X2.050000X-0.300000X-2.050000X0*%
%ADD43RoundRect,0.250002X5.149998X-4.449998X5.149998X4.449998X-5.149998X4.449998X-5.149998X-4.449998X0*%
G04 APERTURE END LIST*
D10*
%TO.C,U3*%
X143400000Y-78415000D03*
X143400000Y-77015000D03*
X142700000Y-79115000D03*
X142700000Y-77715000D03*
X142700000Y-76315000D03*
D11*
X142000000Y-77715000D03*
D10*
X141975000Y-78415000D03*
X141975000Y-77015000D03*
X141300000Y-79115000D03*
X141300000Y-77715000D03*
D12*
X141300000Y-76315000D03*
D10*
X140600000Y-78415000D03*
D12*
X140600000Y-77015000D03*
D13*
X152250000Y-69995000D03*
X152250000Y-71265000D03*
X152250000Y-72535000D03*
X152250000Y-73805000D03*
X152250000Y-75075000D03*
X152250000Y-76345000D03*
X152250000Y-77615000D03*
X152250000Y-78885000D03*
X152250000Y-80155000D03*
X152250000Y-81425000D03*
X152250000Y-82695000D03*
X152250000Y-83965000D03*
X152250000Y-85235000D03*
X152250000Y-86505000D03*
D14*
X149220000Y-87755000D03*
X147950000Y-87755000D03*
X146680000Y-87755000D03*
X145410000Y-87755000D03*
X144140000Y-87755000D03*
X142870000Y-87755000D03*
X141600000Y-87755000D03*
X140330000Y-87755000D03*
X139060000Y-87755000D03*
X137790000Y-87755000D03*
D13*
X134750000Y-86505000D03*
X134750000Y-85235000D03*
X134750000Y-83965000D03*
X134750000Y-82695000D03*
X134750000Y-81425000D03*
X134750000Y-80155000D03*
X134750000Y-78885000D03*
X134750000Y-77615000D03*
X134750000Y-76345000D03*
X134750000Y-75075000D03*
X134750000Y-73805000D03*
X134750000Y-72535000D03*
X134750000Y-71265000D03*
X134750000Y-69995000D03*
%TD*%
D15*
%TO.C,J1*%
X97275000Y-82125000D03*
D16*
X94735000Y-82125000D03*
%TD*%
D17*
%TO.C,Q1*%
X117637500Y-106950000D03*
X117637500Y-105050000D03*
X115362500Y-106000000D03*
%TD*%
D18*
%TO.C,R2*%
X115775000Y-75000000D03*
X115775000Y-73000000D03*
%TD*%
D15*
%TO.C,Y1*%
X130775000Y-108000000D03*
D16*
X128235000Y-108000000D03*
%TD*%
D19*
%TO.C,R14*%
X131000000Y-97000000D03*
X129000000Y-97000000D03*
%TD*%
D20*
%TO.C,D2*%
X109190000Y-102500000D03*
D21*
X116810000Y-102500000D03*
%TD*%
D22*
%TO.C,C1*%
X137500000Y-93962500D03*
X137500000Y-96037500D03*
%TD*%
D15*
%TO.C,J5*%
X154775000Y-94000000D03*
D16*
X152235000Y-94000000D03*
%TD*%
D23*
%TO.C,C9*%
X117075000Y-91925000D03*
X122475000Y-91925000D03*
%TD*%
D24*
%TO.C,U1*%
X144200000Y-95975000D03*
X144200000Y-95325000D03*
X144200000Y-94675000D03*
X144200000Y-94025000D03*
X139800000Y-94025000D03*
X139800000Y-94675000D03*
X139800000Y-95325000D03*
X139800000Y-95975000D03*
%TD*%
D20*
%TO.C,D1*%
X122000000Y-101000000D03*
D21*
X122000000Y-108620000D03*
%TD*%
D25*
%TO.C,Q3*%
X142450000Y-102725000D03*
X140550000Y-102725000D03*
X141500000Y-105000000D03*
%TD*%
D26*
%TO.C,JP5*%
X127225000Y-86500000D03*
D27*
X125775000Y-86500000D03*
%TD*%
D28*
%TO.C,R5*%
X126000000Y-77000000D03*
X126000000Y-79000000D03*
%TD*%
D29*
%TO.C,D3*%
X101500000Y-80625000D03*
X101500000Y-75625000D03*
%TD*%
D30*
%TO.C,R12*%
X125000000Y-97000000D03*
X127000000Y-97000000D03*
%TD*%
D28*
%TO.C,R8*%
X134500000Y-106862500D03*
X134500000Y-108862500D03*
%TD*%
D31*
%TO.C,JP2*%
X122275000Y-79000000D03*
D32*
X123725000Y-79000000D03*
%TD*%
D23*
%TO.C,C6*%
X117075000Y-84425000D03*
X122475000Y-84425000D03*
%TD*%
D33*
%TO.C,C3*%
X119962500Y-98500000D03*
X122037500Y-98500000D03*
%TD*%
%TO.C,C8*%
X115462500Y-96500000D03*
X117537500Y-96500000D03*
%TD*%
D34*
%TO.C,C2*%
X140000000Y-100037500D03*
X140000000Y-97962500D03*
%TD*%
D28*
%TO.C,R9*%
X124500000Y-107000000D03*
X124500000Y-109000000D03*
%TD*%
D35*
%TO.C,L1*%
X108000000Y-88675000D03*
X108000000Y-98575000D03*
%TD*%
D28*
%TO.C,R6*%
X138000000Y-106862500D03*
X138000000Y-108862500D03*
%TD*%
D36*
%TO.C,JP1*%
X152250000Y-91000000D03*
X154790000Y-91000000D03*
%TD*%
D19*
%TO.C,R11*%
X127000000Y-95000000D03*
X125000000Y-95000000D03*
%TD*%
D22*
%TO.C,C10*%
X132500000Y-69962500D03*
X132500000Y-72037500D03*
%TD*%
D15*
%TO.C,M1*%
X109725000Y-105985000D03*
D16*
X112265000Y-105985000D03*
%TD*%
D18*
%TO.C,R15*%
X115775000Y-79000000D03*
X115775000Y-77000000D03*
%TD*%
D15*
%TO.C,J4*%
X159500000Y-81075000D03*
D16*
X159500000Y-78535000D03*
X159500000Y-75995000D03*
X159500000Y-73455000D03*
X159500000Y-70915000D03*
%TD*%
D25*
%TO.C,Q4*%
X135450000Y-102725000D03*
X133550000Y-102725000D03*
X134500000Y-105000000D03*
%TD*%
%TO.C,Q2*%
X138950000Y-102725000D03*
X137050000Y-102725000D03*
X138000000Y-105000000D03*
%TD*%
D30*
%TO.C,R3*%
X154500000Y-84000000D03*
X156500000Y-84000000D03*
%TD*%
D31*
%TO.C,JP3*%
X125775000Y-81500000D03*
D32*
X127225000Y-81500000D03*
%TD*%
D37*
%TO.C,C12*%
X132037500Y-74000000D03*
X129962500Y-74000000D03*
%TD*%
D28*
%TO.C,R17*%
X117775000Y-77000000D03*
X117775000Y-79000000D03*
%TD*%
%TO.C,R4*%
X141500000Y-106862500D03*
X141500000Y-108862500D03*
%TD*%
%TO.C,R16*%
X117775000Y-73000000D03*
X117775000Y-75000000D03*
%TD*%
D38*
%TO.C,SW2*%
X158925000Y-91075000D03*
X158925000Y-86925000D03*
X161075000Y-91075000D03*
X161075000Y-86950000D03*
%TD*%
D28*
%TO.C,R1*%
X146500000Y-94000000D03*
X146500000Y-96000000D03*
%TD*%
D34*
%TO.C,C7*%
X102000000Y-85662500D03*
X102000000Y-83587500D03*
%TD*%
D15*
%TO.C,J3*%
X130500000Y-81925000D03*
D16*
X130500000Y-84465000D03*
X130500000Y-87005000D03*
X130500000Y-89545000D03*
X130500000Y-92085000D03*
%TD*%
D28*
%TO.C,R10*%
X130000000Y-101000000D03*
X130000000Y-103000000D03*
%TD*%
D39*
%TO.C,C4*%
X99200000Y-87625000D03*
X93800000Y-87625000D03*
%TD*%
D31*
%TO.C,JP4*%
X125775000Y-84000000D03*
D32*
X127225000Y-84000000D03*
%TD*%
D15*
%TO.C,J2*%
X155500000Y-71200000D03*
D16*
X155500000Y-73740000D03*
X155500000Y-76280000D03*
X155500000Y-78820000D03*
%TD*%
D40*
%TO.C,U2*%
X124095000Y-104475000D03*
X125365000Y-104475000D03*
X126635000Y-104475000D03*
X127905000Y-104475000D03*
X127905000Y-99525000D03*
X126635000Y-99525000D03*
X125365000Y-99525000D03*
X124095000Y-99525000D03*
%TD*%
D38*
%TO.C,SW1*%
X124075000Y-72425000D03*
X124075000Y-76575000D03*
X121925000Y-72425000D03*
X121925000Y-76550000D03*
%TD*%
D33*
%TO.C,C14*%
X159037500Y-85000000D03*
X161112500Y-85000000D03*
%TD*%
D17*
%TO.C,Q6*%
X135137500Y-97950000D03*
X135137500Y-96050000D03*
X132862500Y-97000000D03*
%TD*%
D15*
%TO.C,J6*%
X145775000Y-99000000D03*
D16*
X143235000Y-99000000D03*
%TD*%
D37*
%TO.C,C13*%
X124037500Y-70500000D03*
X121962500Y-70500000D03*
%TD*%
D31*
%TO.C,JP6*%
X155275000Y-87000000D03*
D32*
X156725000Y-87000000D03*
%TD*%
D41*
%TO.C,C11*%
X127000000Y-70362500D03*
X127000000Y-74637500D03*
%TD*%
D39*
%TO.C,C5*%
X99200000Y-95125000D03*
X93800000Y-95125000D03*
%TD*%
D42*
%TO.C,U4*%
X105600000Y-83775000D03*
X107300000Y-83775000D03*
X109000000Y-83775000D03*
D43*
X109000000Y-74625000D03*
D42*
X110700000Y-83775000D03*
X112400000Y-83775000D03*
%TD*%
M02*
